<?xml version="1.0" encoding="utf-8"?>
<!-- Generator: Adobe Illustrator 16.0.0, SVG Export Plug-In . SVG Version: 6.00 Build 0)  -->
<!DOCTYPE svg PUBLIC "-//W3C//DTD SVG 1.1//EN" "http://www.w3.org/Graphics/SVG/1.1/DTD/svg11.dtd">
<svg version="1.1" id="Capa_1" xmlns="http://www.w3.org/2000/svg" xmlns:xlink="http://www.w3.org/1999/xlink" x="0px" y="0px"
	 width="907.333px" height="212px" viewBox="0 0 907.333 212" enable-background="new 0 0 907.333 212" xml:space="preserve">
<path fill="#394045" d="M298.056,44.362h-2.86v8.151h-0.067c-0.651-1.568-2.394-2.557-4.036-2.557c-5.149,0-5.761,5.802-5.761,9.621
	c0,5.772,1.636,9.625,5.97,9.625c1.981,0,3.584-1.364,3.963-2.73h0.065v2.254h2.726V44.362L298.056,44.362z M288.329,59.579
	c0-4.37,0.685-7.17,3.346-7.17c3.076,0,3.692,3.621,3.692,7.17c0,4.168-0.516,7.174-3.692,7.174
	C289.013,66.751,288.329,63.952,288.329,59.579 M279.261,63.47c0,1.881-1.813,3.481-3.691,3.481c-1.948,0-2.6-1.294-2.6-3.139
	c0-1.604,0.479-2.321,1.403-2.896c1.295-0.79,3.825-1.027,4.888-2.161V63.47z M273.278,55.964v-0.171c0-0.65,0-3.581,3.141-3.581
	c1.917,0,2.94,0.985,2.94,2.688c0,1.542,0,2.117-2.081,2.768l-3.861,1.16c-2.351,0.716-3.44,2.492-3.44,5.055
	c0,3.272,1.563,5.32,4.976,5.32c1.711,0,3.483-0.988,4.407-2.625h0.069c0.135,2.355,1.498,2.355,2.591,2.355
	c0.717,0,1.467-0.139,1.667-0.172v-2.045c-0.135,0.103-0.302,0.168-0.681,0.168c-0.883,0-0.883-0.714-0.883-1.461V55.208
	c0-1.911,0-5.251-5.564-5.251c-4.373,0-6.143,1.84-6.143,6.007L273.278,55.964L273.278,55.964z M267.101,44.362h-2.858v8.151h-0.069
	c-0.649-1.568-2.393-2.557-4.036-2.557c-5.146,0-5.763,5.802-5.763,9.621c0,5.772,1.639,9.625,5.973,9.625
	c1.983,0,3.581-1.364,3.961-2.73h0.068v2.254h2.725L267.101,44.362L267.101,44.362z M257.373,59.579c0-4.37,0.683-7.17,3.348-7.17
	c3.076,0,3.691,3.621,3.691,7.17c0,4.168-0.516,7.174-3.691,7.174C258.055,66.751,257.373,63.952,257.373,59.579 M248.264,47.63
	h2.859v-3.272h-2.859V47.63z M248.264,68.728h2.859V50.436h-2.859V68.728z M244.92,55.792c-0.038-2.15-0.242-5.836-5.562-5.836
	c-3.178,0-5.833,1.636-5.833,5.048c0,3.792,2.279,4.436,4.504,5.192c2.218,0.751,4.467,1.263,4.467,3.72
	c0,2.59-2.115,3.034-3.037,3.034c-2.798,0-3.413-2.009-3.413-4.231h-2.867c0,1.882,0.073,6.484,6.279,6.484
	c3.416,0,5.904-1.878,5.904-5.734c0-3.614-2.253-4.398-4.469-5.146c-2.254-0.764-4.51-1.164-4.51-3.319
	c0-2.558,2.049-2.792,2.974-2.792c2.082,0,2.697,1.261,2.697,3.581L244.92,55.792L244.92,55.792z M224.103,68.728h2.862V57.161
	c0-3.041,2.32-4.337,3.753-4.337c0.925,0,1.263,0.104,1.536,0.137v-2.795c-0.273-0.143-0.679-0.208-1.26-0.208
	c-2.049,0-3.143,1.465-3.961,3.208h-0.068v-2.729h-2.862V68.728L224.103,68.728z M220.959,59.916v-1.161
	c0-3.917-0.514-8.798-6.104-8.798c-5.634,0-6.522,5.286-6.522,9.858c0,6.291,1.874,9.388,6.345,9.388
	c4.987,0,6.149-4.531,6.149-6.484h-2.871c0,1.369-0.371,4.231-3.101,4.231c-3.521,0-3.521-4.231-3.521-7.035L220.959,59.916
	L220.959,59.916z M211.441,57.672v-0.684c0-1.095,0.341-4.776,3.344-4.776c2.525,0,3.171,2.418,3.171,4.474v0.986H211.441z
	 M198.505,68.728h3.276l4.946-18.292h-3.139l-3.416,14.674h-0.066l-3.409-14.674h-3.141L198.505,68.728z M188.3,47.63h2.863v-3.272
	H188.3V47.63z M188.3,68.728h2.863V50.436H188.3V68.728z M172.328,68.728h2.862V56.096c0-2.661,2.084-3.688,3.623-3.688
	c2.595,0,2.701,2.289,2.701,3.688v12.632h2.858V55.759c0-2.155,0-5.802-4.807-5.802c-1.776,0-3.692,0.953-4.443,2.621h-0.069v-2.143
	h-2.726L172.328,68.728L172.328,68.728z M168.572,50.436h-2.863v12.631c0,2.659-2.083,3.686-3.623,3.686
	c-2.592,0-2.697-2.283-2.697-3.686V50.436h-2.864v12.968c0,2.154,0,5.8,4.811,5.8c1.776,0,3.69-0.956,4.442-2.625h0.068v2.149h2.726
	V50.436L168.572,50.436z"/>
<path fill="#394045" d="M283.36,94.498c0,1.884-1.812,3.483-3.686,3.483c-1.947,0-2.596-1.297-2.596-3.14
	c0-1.604,0.473-2.321,1.398-2.905c1.298-0.782,3.828-1.019,4.883-2.15L283.36,94.498L283.36,94.498z M277.383,86.988v-0.172
	c0-0.646,0-3.581,3.143-3.581c1.914,0,2.936,0.984,2.936,2.7c0,1.532,0,2.113-2.083,2.76l-3.86,1.157
	c-2.347,0.715-3.442,2.498-3.442,5.059c0,3.272,1.567,5.314,4.982,5.314c1.707,0,3.483-0.989,4.403-2.619h0.065
	c0.142,2.348,1.504,2.348,2.592,2.348c0.716,0,1.469-0.13,1.676-0.163v-2.048c-0.14,0.102-0.309,0.173-0.682,0.173
	c-0.893,0-0.893-0.718-0.893-1.472V86.236c0-1.91,0-5.252-5.557-5.252c-4.368,0-6.142,1.838-6.142,6.004L277.383,86.988
	L277.383,86.988z M271.208,75.391h-2.867v8.146h-0.065c-0.648-1.564-2.39-2.552-4.029-2.552c-5.155,0-5.763,5.799-5.763,9.624
	c0,5.773,1.629,9.618,5.966,9.618c1.98,0,3.588-1.358,3.961-2.722h0.068v2.247h2.729V75.391z M261.479,90.608
	c0-4.372,0.682-7.168,3.346-7.168c3.075,0,3.686,3.613,3.686,7.168c0,4.162-0.508,7.17-3.686,7.17
	C262.161,97.778,261.479,94.978,261.479,90.608 M252.404,94.498c0,1.884-1.81,3.483-3.684,3.483c-1.95,0-2.596-1.297-2.596-3.14
	c0-1.604,0.473-2.321,1.398-2.905c1.297-0.782,3.822-1.019,4.881-2.15L252.404,94.498L252.404,94.498z M246.428,86.988v-0.172
	c0-0.646,0-3.581,3.143-3.581c1.916,0,2.934,0.984,2.934,2.7c0,1.532,0,2.113-2.08,2.76l-3.859,1.157
	c-2.348,0.715-3.446,2.498-3.446,5.059c0,3.272,1.57,5.314,4.986,5.314c1.703,0,3.479-0.989,4.399-2.619h0.067
	c0.143,2.348,1.504,2.348,2.593,2.348c0.714,0,1.465-0.13,1.676-0.163v-2.048c-0.143,0.102-0.311,0.173-0.684,0.173
	c-0.89,0-0.89-0.718-0.89-1.472V86.236c0-1.91,0-5.252-5.562-5.252c-4.368,0-6.139,1.838-6.139,6.004L246.428,86.988L246.428,86.988
	z M236.023,81.464h-2.661v2.244h2.661v12.642c0,2.379,0.714,3.606,3.684,3.606c1.191,0,1.947-0.13,2.32-0.204v-2.353
	c-0.304,0.038-0.65,0.106-1.267,0.106c-1.498,0-1.875-0.58-1.875-2.051V83.708h3.174v-2.244h-3.174V76.14h-2.862V81.464
	L236.023,81.464z M228.379,78.662h2.862v-3.276h-2.862V78.662z M228.379,99.751h2.862V81.464h-2.862V99.751z M224.453,75.391h-2.871
	v8.146h-0.064c-0.649-1.564-2.39-2.552-4.029-2.552c-5.153,0-5.765,5.799-5.765,9.624c0,5.773,1.636,9.618,5.973,9.618
	c1.979,0,3.584-1.358,3.956-2.722h0.072v2.247h2.729L224.453,75.391L224.453,75.391z M214.721,90.608
	c0-4.372,0.684-7.168,3.347-7.168c3.077,0,3.692,3.613,3.692,7.168c0,4.162-0.517,7.17-3.692,7.17
	C215.405,97.778,214.721,94.978,214.721,90.608 M209.262,90.95v-1.164c0-3.923-0.51-8.801-6.111-8.801
	c-5.624,0-6.513,5.288-6.513,9.859c0,6.285,1.874,9.382,6.346,9.382c4.981,0,6.139-4.529,6.139-6.477h-2.858
	c0,1.367-0.374,4.231-3.113,4.231c-3.515,0-3.515-4.231-3.515-7.031L209.262,90.95L209.262,90.95z M199.737,88.695v-0.68
	c0-1.095,0.345-4.78,3.349-4.78c2.526,0,3.179,2.415,3.179,4.475v0.985H199.737z M187.153,99.751h2.863V88.184
	c0-3.042,2.317-4.333,3.752-4.333c0.917,0,1.263,0.101,1.533,0.132v-2.788c-0.271-0.147-0.681-0.21-1.264-0.21
	c-2.044,0-3.138,1.469-3.959,3.204h-0.063v-2.724h-2.863L187.153,99.751L187.153,99.751z M184.179,86.988
	c0-2.103-0.854-6.004-5.837-6.004c-5.63,0-6.519,5.257-6.519,9.839c0,6.301,1.876,9.403,6.351,9.403c4.57,0,6.005-3.917,6.005-6.835
	h-2.863c0,1.991-0.547,4.59-3.007,4.59c-3.448,0-3.48-4.791-3.48-7.188c0-6.676,1.806-7.557,3.582-7.557
	c2.184,0,2.905,1.99,2.905,3.753h2.863V86.988z M165.854,94.498c0,1.884-1.811,3.483-3.685,3.483c-1.948,0-2.596-1.297-2.596-3.14
	c0-1.604,0.473-2.321,1.402-2.905c1.295-0.782,3.816-1.019,4.879-2.15V94.498z M159.877,86.988v-0.172c0-0.646,0-3.581,3.143-3.581
	c1.914,0,2.938,0.984,2.938,2.7c0,1.532,0,2.113-2.087,2.76l-3.857,1.157c-2.353,0.715-3.443,2.498-3.443,5.059
	c0,3.272,1.569,5.314,4.987,5.314c1.701,0,3.479-0.989,4.4-2.619h0.068c0.131,2.348,1.499,2.348,2.588,2.348
	c0.719,0,1.465-0.13,1.672-0.163v-2.048c-0.136,0.102-0.309,0.173-0.679,0.173c-0.89,0-0.89-0.718-0.89-1.472V86.236
	c0-1.91,0-5.252-5.563-5.252c-4.368,0-6.14,1.838-6.14,6.004L159.877,86.988L159.877,86.988z"/>
<path fill="#394045" d="M299.076,144.518c-0.087-5.305-0.592-14.407-13.733-14.407c-7.838,0-14.407,4.042-14.407,12.469
	c0,9.355,5.644,10.951,11.121,12.803c5.478,1.857,11.035,3.121,11.035,9.184c0,6.41-5.226,7.498-7.5,7.498
	c-6.907,0-8.421-4.967-8.421-10.439h-7.076c0,4.635,0.171,16.002,15.497,16.002c8.429,0,14.577-4.633,14.577-14.15
	c0-8.928-5.557-10.875-11.039-12.723c-5.559-1.852-11.116-2.871-11.116-8.172c0-6.322,5.057-6.912,7.328-6.912
	c5.138,0,6.657,3.119,6.657,8.85h7.077V144.518z M249.118,172.063c-7.246,0-8.679-8.426-8.679-18.193
	c0-9.773,1.52-18.201,8.679-18.201c7.577,0,9.013,8.428,9.013,18.201C258.131,163.639,256.614,172.063,249.118,172.063
	 M233.026,153.869c0,12.725,3.2,23.756,16.26,23.756c12.976,0,16.261-11.031,16.261-23.756c0-12.721-3.208-23.758-16.261-23.758
	C236.313,130.111,233.026,141.148,233.026,153.869 M218.958,114.104c-0.339,1.515-0.76,3.791-2.952,3.791
	c-1.092,0-2.696-0.842-4.378-1.604c-1.688-0.845-3.455-1.6-5.059-1.6c-4.463,0-7.833,4.387-7.833,9.354h4.55
	c0.253-1.512,1.094-3.793,3.283-3.793c1.775,0,6.153,3.205,9.692,3.205c4.801,0,7.245-5.138,7.245-9.353L218.958,114.104
	L218.958,114.104z M196.21,176.449h7.075v-31.172c0-6.578,5.142-9.1,8.926-9.1c6.407,0,6.665,5.646,6.665,9.1v31.172h7.076v-32.018
	c0-5.309,0-14.321-11.88-14.321c-4.39,0-9.104,2.363-10.955,6.487h-0.17v-5.304h-6.737V176.449L196.21,176.449z M179.526,163.475
	c0,4.627-4.464,8.588-9.094,8.588c-4.805,0-6.403-3.193-6.403-7.752c0-3.953,1.179-5.725,3.455-7.154
	c3.2-1.938,9.436-2.529,12.042-5.311V163.475z M164.788,144.939v-0.422c0-1.602,0-8.852,7.744-8.852c4.723,0,7.249,2.447,7.249,6.66
	c0,3.791,0,5.223-5.136,6.82l-9.521,2.865c-5.813,1.766-8.512,6.154-8.512,12.471c0,8.082,3.878,13.141,12.301,13.141
	c4.214,0,8.595-2.438,10.868-6.48h0.17c0.337,5.811,3.707,5.811,6.405,5.811c1.765,0,3.624-0.334,4.124-0.426v-5.051
	c-0.339,0.254-0.755,0.426-1.681,0.426c-2.195,0-2.195-1.771-2.195-3.629v-25.186c0-4.723,0-12.979-13.73-12.979
	c-10.783,0-15.166,4.547-15.166,14.829h7.08V144.939z"/>
<path fill="#003965" d="M141.971,33.151H38.588L38.183,59h72.938c-7.14,6.934-16.001,19.188-26.574,36.753
	c-16.366,28.331-24.993,55.624-25.867,81.872h29.883c0-8.406,1.651-19.182,4.956-32.309c3.303-13.117,7.011-24.232,11.121-33.314
	c5.197-11.576,11.639-22.801,19.327-33.667c7.688-10.875,13.684-18.423,18.004-22.669V33.151L141.971,33.151z"/>
<line fill="none" x1="596.704" y1="29.245" x2="596.704" y2="181.945"/>
<path fill="#394045" d="M596.704,183.447c-0.83,0-1.504-0.672-1.504-1.502V29.244c0-0.828,0.674-1.501,1.504-1.501
	s1.502,0.673,1.502,1.501v152.702C598.206,182.775,597.534,183.447,596.704,183.447"/>
<path fill="#3A5299" d="M429.173,181.355c-0.286,0.141-0.621,0.273-1.021,0.393c-0.403,0.113-0.851,0.213-1.346,0.309
	c-0.491,0.086-1.005,0.133-1.545,0.133c-1.151,0-2.208-0.176-3.188-0.516c-0.977-0.346-1.813-0.867-2.521-1.576
	c-0.708-0.701-1.251-1.561-1.657-2.58c-0.398-1.018-0.601-2.18-0.601-3.482c0-1.295,0.201-2.453,0.601-3.477
	c0.406-1.018,0.961-1.887,1.682-2.586c0.721-0.701,1.578-1.234,2.589-1.602c1.004-0.369,2.108-0.555,3.317-0.555
	c0.957,0,1.83,0.105,2.622,0.316c0.795,0.197,1.499,0.451,2.104,0.742c-0.118,0.213-0.212,0.504-0.279,0.865
	c-0.074,0.369-0.13,0.676-0.174,0.924l-0.129,0.047c-0.146-0.186-0.35-0.393-0.613-0.619c-0.265-0.23-0.565-0.447-0.917-0.67
	c-0.348-0.215-0.738-0.395-1.175-0.539c-0.439-0.146-0.917-0.221-1.438-0.221c-0.864,0-1.659,0.146-2.394,0.441
	c-0.734,0.289-1.374,0.734-1.918,1.34c-0.55,0.602-0.971,1.373-1.28,2.303c-0.302,0.92-0.455,2.021-0.455,3.287
	c0,1.279,0.153,2.371,0.455,3.303c0.31,0.918,0.729,1.689,1.28,2.295c0.544,0.602,1.184,1.055,1.918,1.348
	c0.734,0.283,1.529,0.43,2.394,0.43c0.521,0,0.998-0.07,1.441-0.199c0.449-0.143,0.854-0.305,1.228-0.496
	c0.37-0.193,0.702-0.4,1-0.625c0.299-0.225,0.554-0.418,0.755-0.582l0.091,0.094l-0.197,1.354
	C429.668,181.076,429.457,181.209,429.173,181.355"/>
<path fill="#3A5299" d="M440.007,175.934c-1.889-2.141-3.78-4.266-5.675-6.375c-0.011,0.43-0.027,1.006-0.046,1.725
	c-0.006,0.721-0.021,1.699-0.021,2.939c0,0.324,0.011,0.721,0.015,1.189c0.006,0.48,0.014,0.979,0.018,1.5
	c0.012,0.518,0.023,1.043,0.034,1.582c0.02,0.537,0.03,1.035,0.044,1.492c0.013,0.455,0.031,0.861,0.047,1.203
	c0.01,0.348,0.024,0.584,0.04,0.703c-0.229-0.031-0.482-0.041-0.766-0.041c-0.286,0-0.561,0.01-0.803,0.041
	c0.023-0.152,0.063-0.438,0.1-0.854c0.032-0.41,0.063-0.896,0.096-1.475c0.03-0.578,0.061-1.207,0.103-1.879
	c0.032-0.67,0.06-1.346,0.084-2.025c0.021-0.666,0.039-1.324,0.056-1.969c0.01-0.639,0.02-1.213,0.02-1.719
	c0-1.477,0-2.734-0.01-3.787c-0.002-1.061-0.025-1.846-0.056-2.371h0.35c0.886,1.014,1.833,2.096,2.848,3.248
	c1.009,1.158,2.02,2.295,3.01,3.424c1,1.129,1.942,2.191,2.838,3.191c0.893,1,1.677,1.855,2.346,2.561v-3.123
	c0-1.604-0.011-3.17-0.036-4.695c-0.021-1.521-0.066-2.961-0.141-4.307c0.295,0.08,0.536,0.117,0.749,0.117
	c0.168,0,0.402-0.037,0.69-0.117c-0.027,0.332-0.063,0.842-0.095,1.516c-0.036,0.682-0.079,1.391-0.114,2.158
	c-0.033,0.771-0.064,1.518-0.094,2.254c-0.026,0.732-0.046,1.324-0.046,1.768v1.381c0,0.52,0.008,1.059,0.015,1.625
	c0.005,0.566,0.016,1.141,0.021,1.717c0.008,0.574,0.012,1.105,0.021,1.611c0.004,0.49,0.011,0.928,0.011,1.289v0.754h-0.31
	C443.68,180.158,441.895,178.072,440.007,175.934"/>
<path fill="#3A5299" d="M452.027,174.75c0.376,0,0.771,0.004,1.183,0.021c0.402,0.021,0.795,0.029,1.171,0.029
	c0.412,0,0.818-0.008,1.225-0.012c0.406-0.012,0.814-0.021,1.223-0.039l-2.42-5.836L452.027,174.75z M461.696,181.895
	c-0.201-0.029-0.402-0.043-0.58-0.043h-0.58h-0.574c-0.188,0-0.375,0.014-0.578,0.043c-0.104-0.357-0.242-0.775-0.418-1.281
	c-0.172-0.492-0.367-1.014-0.576-1.553c-0.209-0.549-0.422-1.1-0.645-1.65c-0.219-0.566-0.426-1.096-0.611-1.604
	c-0.467-0.016-0.938-0.025-1.416-0.037c-0.477-0.004-0.957-0.004-1.438-0.004c-0.452,0-0.898,0-1.333,0.004
	c-0.442,0.012-0.883,0.021-1.334,0.037c-0.468,1.193-0.882,2.33-1.266,3.406c-0.377,1.084-0.659,1.979-0.848,2.682
	c-0.248-0.029-0.521-0.043-0.808-0.043c-0.291,0-0.562,0.014-0.81,0.043c1.184-2.686,2.33-5.344,3.446-7.992
	c1.118-2.652,2.249-5.346,3.385-8.086h0.412c0.35,0.889,0.725,1.85,1.135,2.887c0.404,1.031,0.82,2.076,1.242,3.129
	c0.424,1.057,0.846,2.109,1.266,3.148c0.424,1.041,0.822,2.01,1.191,2.908c0.371,0.895,0.703,1.693,1.004,2.395
	C461.258,180.994,461.504,181.527,461.696,181.895"/>
<rect x="462.981" y="175.826" fill="#3A5299" width="5.43" height="1.428"/>
<path fill="#3A5299" d="M482.122,181.355c-0.277,0.141-0.623,0.273-1.025,0.393c-0.398,0.113-0.854,0.213-1.344,0.309
	c-0.49,0.086-1.008,0.133-1.549,0.133c-1.148,0-2.209-0.176-3.18-0.516c-0.982-0.346-1.82-0.867-2.525-1.576
	c-0.705-0.701-1.258-1.561-1.656-2.58c-0.396-1.018-0.602-2.18-0.602-3.482c0-1.295,0.203-2.453,0.602-3.477
	c0.398-1.018,0.963-1.887,1.676-2.586c0.723-0.701,1.59-1.234,2.586-1.602c1.004-0.369,2.117-0.555,3.32-0.555
	c0.963,0,1.834,0.105,2.631,0.316c0.793,0.197,1.486,0.451,2.104,0.742c-0.117,0.213-0.217,0.504-0.285,0.865
	c-0.07,0.369-0.129,0.676-0.172,0.924l-0.133,0.047c-0.146-0.186-0.352-0.393-0.613-0.619c-0.258-0.23-0.564-0.447-0.918-0.67
	c-0.346-0.215-0.734-0.395-1.174-0.539c-0.439-0.146-0.918-0.221-1.439-0.221c-0.863,0-1.65,0.146-2.393,0.441
	c-0.73,0.289-1.367,0.734-1.918,1.34c-0.545,0.602-0.969,1.373-1.275,2.303c-0.301,0.92-0.453,2.021-0.453,3.287
	c0,1.279,0.152,2.371,0.453,3.303c0.309,0.918,0.73,1.689,1.275,2.295c0.551,0.602,1.188,1.055,1.918,1.348
	c0.742,0.283,1.529,0.43,2.393,0.43c0.521,0,1.006-0.07,1.449-0.199c0.447-0.143,0.85-0.305,1.223-0.496
	c0.371-0.193,0.705-0.4,1.004-0.625c0.301-0.225,0.549-0.418,0.754-0.582l0.086,0.094l-0.193,1.354
	C482.614,181.076,482.407,181.209,482.122,181.355"/>
<path fill="#3A5299" d="M485.702,169.492c-0.012-0.615-0.02-1.217-0.037-1.816c-0.014-0.6-0.031-1.164-0.057-1.707
	c-0.023-0.543-0.041-1.012-0.072-1.393c0.406,0.08,0.732,0.119,0.979,0.119c0.248,0,0.574-0.039,0.984-0.119
	c-0.029,0.381-0.055,0.842-0.072,1.381c-0.025,0.533-0.045,1.098-0.057,1.688c-0.02,0.586-0.025,1.182-0.031,1.777
	c-0.008,0.6-0.012,1.15-0.012,1.652v1.748h0.043c0.404-0.658,0.895-1.166,1.463-1.527c0.57-0.359,1.248-0.545,2.033-0.545
	c0.414,0,0.82,0.068,1.242,0.186c0.41,0.123,0.793,0.338,1.119,0.633c0.34,0.305,0.615,0.705,0.828,1.221
	c0.207,0.508,0.314,1.168,0.314,1.961c0,0.656-0.012,1.338-0.043,2.037c-0.031,0.697-0.049,1.434-0.049,2.215v1.49
	c0,0.248,0.008,0.488,0.018,0.727c0.006,0.236,0.014,0.469,0.031,0.676c-0.295-0.031-0.602-0.047-0.922-0.047
	c-0.316,0-0.611,0.016-0.914,0.047c0.033-0.795,0.064-1.615,0.104-2.453c0.035-0.85,0.053-1.711,0.053-2.598v-1.402
	c0-1.15-0.211-2.021-0.631-2.605c-0.426-0.59-1.01-0.887-1.748-0.887c-1.021,0-1.764,0.336-2.232,0.984
	c-0.471,0.666-0.709,1.588-0.709,2.783c0,0.428,0.004,0.924,0.012,1.494c0.006,0.564,0.014,1.135,0.031,1.713
	c0.012,0.57,0.029,1.123,0.057,1.662c0.02,0.533,0.043,0.975,0.072,1.309c-0.332-0.031-0.66-0.047-0.984-0.047
	c-0.316,0-0.639,0.016-0.979,0.047c0.031-0.352,0.049-0.795,0.072-1.334c0.025-0.535,0.043-1.104,0.057-1.695
	c0.018-0.602,0.025-1.207,0.037-1.813c0.004-0.615,0.008-1.184,0.008-1.705v-4.158C485.709,170.676,485.706,170.104,485.702,169.492
	"/>
<path fill="#3A5299" d="M498.202,173.109c-0.025-0.754-0.07-1.463-0.145-2.123c0.402,0.072,0.729,0.109,0.979,0.109
	c0.248,0,0.58-0.037,0.984-0.109c-0.074,0.66-0.117,1.369-0.141,2.123s-0.035,1.479-0.035,2.168v2.387
	c0,0.695,0.012,1.412,0.035,2.176c0.021,0.758,0.064,1.438,0.141,2.051c-0.338-0.029-0.662-0.045-0.984-0.045
	c-0.314,0-0.641,0.016-0.979,0.045c0.074-0.613,0.119-1.293,0.145-2.051c0.018-0.764,0.027-1.48,0.027-2.176v-2.387
	C498.229,174.59,498.217,173.863,498.202,173.109 M498.256,166.16c0.219-0.23,0.484-0.342,0.777-0.342
	c0.313,0,0.572,0.111,0.789,0.342c0.219,0.232,0.326,0.504,0.326,0.828c0,0.318-0.107,0.594-0.326,0.824
	c-0.217,0.232-0.477,0.348-0.789,0.348c-0.293,0-0.559-0.113-0.777-0.348c-0.223-0.23-0.328-0.506-0.328-0.824
	C497.928,166.664,498.036,166.393,498.256,166.16"/>
<path fill="#3A5299" d="M504.288,169.492c-0.006-0.615-0.021-1.217-0.035-1.816c-0.016-0.6-0.033-1.164-0.051-1.707
	c-0.023-0.543-0.051-1.012-0.078-1.393c0.404,0.08,0.732,0.119,0.979,0.119c0.248,0,0.572-0.039,0.984-0.119
	c-0.027,0.381-0.057,0.85-0.08,1.393c-0.021,0.543-0.039,1.107-0.051,1.707c-0.016,0.6-0.025,1.201-0.031,1.816
	c-0.008,0.611-0.021,1.184-0.021,1.695v4.158c0,0.521,0.014,1.09,0.021,1.705c0.006,0.604,0.018,1.211,0.031,1.813
	c0.012,0.592,0.029,1.16,0.051,1.695c0.023,0.539,0.053,0.982,0.08,1.334c-0.334-0.031-0.666-0.047-0.984-0.047
	s-0.646,0.016-0.979,0.047c0.027-0.352,0.055-0.795,0.078-1.334c0.018-0.535,0.035-1.104,0.051-1.695
	c0.016-0.602,0.029-1.207,0.035-1.813c0.004-0.615,0.01-1.184,0.01-1.705v-4.158C504.297,170.676,504.292,170.104,504.288,169.492"
	/>
<path fill="#3A5299" d="M512.579,171.879c-0.371,0.264-0.676,0.59-0.912,0.975c-0.246,0.391-0.428,0.824-0.549,1.291
	c-0.125,0.467-0.205,0.906-0.23,1.313c0.447,0.021,0.922,0.037,1.404,0.055c0.49,0.014,0.967,0.021,1.428,0.021
	c0.486,0,0.971-0.01,1.465-0.021c0.492-0.018,0.971-0.033,1.438-0.055c0-0.404-0.027-0.846-0.096-1.303
	c-0.066-0.461-0.193-0.889-0.393-1.287c-0.197-0.396-0.469-0.725-0.816-0.988c-0.346-0.26-0.809-0.385-1.375-0.385
	C513.401,171.494,512.952,171.619,512.579,171.879 M510.176,172.359c0.848-1.064,2.092-1.609,3.721-1.609
	c0.768,0,1.436,0.133,1.994,0.383c0.563,0.258,1.029,0.596,1.406,1.01c0.379,0.42,0.662,0.916,0.842,1.484
	c0.184,0.566,0.271,1.174,0.271,1.813c0,0.148,0,0.301-0.008,0.445c-0.012,0.148-0.021,0.305-0.033,0.451
	c-0.787-0.018-1.563-0.035-2.338-0.043c-0.773-0.016-1.547-0.029-2.334-0.029c-0.48,0-0.953,0.014-1.43,0.029
	c-0.473,0.008-0.949,0.025-1.428,0.043c-0.012,0.076-0.021,0.191-0.021,0.344v0.301c0,0.596,0.084,1.156,0.252,1.674
	c0.166,0.521,0.41,0.967,0.727,1.344c0.328,0.375,0.721,0.676,1.18,0.896c0.465,0.227,1,0.33,1.619,0.33
	c0.289,0,0.586-0.037,0.895-0.119c0.303-0.088,0.604-0.199,0.891-0.348c0.287-0.146,0.568-0.318,0.82-0.52
	c0.252-0.197,0.475-0.41,0.67-0.639l0.104,0.066l-0.135,1.123c-0.432,0.369-0.973,0.684-1.625,0.941
	c-0.641,0.262-1.316,0.391-2.01,0.391c-0.789,0-1.502-0.129-2.156-0.373c-0.645-0.256-1.205-0.623-1.678-1.107
	c-0.469-0.479-0.834-1.053-1.088-1.711c-0.26-0.66-0.383-1.371-0.383-2.139C508.903,174.908,509.323,173.436,510.176,172.359"/>
<path fill="#3A4045" d="M380.648,133.334c-0.612,0.563-2.638,1.611-5.082,1.611c-5.155,0-8.923-3.717-8.923-10.167
	s3.768-10.178,9.164-10.178c2.106,0,3.986,0.594,5.31,1.309c-0.247,0.511-0.421,1.617-0.517,2.217l-0.146,0.055
	c-0.688-0.887-2.345-2.529-4.646-2.529c-3.834,0-6.771,2.814-6.771,9.127c0,6.306,2.938,9.118,6.771,9.118
	c2.325,0,4.034-1.536,4.968-2.355l0.095,0.11L380.648,133.334z"/>
<path fill="#3A4045" d="M388.719,133.953c2.888,0,3.789-2.983,3.789-6.167c0-3.178-0.901-6.162-3.789-6.162
	c-2.883,0-3.789,2.984-3.789,6.162C384.93,130.97,385.836,133.953,388.719,133.953 M388.719,120.714c2.835,0,5.94,1.904,5.94,7.072
	c0,5.174-3.105,7.077-5.94,7.077s-5.939-1.903-5.939-7.077C382.779,122.619,385.884,120.714,388.719,120.714"/>
<path fill="#3A4045" d="M397.424,126.306c0-1.697-0.049-3.688-0.196-5.307c0.364,0.082,0.734,0.139,1.102,0.139
	c0.243,0,0.604-0.057,0.976-0.139c-0.047,0.76-0.068,1.504-0.068,2.266h0.045c0.884-1.729,2.082-2.557,3.642-2.557
	c1.664,0,3.204,1.199,3.543,2.816h0.051c0.785-1.819,2.198-2.816,3.914-2.816c2.126,0,3.74,1.283,3.74,4.496
	c0,1.301-0.153,2.922-0.153,6.277c0,1.027,0,1.907,0.075,3.102c-0.338-0.088-0.68-0.141-1.046-0.141c-0.365,0-0.74,0.053-1.08,0.141
	c0.101-1.053,0.244-3.901,0.244-8.983c0-1.906-0.633-3.41-2.54-3.41c-1.171,0-2.007,0.619-2.446,1.334
	c-0.511,0.854-0.586,1.14-0.586,6.535c0,1.648,0.052,2.765,0.118,4.524c-0.365-0.088-0.729-0.141-1.075-0.141
	c-0.341,0-0.706,0.053-1.071,0.141c0.146-2.128,0.22-4.375,0.22-6.458c0-3.518-0.022-3.748-0.438-4.629
	c-0.342-0.715-1.226-1.309-2.028-1.309c-2.104,0-3.127,1.703-3.127,4.662v2.416c0,1.703,0.045,3.699,0.188,5.315
	c-0.365-0.088-0.73-0.141-1.096-0.141c-0.367,0-0.736,0.053-1.102,0.141c0.147-1.616,0.196-3.612,0.196-5.315V126.306z"/>
<path fill="#3A4045" d="M418.376,126.306c0-1.697-0.054-3.695-0.2-5.311c0.373,0.086,0.736,0.143,1.105,0.143
	c0.365,0,0.729-0.057,1.103-0.143c-0.146,1.615-0.199,3.613-0.199,5.311v2.961c0,1.703,0.053,3.693,0.199,5.313
	c-0.374-0.084-0.736-0.137-1.103-0.137c-0.369,0-0.732,0.053-1.105,0.137c0.146-1.619,0.2-3.608,0.2-5.313V126.306z
	 M419.282,114.602c0.683,0,1.246,0.656,1.246,1.449c0,0.799-0.563,1.449-1.246,1.449c-0.686,0-1.251-0.65-1.251-1.449
	C418.031,115.258,418.597,114.602,419.282,114.602"/>
<path fill="#3A4045" d="M424.415,131.849c0.345,0.775,1.392,1.965,2.761,1.965c1.223,0,2.373-0.883,2.373-2.559
	c0-3.523-5.771-1.449-5.771-6.254c0-2.473,1.472-4.287,4.058-4.287c1.196,0,1.955,0.512,2.717,0.787
	c-0.271,0.549-0.542,1.596-0.587,2.023h-0.294c-0.245-0.914-1.05-1.766-2.146-1.766c-0.958,0-2.082,0.711-2.082,2.393
	c0,3.693,5.77,1.42,5.77,6.217c0,2.162-1.691,4.495-4.397,4.495c-1.49,0-2.471-0.48-3.154-0.938
	c0.196-0.482,0.466-1.504,0.466-2.077H424.415L424.415,131.849z"/>
<path fill="#3A4045" d="M434.682,126.306c0-1.697-0.054-3.695-0.2-5.311c0.367,0.086,0.738,0.143,1.106,0.143
	c0.365,0,0.729-0.057,1.095-0.143c-0.145,1.615-0.189,3.613-0.189,5.311v2.961c0,1.703,0.046,3.693,0.189,5.313
	c-0.366-0.084-0.729-0.137-1.095-0.137c-0.368,0-0.739,0.053-1.106,0.137c0.146-1.619,0.2-3.608,0.2-5.313V126.306z
	 M435.588,114.602c0.684,0,1.247,0.656,1.247,1.449c0,0.799-0.563,1.449-1.247,1.449c-0.687,0-1.251-0.65-1.251-1.449
	C434.337,115.258,434.901,114.602,435.588,114.602"/>
<path fill="#3A4045" d="M447.711,114.319c0.34-0.398,0.735-0.688,1.102-0.688c0.316,0,0.81,0.316,0.81,0.91
	c0,0.686-0.493,1.054-0.884,1.338l-3.595,2.675h-1.021L447.711,114.319z M445.781,133.953c2.886,0,3.792-2.983,3.792-6.167
	c0-3.178-0.906-6.162-3.792-6.162c-2.887,0-3.792,2.984-3.792,6.162C441.989,130.97,442.895,133.953,445.781,133.953
	 M445.781,120.714c2.832,0,5.938,1.904,5.938,7.072c0,5.174-3.106,7.077-5.938,7.077c-2.835,0-5.944-1.903-5.944-7.077
	C439.837,122.619,442.946,120.714,445.781,120.714"/>
<path fill="#3A4045" d="M459.739,122.189c-2.271,0-3.299,1.703-3.299,4.662v2.41c0,1.709,0.051,3.705,0.193,5.319
	c-0.365-0.086-0.73-0.145-1.102-0.145c-0.363,0-0.73,0.061-1.098,0.145c0.148-1.614,0.199-3.61,0.199-5.319v-2.947
	c0-1.707-0.051-3.695-0.199-5.314c0.367,0.082,0.732,0.139,1.098,0.139c0.25,0,0.615-0.057,0.977-0.139
	c-0.041,0.76-0.068,1.504-0.068,2.271h0.051c0.904-1.621,2.143-2.558,3.902-2.558c1.813,0,3.916,1.019,3.916,4.938
	c0,1.627-0.094,3.33-0.094,5.257c0,1.258,0,2.451,0.041,3.671c-0.365-0.086-0.676-0.145-1.021-0.145c-0.342,0-0.662,0.061-1,0.145
	c0.047-2.071,0.172-4.149,0.172-6.333v-1.742C462.407,123.724,461.352,122.189,459.739,122.189"/>
<path fill="#3A4045" d="M489.122,134.951c-3.721-5.09-8.166-10.542-12.342-15.715c-0.021,1.052-0.074,2.748-0.074,5.766
	c0,2.451,0.096,8.442,0.219,9.579c-0.27-0.084-0.563-0.145-0.854-0.145c-0.293,0-0.586,0.061-0.904,0.145
	c0.197-1.334,0.51-8.614,0.51-12.364c0-3.578,0-6.336-0.064-7.615h0.387c3.98,5.033,9.385,11.876,12.365,15.376
	c0-5.088,0-10.633-0.195-15.009c0.273,0.09,0.566,0.143,0.832,0.143c0.27,0,0.516-0.053,0.785-0.143
	c-0.15,1.675-0.393,7.304-0.393,9.525c0,2.896,0.053,9.18,0.074,10.458H489.122z"/>
<path fill="#3A4045" d="M500.124,127.417c-1.684,0.654-5.109,0.459-5.109,3.553c0,1.791,1.055,2.704,2.127,2.704
	c1.25,0,2.322-0.938,2.889-1.989L500.124,127.417z M494.088,122.361c1.465-1.279,2.637-1.646,3.932-1.646
	c2.35,0,3.961,1.674,3.961,4.205c0,2.131-0.098,4.236-0.098,6.621c0,0.941,0,2.108,0.955,2.108c0.146,0,0.344,0,0.516-0.117v0.625
	c-0.342,0.172-0.936,0.395-1.566,0.395c-1.051,0-1.59-0.791-1.688-1.758c-1.174,1.364-2.178,2.071-3.84,2.071
	c-1.633,0-3.248-1.332-3.248-3.5c0-2.262,1.32-3.486,3.449-3.887c3.541-0.652,3.662-0.883,3.662-1.992
	c0-1.896-0.734-3.578-2.686-3.578c-1.301,0-2.52,0.713-3.084,1.934h-0.268v-1.479H494.088z"/>
<path fill="#3A4045" d="M511.467,120.714c1.781,0,3.322,0.592,3.938,1.25c-0.219,0.564-0.416,1.191-0.543,1.875h-0.191
	c-0.465-0.969-1.588-2.215-3.129-2.215c-2.961,0-4.156,2.643-4.156,6.141c0,3.894,1.518,5.909,4.229,5.909
	c1.295,0,2.811-0.881,3.666-2.016l0.127,0.082c-0.076,0.457-0.127,0.939-0.15,1.399c-0.979,0.9-2.57,1.725-4.08,1.725
	c-2.834,0-5.938-1.985-5.938-7.077C505.239,122.871,508.34,120.714,511.467,120.714"/>
<path fill="#3A4045" d="M518.924,126.306c0-1.697-0.051-3.695-0.193-5.311c0.365,0.086,0.734,0.143,1.1,0.143
	c0.367,0,0.73-0.057,1.098-0.143c-0.145,1.615-0.189,3.613-0.189,5.311v2.961c0,1.703,0.047,3.693,0.189,5.313
	c-0.365-0.084-0.73-0.137-1.098-0.137c-0.365,0-0.734,0.053-1.1,0.137c0.143-1.619,0.193-3.608,0.193-5.313V126.306z
	 M519.831,114.602c0.682,0,1.252,0.656,1.252,1.449c0,0.799-0.57,1.449-1.252,1.449c-0.684,0-1.248-0.65-1.248-1.449
	C518.583,115.258,519.147,114.602,519.831,114.602"/>
<path fill="#3A4045" d="M530.022,133.953c2.885,0,3.795-2.983,3.795-6.167c0-3.178-0.91-6.162-3.795-6.162
	c-2.883,0-3.779,2.984-3.779,6.162C526.243,130.97,527.139,133.953,530.022,133.953 M530.022,120.714
	c2.836,0,5.941,1.904,5.941,7.072c0,5.174-3.105,7.077-5.941,7.077c-2.834,0-5.936-1.903-5.936-7.077
	C524.086,122.619,527.188,120.714,530.022,120.714"/>
<path fill="#3A4045" d="M543.987,122.189c-2.273,0-3.301,1.703-3.301,4.662v2.41c0,1.709,0.049,3.705,0.191,5.319
	c-0.363-0.086-0.729-0.145-1.1-0.145c-0.365,0-0.73,0.061-1.098,0.145c0.146-1.614,0.195-3.61,0.195-5.319v-2.947
	c0-1.707-0.049-3.695-0.195-5.314c0.365,0.082,0.732,0.139,1.098,0.139c0.246,0,0.611-0.057,0.977-0.139
	c-0.041,0.76-0.068,1.504-0.068,2.271h0.049c0.906-1.621,2.146-2.558,3.906-2.558c1.813,0,3.914,1.019,3.914,4.938
	c0,1.627-0.098,3.33-0.098,5.257c0,1.258,0,2.451,0.049,3.671c-0.367-0.086-0.688-0.145-1.023-0.145
	c-0.342,0-0.664,0.061-1.006,0.145c0.051-2.071,0.176-4.149,0.176-6.333v-1.742C546.653,123.724,545.598,122.189,543.987,122.189"/>
<path fill="#3A4045" d="M558.555,127.417c-1.688,0.654-5.109,0.459-5.109,3.553c0,1.791,1.053,2.704,2.127,2.704
	c1.246,0,2.322-0.938,2.883-1.989L558.555,127.417z M552.518,122.361c1.467-1.279,2.643-1.646,3.938-1.646
	c2.342,0,3.957,1.674,3.957,4.205c0,2.131-0.098,4.236-0.098,6.621c0,0.941,0,2.108,0.951,2.108c0.148,0,0.348,0,0.52-0.117v0.625
	c-0.342,0.172-0.936,0.395-1.568,0.395c-1.055,0-1.586-0.791-1.688-1.758c-1.168,1.364-2.178,2.071-3.834,2.071
	c-1.641,0-3.254-1.332-3.254-3.5c0-2.262,1.318-3.486,3.449-3.887c3.541-0.652,3.664-0.883,3.664-1.992
	c0-1.896-0.734-3.578-2.695-3.578c-1.291,0-2.51,0.713-3.07,1.934h-0.27v-1.479H552.518z"/>
<path fill="#3A4045" d="M565.133,121.25c0-2.611-0.051-6.281-0.193-8.188c0.363,0.094,0.727,0.148,1.1,0.148
	c0.361,0,0.729-0.055,1.096-0.148c-0.146,1.906-0.197,5.575-0.197,8.188v5.145c0,2.619,0.051,6.285,0.197,8.186
	c-0.367-0.084-0.732-0.145-1.096-0.145c-0.373,0-0.734,0.061-1.1,0.145c0.143-1.899,0.193-5.565,0.193-8.186V121.25z"/>
<path fill="#3A4045" d="M390.967,158.592c2.541,0,3.641-3.211,3.641-6.307c0-3.584-1.242-5.604-3.565-5.604
	c-2.35,0-3.445,2.699-3.445,6.143C387.596,157.379,389.379,158.592,390.967,158.592 M394.583,156.572h-0.05
	c-0.487,1.191-1.731,3.07-4.126,3.07c-2.467,0-4.968-2.104-4.968-6.986c0-4.836,2.716-7.164,5.26-7.164
	c1.805,0,3.075,0.994,3.762,2.838h0.05c0-3.576,0-8.041-0.098-10.486c0.389,0.061,0.753,0.148,1.096,0.148
	c0.345,0,0.689-0.088,1.106-0.148c-0.224,2.391-0.294,9.83-0.294,14.691c0,2.588,0.047,4.549,0.07,6.82
	c-0.362-0.053-0.662-0.135-0.952-0.135c-0.297,0-0.588,0.082-0.93,0.135L394.583,156.572z"/>
<path fill="#3A4045" d="M401.088,151.314c1.004,0.029,2.153,0.084,3.177,0.084c1.079,0,2.228-0.055,3.259-0.084
	c0-2.021-0.468-4.91-3.013-4.91C402.117,146.404,401.212,149.266,401.088,151.314 M404.458,145.492c3.43,0,5.065,2.641,5.065,5.799
	c0,0.365-0.025,0.74-0.052,1.104c-1.763-0.029-3.493-0.084-5.231-0.084c-1.073,0-2.124,0.055-3.203,0.084
	c-0.024,0.283-0.024,0.545-0.024,0.799c0,2.949,1.521,5.256,4.23,5.256c1.299,0,2.812-0.881,3.663-2.02l0.125,0.088l-0.146,1.393
	c-0.977,0.908-2.563,1.732-4.081,1.732c-3.521,0-5.937-2.893-5.937-6.676C398.868,148.365,400.869,145.492,404.458,145.492"/>
<path fill="#3A4045" d="M423.855,143.219l-2.665,7.215c0.852,0,1.78,0.061,2.639,0.061c0.903,0,1.83-0.027,2.737-0.061
	L423.855,143.219z M424.659,139.377c2.396,6.598,6.062,16.936,7.354,19.979c-0.437-0.082-0.855-0.135-1.294-0.135
	c-0.437,0-0.854,0.053-1.293,0.135c-0.467-1.957-1.643-5.086-2.518-7.615c-1.054-0.023-2.126-0.055-3.209-0.055
	c-0.996,0-1.979,0.029-2.979,0.055c-1.027,2.928-1.957,5.83-2.37,7.615c-0.316-0.082-0.607-0.135-0.9-0.135
	c-0.29,0-0.592,0.053-0.906,0.135c2.617-6.646,5.156-13.264,7.647-19.979H424.659z"/>
<path fill="#3A4045" d="M439.693,145.492c1.784,0,3.324,0.594,3.936,1.244c-0.219,0.572-0.417,1.197-0.54,1.881h-0.188
	c-0.469-0.967-1.595-2.213-3.136-2.213c-2.954,0-4.152,2.639-4.152,6.139c0,3.887,1.516,5.906,4.228,5.906
	c1.298,0,2.812-0.881,3.666-2.02l0.123,0.088c-0.072,0.455-0.123,0.938-0.143,1.393c-0.981,0.908-2.566,1.732-4.083,1.732
	c-2.835,0-5.942-1.988-5.942-7.072C433.461,147.65,436.568,145.492,439.693,145.492"/>
<path fill="#3A4045" d="M452.114,148.104c-0.166-0.227-0.707-0.453-1.196-0.453c-1.563,0-2.496,1.729-2.496,3.951
	c0,4.941,0,6.447,0.104,7.754c-0.323-0.082-0.662-0.143-0.981-0.143c-0.344,0-0.656,0.061-1.031,0.143
	c0.104-1.391,0.104-3.602,0.104-6.785v-0.914c0-1.475,0-3.441-0.104-5.879c0.375,0.082,0.688,0.139,1.031,0.139
	c0.319,0,0.658-0.057,0.981-0.139c-0.129,1.361-0.129,2.049-0.129,2.758l0.054,0.025c0.928-2.051,2.101-3.068,3.227-3.068
	c0.294,0,0.461,0.025,0.78,0.164c-0.172,0.455-0.172,1.537-0.172,2.305L452.114,148.104z"/>
<path fill="#3A4045" d="M455.877,151.314c1.004,0.029,2.156,0.084,3.176,0.084c1.076,0,2.23-0.055,3.252-0.084
	c0-2.021-0.459-4.91-3.002-4.91C456.911,146.404,456,149.266,455.877,151.314 M459.252,145.492c3.424,0,5.059,2.641,5.059,5.799
	c0,0.365-0.02,0.74-0.049,1.104c-1.758-0.029-3.496-0.084-5.229-0.084c-1.074,0-2.123,0.055-3.205,0.084
	c-0.023,0.283-0.023,0.545-0.023,0.799c0,2.949,1.516,5.256,4.23,5.256c1.299,0,2.813-0.881,3.666-2.02l0.123,0.088l-0.146,1.393
	c-0.979,0.908-2.568,1.732-4.08,1.732c-3.521,0-5.941-2.893-5.941-6.676C453.656,148.365,455.659,145.492,459.252,145.492"/>
<path fill="#3A4045" d="M471.573,158.592c2.543,0,3.637-3.211,3.637-6.307c0-3.584-1.24-5.604-3.563-5.604
	c-2.35,0-3.445,2.699-3.445,6.143C468.202,157.379,469.983,158.592,471.573,158.592 M475.192,156.572h-0.049
	c-0.492,1.191-1.736,3.07-4.131,3.07c-2.469,0-4.965-2.104-4.965-6.986c0-4.836,2.713-7.164,5.256-7.164
	c1.805,0,3.076,0.994,3.764,2.838h0.051c0-3.576,0-8.041-0.096-10.486c0.387,0.061,0.75,0.148,1.096,0.148
	c0.34,0,0.684-0.088,1.104-0.148c-0.219,2.391-0.295,9.83-0.295,14.691c0,2.588,0.045,4.549,0.076,6.82
	c-0.369-0.053-0.664-0.135-0.961-0.135c-0.287,0-0.584,0.082-0.924,0.135L475.192,156.572z"/>
<path fill="#3A4045" d="M481.108,151.084c0-1.701-0.053-3.693-0.199-5.313c0.367,0.09,0.74,0.145,1.102,0.145
	c0.365,0,0.734-0.055,1.102-0.145c-0.148,1.619-0.193,3.609-0.193,5.313v2.963c0,1.701,0.045,3.693,0.193,5.311
	c-0.367-0.084-0.734-0.137-1.102-0.137c-0.359,0-0.734,0.053-1.102,0.137c0.146-1.617,0.199-3.609,0.199-5.311V151.084z
	 M482.01,139.377c0.688,0,1.246,0.654,1.246,1.451s-0.559,1.457-1.246,1.457c-0.686,0-1.248-0.66-1.248-1.457
	S481.327,139.377,482.01,139.377"/>
<path fill="#3A4045" d="M489.372,141.965h0.123c-0.102,1.42-0.15,2.813-0.199,4.209c0.344,0,1.471-0.027,2.594-0.084
	c-0.025,0.191-0.025,0.396-0.025,0.592c0,0.197,0,0.402,0.025,0.6c-0.854-0.061-2.01-0.061-2.594-0.061
	c-0.047,0.291-0.168,4.752-0.168,7.221c0,2.131,0.049,4.297,1.977,4.297c0.273,0,0.785-0.092,1.102-0.199v0.684
	c-0.559,0.223-1.271,0.422-1.877,0.422c-2.031,0-3.008-1.334-3.008-3.555c0-2.072,0.143-4.629,0.168-8.867
	c-0.486,0-1.023,0-1.662,0.061c0.023-0.227,0.055-0.43,0.055-0.656c0-0.199-0.029-0.369-0.055-0.563
	c0.734,0.055,1.273,0.084,1.615,0.084c-0.023-0.738-0.051-1.971-0.104-3.189L489.372,141.965z"/>
<path fill="#3A4045" d="M500.348,152.201c-1.686,0.648-5.111,0.451-5.111,3.547c0,1.795,1.055,2.701,2.127,2.701
	c1.248,0,2.322-0.936,2.883-1.986L500.348,152.201z M494.309,147.139c1.467-1.273,2.637-1.646,3.938-1.646
	c2.342,0,3.957,1.672,3.957,4.203c0,2.133-0.096,4.234-0.096,6.617c0,0.941,0,2.104,0.949,2.104c0.148,0,0.346,0,0.52-0.105v0.621
	c-0.344,0.176-0.936,0.396-1.566,0.396c-1.053,0-1.59-0.789-1.689-1.758c-1.17,1.359-2.174,2.072-3.834,2.072
	c-1.645,0-3.248-1.334-3.248-3.494c0-2.271,1.313-3.496,3.441-3.893c3.543-0.658,3.668-0.885,3.668-1.994
	c0-1.902-0.734-3.58-2.693-3.58c-1.291,0-2.512,0.715-3.076,1.936h-0.268v-1.479H494.309z"/>
<path fill="#3A4045" d="M511.69,145.492c1.781,0,3.324,0.594,3.939,1.244c-0.221,0.572-0.42,1.197-0.541,1.881h-0.193
	c-0.467-0.967-1.592-2.213-3.131-2.213c-2.961,0-4.156,2.639-4.156,6.139c0,3.887,1.518,5.906,4.229,5.906
	c1.297,0,2.811-0.881,3.664-2.02l0.129,0.088c-0.076,0.455-0.129,0.938-0.146,1.393c-0.984,0.908-2.566,1.732-4.088,1.732
	c-2.83,0-5.936-1.988-5.936-7.072C505.459,147.65,508.565,145.492,511.69,145.492"/>
<path fill="#3A4045" d="M519.147,151.084c0-1.701-0.051-3.693-0.193-5.313c0.367,0.09,0.734,0.145,1.102,0.145
	c0.363,0,0.729-0.055,1.098-0.145c-0.148,1.619-0.191,3.609-0.191,5.313v2.963c0,1.701,0.043,3.693,0.191,5.311
	c-0.367-0.084-0.732-0.137-1.098-0.137c-0.367,0-0.734,0.053-1.102,0.137c0.143-1.617,0.193-3.609,0.193-5.311V151.084z
	 M520.053,139.377c0.689,0,1.248,0.654,1.248,1.451s-0.561,1.457-1.248,1.457s-1.252-0.66-1.252-1.457
	S519.366,139.377,520.053,139.377"/>
<path fill="#3A4045" d="M532.174,139.094c0.344-0.395,0.738-0.682,1.104-0.682c0.313,0,0.803,0.314,0.803,0.904
	c0,0.688-0.49,1.055-0.875,1.34l-3.594,2.676h-1.029L532.174,139.094z M530.247,158.73c2.885,0,3.793-2.977,3.793-6.16
	c0-3.189-0.908-6.166-3.793-6.166c-2.883,0-3.793,2.977-3.793,6.166C526.454,155.754,527.364,158.73,530.247,158.73
	 M530.247,145.492c2.834,0,5.938,1.904,5.938,7.078c0,5.164-3.104,7.072-5.938,7.072s-5.938-1.908-5.938-7.072
	C524.309,147.396,527.413,145.492,530.247,145.492"/>
<path fill="#3A4045" d="M544.206,146.967c-2.273,0-3.301,1.703-3.301,4.662v2.41c0,1.709,0.049,3.695,0.195,5.322
	c-0.361-0.088-0.729-0.146-1.104-0.146c-0.361,0-0.73,0.059-1.096,0.146c0.146-1.627,0.199-3.613,0.199-5.322v-2.955
	c0-1.699-0.053-3.688-0.199-5.305c0.365,0.08,0.732,0.137,1.096,0.137c0.252,0,0.617-0.057,0.98-0.137
	c-0.045,0.758-0.072,1.502-0.072,2.266h0.049c0.908-1.615,2.146-2.553,3.91-2.553c1.809,0,3.91,1.018,3.91,4.947
	c0,1.619-0.09,3.322-0.09,5.256c0,1.246,0,2.439,0.041,3.666c-0.363-0.088-0.68-0.146-1.021-0.146s-0.664,0.059-1,0.146
	c0.043-2.07,0.168-4.15,0.168-6.334v-1.744C546.872,148.502,545.821,146.967,544.206,146.967"/>
<polygon fill="#62A66F" points="486.081,90.043 466.967,105.305 492.305,105.305 "/>
<path fill="#3A5299" d="M441.043,105.305h-17.994l32.586-75.815c0.125-0.289,0.408-0.487,0.73-0.487h21.84
	c0.328,0,0.605,0.187,0.73,0.467l21.855,48.823l-14.717,11.746l-18.67-41.903l-24.007,55.671
	C442.993,104.692,442.083,105.305,441.043,105.305"/>
<path fill="#62A66F" d="M512.481,104.639l-11.676-26.346l38.584-30.823l-24.85,57.15c-0.17,0.404-0.566,0.686-1.033,0.686
	C513.049,105.305,512.659,105.037,512.481,104.639"/>
<g>
	<path fill="#394045" d="M619.276,56.854h3.166l6.553,16.552h0.057V56.854h2.443v19.829h-3.359l-6.359-16.052h-0.057v16.052h-2.443
		V56.854L619.276,56.854z"/>
	<path fill="#394045" d="M634.713,56.854h2.443v19.829h-2.443V56.854z"/>
	<path fill="#394045" d="M638.711,56.854h2.555l3.889,17.024h0.055l3.889-17.024h2.557l-5,19.829h-3.109L638.711,56.854z"/>
	<path fill="#394045" d="M653.206,56.854h10.248v2.167h-7.805v6.221h7.359v2.166h-7.359v7.109h8.137v2.166h-10.58V56.854z"/>
	<path fill="#394045" d="M666.061,56.854h2.443v17.663h8.055v2.166h-10.498V56.854z"/>
	<path fill="#394045" d="M685.303,56.854h5.305c6.164,0,6.941,4.443,6.941,9.915c0,4.999-1.25,9.914-6.691,9.914h-5.555V56.854z
		 M687.747,74.684h2.555c4.223,0,4.693-4.333,4.693-7.887c0-3.832-0.25-7.942-4.693-7.942h-2.555V74.684z"/>
	<path fill="#394045" d="M700.491,56.854h10.248v2.167h-7.805v6.221h7.359v2.166h-7.359v7.109h8.139v2.166h-10.582V56.854z"/>
	<path fill="#394045" d="M720.01,56.854h10.248v2.167h-7.805v6.221h7.359v2.166h-7.359v7.109h8.137v2.166h-10.58V56.854z"/>
	<path fill="#394045" d="M731.7,56.854h2.723l3.609,7.415l3.639-7.415h2.555l-4.941,9.748l5.275,10.081h-2.723l-3.941-7.942
		l-4.027,7.942h-2.555l5.275-10.081L731.7,56.854z"/>
	<path fill="#394045" d="M758.358,69.879c-0.223,3.749-1.693,7.192-6.025,7.192c-5.639,0-6.389-5.304-6.389-10.303
		s0.916-10.303,6.389-10.303c4.055,0,5.748,2.277,5.859,6.165h-2.557c-0.055-2.25-0.777-4.166-3.305-4.166
		c-3.389,0-3.832,3.721-3.832,8.304c0,4.582,0.443,8.303,3.832,8.303c2.973,0,3.389-2.777,3.473-5.193L758.358,69.879
		L758.358,69.879z"/>
	<path fill="#394045" d="M760.631,56.854h10.248v2.167h-7.803v6.221h7.359v2.166h-7.359v7.109h8.137v2.166h-10.582V56.854
		L760.631,56.854z"/>
	<path fill="#394045" d="M773.489,56.854h2.443v17.663h8.055v2.166h-10.498V56.854z"/>
	<path fill="#394045" d="M785.817,56.854h10.246v2.167h-7.803v6.221h7.359v2.166h-7.359v7.109h8.137v2.166h-10.58V56.854
		L785.817,56.854z"/>
	<path fill="#394045" d="M798.672,56.854h3.164l6.555,16.552h0.057V56.854h2.443v19.829h-3.359l-6.359-16.052h-0.057v16.052h-2.443
		V56.854L798.672,56.854z"/>
	<path fill="#394045" d="M826.247,69.879c-0.223,3.749-1.693,7.192-6.027,7.192c-5.637,0-6.387-5.304-6.387-10.303
		s0.916-10.303,6.387-10.303c4.057,0,5.75,2.277,5.861,6.165h-2.557c-0.055-2.25-0.777-4.166-3.305-4.166
		c-3.389,0-3.832,3.721-3.832,8.304c0,4.582,0.443,8.303,3.832,8.303c2.973,0,3.389-2.777,3.473-5.193L826.247,69.879
		L826.247,69.879z"/>
	<path fill="#394045" d="M828.522,56.854h2.441v19.829h-2.441V56.854z"/>
	<path fill="#394045" d="M838.073,56.854h3.277l5.332,19.829h-2.555l-1.418-5.443h-6.33l-1.473,5.443h-2.557L838.073,56.854z
		 M836.877,69.241h5.332l-2.525-9.581h-0.057L836.877,69.241z"/>
</g>
<g>
	<path fill="#394045" d="M619.276,94.285h10.248v2.166h-7.805v6.221h7.359v2.166h-7.359v7.109h8.137v2.167h-10.58V94.285z"/>
	<path fill="#394045" d="M632.131,94.285h3.166l6.553,16.551h0.057V94.285h2.443v19.829h-3.359l-6.359-16.052h-0.057v16.052h-2.443
		V94.285L632.131,94.285z"/>
	<path fill="#394045" d="M659.258,114.112h-2.441V96.45h-4.973v-2.166h12.414v2.166h-5V114.112z"/>
	<path fill="#394045" d="M678.586,104.199c0,4.999-0.918,10.303-6.389,10.303s-6.389-5.305-6.389-10.303
		c0-4.998,0.918-10.303,6.389-10.303S678.586,99.2,678.586,104.199z M668.368,104.199c0,4.583,0.443,8.304,3.832,8.304
		c3.387,0,3.832-3.721,3.832-8.304c0-4.582-0.445-8.303-3.832-8.303C668.811,95.896,668.368,99.617,668.368,104.199z"/>
	<path fill="#394045" d="M681.778,94.285h5.305c6.164,0,6.941,4.443,6.941,9.914c0,4.999-1.25,9.915-6.691,9.915h-5.555V94.285z
		 M684.221,112.112h2.555c4.221,0,4.693-4.332,4.693-7.887c0-3.833-0.25-7.942-4.693-7.942h-2.555V112.112z"/>
	<path fill="#394045" d="M700.854,94.285h3.275l5.332,19.829h-2.555l-1.416-5.443h-6.332l-1.471,5.443h-2.557L700.854,94.285z
		 M699.659,106.669h5.332l-2.525-9.581h-0.057L699.659,106.669z"/>
	<path fill="#394045" d="M719.262,99.421c0-2.083-0.75-3.526-3.082-3.526c-2.055,0-3.275,1.11-3.275,3.221
		c0,5.582,9.357,2.25,9.357,9.498c0,4.582-3.359,5.888-6.166,5.888c-4.637,0-5.998-2.389-5.998-6.609h2.443
		c0,2.222,0.139,4.61,3.723,4.61c1.943,0,3.443-1.389,3.443-3.5c0-5.609-9.359-2.36-9.359-9.636c0-1.833,0.777-5.471,5.805-5.471
		c3.777,0,5.5,1.889,5.555,5.526L719.262,99.421L719.262,99.421z"/>
	<path fill="#394045" d="M731.397,94.285h2.441v17.662h8.055v2.167h-10.496V94.285z"/>
	<path fill="#394045" d="M747.612,94.285h3.275l5.332,19.829h-2.555l-1.416-5.443h-6.332l-1.471,5.443h-2.557L747.612,94.285z
		 M746.417,106.669h5.332l-2.527-9.581h-0.055L746.417,106.669z"/>
	<path fill="#394045" d="M766.022,99.421c0-2.083-0.75-3.526-3.082-3.526c-2.057,0-3.277,1.11-3.277,3.221
		c0,5.582,9.357,2.25,9.357,9.498c0,4.582-3.359,5.888-6.164,5.888c-4.639,0-5.998-2.389-5.998-6.609h2.443
		c0,2.222,0.139,4.61,3.721,4.61c1.943,0,3.443-1.389,3.443-3.5c0-5.609-9.357-2.36-9.357-9.636c0-1.833,0.775-5.471,5.803-5.471
		c3.777,0,5.5,1.889,5.555,5.526L766.022,99.421L766.022,99.421z"/>
	<path fill="#394045" d="M781.042,94.285h3.277l5.332,19.829h-2.555l-1.416-5.443h-6.332l-1.473,5.443h-2.555L781.042,94.285z
		 M779.848,106.669h5.332l-2.527-9.581h-0.057L779.848,106.669z M783.237,89.258h2.721l-2.998,3.943h-1.668L783.237,89.258z"/>
	<path fill="#394045" d="M791.038,94.285h6.416c3.109,0,5.082,1.833,5.082,4.971c0,2.166-0.75,4.443-3.055,4.999v0.055
		c1.721,0.195,2.691,1.611,2.805,3.305l0.166,3.388c0.109,2.193,0.473,2.749,1.055,3.11h-2.941c-0.418-0.417-0.611-1.889-0.668-2.86
		l-0.166-3.083c-0.193-2.722-1.693-2.888-2.943-2.888h-3.305v8.832h-2.443V94.285H791.038z M793.481,103.282h2.416
		c1.443,0,4.082,0,4.082-3.832c0-1.944-1.305-3.166-3.582-3.166h-2.916V103.282z"/>
	<path fill="#394045" d="M805.448,94.285h10.248v2.166h-7.805v6.221h7.359v2.166h-7.359v7.109h8.139v2.167h-10.582V94.285z"/>
	<path fill="#394045" d="M822.192,94.285h3.277l5.332,19.829h-2.557l-1.416-5.443h-6.332l-1.471,5.443h-2.557L822.192,94.285z
		 M820.999,106.669h5.332l-2.527-9.581h-0.057L820.999,106.669z"/>
	<path fill="#394045" d="M840.602,99.421c0-2.083-0.75-3.526-3.084-3.526c-2.055,0-3.275,1.11-3.275,3.221
		c0,5.582,9.357,2.25,9.357,9.498c0,4.582-3.359,5.888-6.164,5.888c-4.639,0-5.998-2.389-5.998-6.609h2.443
		c0,2.222,0.139,4.61,3.721,4.61c1.943,0,3.443-1.389,3.443-3.5c0-5.609-9.357-2.36-9.357-9.636c0-1.833,0.775-5.471,5.803-5.471
		c3.777,0,5.5,1.889,5.555,5.526L840.602,99.421L840.602,99.421z"/>
</g>
<g>
	<path fill="#394045" d="M630.967,151.541h-2.443v-9.553h-6.805v9.553h-2.443v-19.828h2.443v8.109h6.805v-8.109h2.443V151.541z"/>
	<path fill="#394045" d="M638.075,131.713h3.275l5.332,19.828h-2.555l-1.416-5.441h-6.332l-1.473,5.441h-2.555L638.075,131.713z
		 M636.879,144.1h5.332l-2.527-9.58h-0.057L636.879,144.1z"/>
	<path fill="#394045" d="M656.483,136.852c0-2.082-0.748-3.527-3.082-3.527c-2.055,0-3.277,1.111-3.277,3.221
		c0,5.582,9.359,2.25,9.359,9.498c0,4.582-3.359,5.889-6.166,5.889c-4.637,0-5.998-2.389-5.998-6.609h2.443
		c0,2.221,0.141,4.609,3.723,4.609c1.943,0,3.443-1.389,3.443-3.498c0-5.611-9.359-2.361-9.359-9.639c0-1.832,0.777-5.47,5.805-5.47
		c3.777,0,5.498,1.888,5.555,5.527H656.483L656.483,136.852z"/>
	<path fill="#394045" d="M667.979,151.541h-2.443v-17.662h-4.973v-2.166h12.414v2.166h-4.998V151.541z"/>
	<path fill="#394045" d="M677.198,131.713h3.275l5.332,19.828h-2.555l-1.416-5.441h-6.332l-1.473,5.441h-2.557L677.198,131.713z
		 M676.002,144.1h5.332l-2.527-9.58h-0.057L676.002,144.1z"/>
	<path fill="#394045" d="M693.856,131.713h10.246v2.166h-7.803v6.223h7.359v2.166h-7.359v9.273h-2.443V131.713z"/>
	<path fill="#394045" d="M706.182,131.713h10.248v2.166h-7.803v6.223h7.359v2.166h-7.359v7.107h8.137v2.166h-10.582V131.713
		L706.182,131.713z"/>
	<path fill="#394045" d="M719.04,131.713h6.082c2.582,0,5.082,1.222,5.082,5.082c0,1.807-1.084,3.611-2.889,4.139v0.057
		c2.443,0.582,3.527,2.443,3.527,4.887c0,4.027-2.277,5.666-6.416,5.666h-5.387V131.713L719.04,131.713z M721.483,140.268h2.805
		c1.027,0,3.361-0.25,3.361-3.305c0-2.057-1.027-3.25-3.416-3.25h-2.75V140.268L721.483,140.268z M721.483,149.543h3.332
		c2.584,0,3.473-1.75,3.473-3.666c0-2.723-1.75-3.775-3.889-3.775h-2.916V149.543L721.483,149.543z"/>
	<path fill="#394045" d="M733.45,131.713h6.416c3.109,0,5.082,1.833,5.082,4.972c0,2.166-0.75,4.441-3.057,4.998v0.057
		c1.723,0.193,2.695,1.609,2.807,3.305l0.166,3.389c0.111,2.193,0.473,2.75,1.055,3.109h-2.943
		c-0.416-0.416-0.609-1.889-0.666-2.859l-0.166-3.082c-0.193-2.723-1.693-2.891-2.943-2.891h-3.307v8.832h-2.441v-19.83H733.45z
		 M735.893,140.711h2.416c1.443,0,4.082,0,4.082-3.832c0-1.943-1.305-3.166-3.582-3.166h-2.916V140.711z"/>
	<path fill="#394045" d="M747.862,131.713h10.246v2.166h-7.805v6.223h7.359v2.166h-7.359v7.107h8.139v2.166h-10.58V131.713z"/>
	<path fill="#394045" d="M760.715,131.713h6.416c3.109,0,5.082,1.833,5.082,4.972c0,2.166-0.75,4.441-3.055,4.998v0.057
		c1.721,0.193,2.691,1.609,2.805,3.305l0.166,3.389c0.111,2.193,0.473,2.75,1.057,3.109h-2.943
		c-0.418-0.416-0.611-1.889-0.668-2.859l-0.166-3.082c-0.193-2.723-1.693-2.891-2.943-2.891h-3.305v8.832h-2.443v-19.83H760.715z
		 M763.161,140.711h2.416c1.443,0,4.082,0,4.082-3.832c0-1.943-1.307-3.166-3.582-3.166h-2.916V140.711z"/>
	<path fill="#394045" d="M787.624,141.627c0,5-0.916,10.305-6.387,10.305s-6.389-5.305-6.389-10.305
		c0-4.998,0.918-10.302,6.389-10.302S787.624,136.629,787.624,141.627z M777.405,141.627c0,4.582,0.443,8.305,3.832,8.305
		s3.832-3.723,3.832-8.305s-0.443-8.303-3.832-8.303S777.405,137.045,777.405,141.627z"/>
	<path fill="#394045" d="M797.479,131.713h5.305c6.164,0,6.941,4.443,6.941,9.914c0,5-1.25,9.914-6.691,9.914h-5.555V131.713z
		 M799.922,149.543h2.555c4.223,0,4.693-4.332,4.693-7.887c0-3.834-0.25-7.943-4.693-7.943h-2.555V149.543z"/>
	<path fill="#394045" d="M812.667,131.713h10.248v2.166h-7.803v6.223h7.357v2.166h-7.357v7.107h8.137v2.166h-10.582V131.713z"/>
	<path fill="#394045" d="M842.741,151.541h-10.998c0-3.664,2.055-6.164,4.248-8.053l1.611-1.361
		c1.582-1.359,2.609-2.555,2.609-4.721c0-1.693-0.75-3.527-2.859-3.527c-3.027,0-3.109,3.139-3.109,4.25h-2.445
		c0-3.721,1.557-6.25,5.582-6.25c4.555,0,5.277,3.527,5.277,5.25c0,3-1.25,4.582-3.443,6.471l-2.775,2.416
		c-1.084,0.918-1.861,2.057-2.141,3.359h8.443V151.541L842.741,151.541z"/>
	<path fill="#394045" d="M844.958,141.988c0-4.332,0.307-10.109,5.611-10.109c5.303,0,5.607,5.277,5.607,10.109
		c0,4.166-0.305,9.943-5.607,9.943C845.264,151.932,844.958,146.654,844.958,141.988z M850.569,150.1c3,0,3.166-3.973,3.166-8.109
		c0-4.332-0.166-8.277-3.166-8.277s-3.166,3.945-3.166,8.277C847.403,146.127,847.569,150.1,850.569,150.1z"/>
	<path fill="#394045" d="M869.395,151.541h-10.996c0-3.664,2.055-6.164,4.248-8.053l1.609-1.361
		c1.584-1.359,2.611-2.555,2.611-4.721c0-1.693-0.75-3.527-2.861-3.527c-3.025,0-3.109,3.139-3.109,4.25h-2.443
		c0-3.721,1.555-6.25,5.582-6.25c4.555,0,5.277,3.527,5.277,5.25c0,3-1.25,4.582-3.445,6.471l-2.775,2.416
		c-1.084,0.918-1.861,2.057-2.139,3.359h8.441V151.541L869.395,151.541z"/>
	<path fill="#394045" d="M875.057,141.072c-1.971-0.805-2.859-2.082-2.859-4.193c0-3.166,1.916-5,5.025-5
		c3.111,0,5.027,1.833,5.027,5c0,2.111-0.889,3.389-2.861,4.193c2.361,0.777,3.473,2.416,3.473,5.055
		c0,2.582-1.223,5.805-5.639,5.805c-4.414,0-5.637-3.223-5.637-5.805C871.586,143.488,872.698,141.852,875.057,141.072z
		 M877.223,150.1c2.277,0,3.193-1.75,3.193-4.057c0-2.305-0.916-4.055-3.193-4.055c-2.275,0-3.191,1.75-3.191,4.055
		C874.032,148.35,874.948,150.1,877.223,150.1z M874.641,136.936c0,1.832,0.777,3.221,2.582,3.221c1.777,0,2.584-1.389,2.584-3.221
		c0-1.861-0.807-3.223-2.584-3.223C875.418,133.713,874.641,135.074,874.641,136.936z"/>
</g>
<path fill="#394045" d="M340.678,183.156c-0.832,0-1.504-0.672-1.504-1.502V28.954c0-0.83,0.672-1.502,1.504-1.502
	c0.828,0,1.499,0.672,1.499,1.502v152.701C342.177,182.484,341.506,183.156,340.678,183.156"/>
</svg>
