<?xml version="1.0" encoding="utf-8"?>
<!-- Generator: Adobe Illustrator 15.1.0, SVG Export Plug-In . SVG Version: 6.00 Build 0)  -->
<!DOCTYPE svg PUBLIC "-//W3C//DTD SVG 1.1//EN" "http://www.w3.org/Graphics/SVG/1.1/DTD/svg11.dtd">
<svg version="1.1" id="Capa_1" xmlns="http://www.w3.org/2000/svg" xmlns:xlink="http://www.w3.org/1999/xlink" x="0px" y="0px"
	 width="612px" height="792px" viewBox="0 0 612 792" enable-background="new 0 0 612 792" xml:space="preserve">
<g>
	<path fill="#73B72B" d="M50.427,39.484c0,0,6.537-0.717,8.49,7.081c0,0,0.557,3.268,1.344,5.505c0,0-5.397,1.04-9.051-4.298
		C51.21,47.772,48.954,43.938,50.427,39.484"/>
	<path fill="#73B72B" d="M57.788,40.481c0,0,0.284,2.788,3.129,4.721c0,0,2.703,1.786,5.899,1.241c0,0,0.666-3.416-2.668-5.666
		C64.148,40.778,60.667,38.535,57.788,40.481"/>
	<path fill="#73B72B" d="M50.506,36.38c0,0,2.493,3.017,7.88,2.323c0,0,3.973-0.525,5.819-5.255c0,0-2.468-2.641-7.37-2.314
		C56.835,31.134,51.476,31.746,50.506,36.38"/>
	<path fill="#73B72B" d="M24.892,3.819l-5.938,11.16c0,0-2.922-0.356-1.604-3.035C17.35,11.944,21.32,6.102,24.892,3.819
		 M10.71,40.937c0,0,6.98,0.458,11.946,1.883l-11.507,0.141C11.149,42.961,8.068,41.037,10.71,40.937 M7.911,81.777
		c0,0,7.166,0.506,12.553,2.046L8.884,83.95C8.884,83.95,5.27,81.879,7.911,81.777 M9.732,104.269
		c40.543-4.415,0.723,3.668,0.723,3.668C7.764,106.026,9.732,104.269,9.732,104.269 M10.732,186.906c0,0,7.213,0.635,12.653,2.32
		l-11.643-0.042C11.743,189.184,8.078,186.973,10.732,186.906 M29.228,382.621c2.681,1.721,0.702,3.311,0.702,3.311
		C-10.636,389.996,29.228,382.621,29.228,382.621 M31.088,436.811c2.571,1.773,0.494,3.324,0.494,3.324
		C-9.211,443.402,31.088,436.811,31.088,436.811 M21.34,464.783c-2.662-0.188-0.035-3.314-0.035-3.314l11.521,0.331
		C28.2,464.094,21.34,464.783,21.34,464.783 M15.109,479.867c0,0,6.98,0.457,11.946,1.883l-11.508,0.14
		C15.547,481.89,12.468,479.967,15.109,479.867 M15.259,592.676c0,0,6.978,0.454,11.944,1.875l-11.507,0.145
		C15.696,594.695,12.616,592.776,15.259,592.676 M36.103,724.155l-11.54,0.238c0,0-3.58-1.979-0.947-2.104
		C23.616,722.29,30.75,722.711,36.103,724.155 M35.703,696.516l-11.521,0.309c0,0-2.627-2.92,0.035-3.094
		C24.217,693.73,31.078,694.374,35.703,696.516 M32.76,664.764c0,0-39.82-8.083,0.724-3.668
		C33.483,661.096,35.452,662.853,32.76,664.764 M29.202,640.912l-11.642-0.043c0,0-3.666-2.211-1.011-2.277
		C16.549,638.592,23.762,639.226,29.202,640.912 M22.625,608.402c0,0-2.627-2.557,0.034-2.711c0,0,6.861,0.564,11.487,2.44
		L22.625,608.402z M40.644,572.738c-4.625,1.703-11.486,2.216-11.486,2.216c-2.661-0.14-0.034-2.462-0.034-2.462L40.644,572.738z
		 M29.242,528.742c0,0-1.785-1.791,0.91-1.779c0,0,6.639,0.659,10.63,2.086L29.242,528.742z M24.308,416.479
		c0,0-3.302-2.55-0.64-2.557c0,0,7.1,0.886,12.26,2.896L24.308,416.479z M22.625,490.765l11.521,0.226
		c-4.626,1.57-11.487,2.043-11.487,2.043C19.999,492.904,22.625,490.765,22.625,490.765 M19.801,555.954
		c40.544-4.414,0.723,3.669,0.723,3.669C17.833,557.711,19.801,555.954,19.801,555.954 M18.952,535.635c0,0-3.614-2.07-0.972-2.173
		c0,0,7.166,0.506,12.552,2.046L18.952,535.635z M38.866,322.389l-11.521,0.343c0,0-2.627-3.248,0.034-3.443
		C27.378,319.289,34.24,320.006,38.866,322.389 M31.21,209.41c0,0,1.968,1.758-0.724,3.669
		C30.487,213.079-9.333,204.996,31.21,209.41 M12.9,300.715c-0.721-0.224,1.251-1.661,1.251-1.661
		c5.293-2.202,9.314-2.966,9.314-2.966c-0.534,0.553-3.265,2.653-3.265,2.653C13.479,301.938,12.9,300.715,12.9,300.715
		 M24.035,245.849c0,0-2.627-2.92,0.035-3.095c0,0,6.861,0.644,11.486,2.786L24.035,245.849z M35.956,265.384l-11.54,0.238
		c0,0-3.58-1.979-0.947-2.104C23.469,263.518,30.604,263.938,35.956,265.384 M17.854,363.478c0,0,7.185,1.287,12.455,3.815
		l-11.72-0.808C18.59,366.485,15.172,363.393,17.854,363.478 M16.645,347.063c-0.68-0.229,1.561-1.756,1.561-1.756
		c5.706-2.366,9.871-3.208,9.871-3.208c-0.637,0.586-3.759,2.817-3.759,2.817C16.998,348.341,16.645,347.063,16.645,347.063
		 M37.092,166.698l-11.548-0.284c0,0-1.783-1.797,0.914-1.791C26.458,164.623,33.1,165.271,37.092,166.698 M18.498,69.299
		c0,0,6.638,0.66,10.63,2.087l-11.54-0.308C17.587,71.078,15.803,69.288,18.498,69.299 M18.227,54.67l11.521,0.227
		c-4.626,1.569-11.487,2.041-11.487,2.041C15.6,56.81,18.227,54.67,18.227,54.67 M19.055,120.808l11.521,0.245
		c-4.625,1.704-11.486,2.216-11.486,2.216C16.428,123.13,19.055,120.808,19.055,120.808 M18.97,154.007c0,0,6.861,0.564,11.487,2.44
		l-11.521,0.271C18.936,156.718,16.308,154.16,18.97,154.007 M12.005,143.01c0,0-3.08-1.919-0.438-2.019
		c0,0,6.979,0.454,11.944,1.875L12.005,143.01z M44.422,35.721L47.906-1H0L0,790.762L38.907,791c0,0,1.315-30.108-0.658-63.788
		c0,0-0.658-47.497,0.658-80.314c0,0,0.942-11.144,1.818-28.516l-11.491-0.283c0,0-1.783-1.796,0.915-1.791
		c0,0,6.579,0.645,10.576,2.057c0.76-15.076,1.469-34.839,1.469-56.098c0,0,1.974-44.907,0-59.588c0,0-1.972-16.408-2.63-52.678
		c0,0,0.658-44.907,0-60.452c0,0,3.946-18.135,3.288-44.906c0,0,0.658-21.59-0.657-36.271c0,0-2.631-19.862,0-37.134
		c0,0,5.261-28.498,0.657-66.496c0,0-4.603-35.407-5.918-59.588L44.24,38.396c5.82,0.775,9.408,0.516,9.408,0.516
		C50.832,38.144,47.663,37.017,44.422,35.721"/>
	<path fill="#73B72B" d="M61.649,64.101c0,0-8.751-1.816-15.325-1.636L60.47,66.66C60.47,66.66,64.877,65.154,61.649,64.101
		 M83.074,62.259c0,0-9.042,0.563-15.138,2.439L83.12,64.97C83.12,64.97,86.582,62.412,83.074,62.259 M92.333,64.97l15.184-0.271
		c-6.096-1.876-15.138-2.439-15.138-2.439C88.871,62.412,92.333,64.97,92.333,64.97 M114.983,66.66l14.146-4.195
		c-6.574-0.181-15.326,1.636-15.326,1.636C110.577,65.154,114.983,66.66,114.983,66.66 M135.789,64.048l15.016,1.734
		c-5.576-2.65-14.351-4.397-14.351-4.397C132.965,61.073,135.789,64.048,135.789,64.048 M158.645,66.66l14.146-4.195
		c-6.574-0.18-15.325,1.636-15.325,1.636C154.239,65.154,158.645,66.66,158.645,66.66 M179.852,64.97l15.183-0.271
		c-6.095-1.876-15.138-2.439-15.138-2.439C176.389,62.412,179.852,64.97,179.852,64.97 M202.501,66.66l14.146-4.195
		c-6.573-0.18-15.324,1.636-15.324,1.636C198.096,65.154,202.501,66.66,202.501,66.66 M223.307,64.048l15.014,1.734
		c-5.573-2.65-14.348-4.397-14.348-4.397C220.482,61.073,223.307,64.048,223.307,64.048 M246.163,66.66l14.146-4.195
		c-6.574-0.18-15.324,1.636-15.324,1.636C241.757,65.154,246.163,66.66,246.163,66.66 M266.76,64.97l15.184-0.271
		c-6.096-1.876-15.137-2.439-15.137-2.439C263.299,62.412,266.76,64.97,266.76,64.97 M289.41,66.66l14.146-4.195
		c-6.574-0.181-15.326,1.636-15.326,1.636C285.004,65.154,289.41,66.66,289.41,66.66 M310.216,64.048l15.016,1.734
		c-5.574-2.651-14.351-4.397-14.351-4.397C307.392,61.073,310.216,64.048,310.216,64.048 M333.072,66.66l14.146-4.195
		c-6.574-0.18-15.325,1.636-15.325,1.636C328.666,65.154,333.072,66.66,333.072,66.66 M354.279,64.97l15.183-0.271
		c-6.096-1.876-15.138-2.439-15.138-2.439C350.816,62.412,354.279,64.97,354.279,64.97 M376.928,66.66l14.146-4.195
		c-6.574-0.18-15.325,1.636-15.325,1.636C372.521,65.154,376.928,66.66,376.928,66.66 M397.734,64.048l15.015,1.734
		c-5.574-2.65-14.35-4.397-14.35-4.397C394.91,61.073,397.734,64.048,397.734,64.048 M420.59,66.66l14.146-4.195
		c-6.574-0.181-15.325,1.636-15.325,1.636C416.184,65.154,420.59,66.66,420.59,66.66 M440.389,64.97l15.185-0.271
		c-6.097-1.876-15.139-2.439-15.139-2.439C436.927,62.412,440.389,64.97,440.389,64.97 M463.039,66.66l14.146-4.195
		c-6.573-0.181-15.324,1.636-15.324,1.636C458.633,65.154,463.039,66.66,463.039,66.66 M483.845,64.048l15.016,1.734
		c-5.575-2.651-14.351-4.397-14.351-4.397C481.021,61.073,483.845,64.048,483.845,64.048 M506.701,66.66l14.146-4.195
		c-6.573-0.18-15.325,1.636-15.325,1.636C502.295,65.154,506.701,66.66,506.701,66.66 M527.907,64.97l15.184-0.271
		c-6.096-1.876-15.138-2.439-15.138-2.439C524.445,62.412,527.907,64.97,527.907,64.97 M550.557,66.66l14.146-4.195
		c-6.575-0.18-15.325,1.636-15.325,1.636C546.151,65.154,550.557,66.66,550.557,66.66 M571.363,64.048l15.014,1.734
		c-5.574-2.65-14.349-4.397-14.349-4.397C568.539,61.073,571.363,64.048,571.363,64.048 M594.219,66.66l14.146-4.195
		c-6.575-0.18-15.325,1.636-15.325,1.636C589.812,65.154,594.219,66.66,594.219,66.66"/>
</g>
</svg>
