<?xml version="1.0" encoding="utf-8"?>
<!-- Generator: Adobe Illustrator 15.1.0, SVG Export Plug-In . SVG Version: 6.00 Build 0)  -->
<!DOCTYPE svg PUBLIC "-//W3C//DTD SVG 1.1//EN" "http://www.w3.org/Graphics/SVG/1.1/DTD/svg11.dtd">
<svg version="1.1" id="Capa_1" xmlns="http://www.w3.org/2000/svg" xmlns:xlink="http://www.w3.org/1999/xlink" x="0px" y="0px"
	 width="612px" height="792px" viewBox="0 0 612 792" enable-background="new 0 0 612 792" xml:space="preserve">
<g>
	<path fill="#73B72B" d="M362.578,26.795c0,0-2.047,7.78,7.371,11.465c0,0,3.993,1.229,6.655,2.559c0,0,2.252-6.347-3.788-11.67
		C372.816,29.149,368.414,25.771,362.578,26.795 M79.7,71.538c0,2.25,1.83,4.08,4.08,4.08s4.081-1.83,4.081-4.08
		c0-2.249-1.831-4.079-4.081-4.079S79.7,69.289,79.7,71.538 M74.838,73.819c0-5.996,4.879-10.874,10.875-10.874
		c5.995,0,10.873,4.878,10.873,10.874c0,5.996-4.878,10.874-10.873,10.874C79.717,84.693,74.838,79.814,74.838,73.819
		 M72.838,73.819c0,7.099,5.776,12.874,12.875,12.874s12.873-5.775,12.873-12.874c0-7.098-5.774-12.874-12.873-12.874
		S72.838,66.721,72.838,73.819 M54.206,71.538c0,2.25,1.83,4.08,4.08,4.08s4.08-1.83,4.08-4.08c0-2.249-1.83-4.079-4.08-4.079
		S54.206,69.289,54.206,71.538 M54.969,84.693c-5.996,0-10.874-4.878-10.874-10.874c0-5.996,4.878-10.874,10.874-10.874
		c5.996,0,10.874,4.878,10.874,10.874C65.842,79.814,60.964,84.693,54.969,84.693 M54.969,86.693
		c7.099,0,12.874-5.775,12.874-12.874c0-7.098-5.775-12.874-12.874-12.874c-7.099,0-12.874,5.776-12.874,12.874
		C42.095,80.918,47.87,86.693,54.969,86.693 M64.026,99.665c0,0-3.723-0.127-7.058,3.685c0,0-3.461,4.351-0.79,8.436
		c0,0,4.017,0.382,7.437-4.05C63.615,107.736,66.128,104.458,64.026,99.665 M74.335,80.908h-7.905l4.217,10.014L74.335,80.908z
		 M75.401,107.233c0,0-2.005-2.975-6.075-2.184c0,0-4.171,0.902-4.851,4.419c0,0,2.239,1.826,5.722,1.161
		C70.197,110.629,73.47,109.961,75.401,107.233 M58.383,114.106c2.173,4.32,6.611,5.47,6.611,5.47
		c6.555,1.228,9.73-3.464,9.73-3.464c-2.204-1.058-4.992-3.033-4.992-3.033C62.625,108.819,58.383,114.106,58.383,114.106
		 M338.923,21.135c0,0-3.248,2.039-3.443-0.027c0,0,0.717-5.327,3.1-8.918L338.923,21.135z M309.991,21.197
		c-0.224,0.722-1.661-1.251-1.661-1.251c-2.201-5.293-2.966-9.314-2.966-9.314c0.554,0.534,2.653,3.265,2.653,3.265
		C311.214,20.618,309.991,21.197,309.991,21.197 M284.293,15.793c0,0-1.979,3.58-2.104,0.947c0,0,0.421-7.135,1.865-12.487
		L284.293,15.793z M256.088,21.159c0,0-2.92,2.627-3.096-0.034c0,0,0.645-6.861,2.786-11.487L256.088,21.159z M224.835,5.47
		c0,0-8.083,39.82-3.669-0.724C221.167,4.746,222.923,2.778,224.835,5.47 M200.982,12.571l-0.042,11.642
		c0,0-2.211,3.666-2.278,1.011C198.663,25.224,199.297,18.011,200.982,12.571 M181.417,3.686l-0.284,11.548
		c0,0-1.797,1.783-1.791-0.914C179.342,14.32,179.991,7.678,181.417,3.686 M30.576,122.054c-4.625,1.703-11.486,2.215-11.486,2.215
		c-2.662-0.139-0.034-2.461-0.034-2.461L30.576,122.054z M10.456,108.938c-2.692-1.912-0.723-3.669-0.723-3.669
		C50.275,100.854,10.456,108.938,10.456,108.938 M24.893,4.819l-5.938,11.161c0,0-2.923-0.357-1.605-3.035
		C17.35,12.945,21.319,7.102,24.893,4.819 M10.71,30.331c0,0,6.98,0.458,11.946,1.883l-11.507,0.141
		C11.149,32.354,8.068,30.431,10.71,30.331 M11.681,52.068c-2.662-0.128-0.035-2.268-0.035-2.268l11.521,0.227
		C18.542,51.597,11.681,52.068,11.681,52.068 M22.89,68.341l-11.54-0.307c0,0-1.785-1.791,0.91-1.779
		C12.259,66.255,18.898,66.914,22.89,68.341 M7.912,82.778c0,0,7.165,0.505,12.552,2.045l-11.58,0.128
		C8.883,84.951,5.27,82.88,7.912,82.778 M10.732,187.907c0,0,7.213,0.634,12.653,2.32l-11.642-0.042
		C11.744,190.185,8.079,187.973,10.732,187.907 M29.228,383.621c2.681,1.721,0.702,3.312,0.702,3.312
		C-10.637,390.997,29.228,383.621,29.228,383.621 M31.088,437.811c2.571,1.773,0.494,3.324,0.494,3.324
		C-9.211,444.402,31.088,437.811,31.088,437.811 M21.339,465.783c-2.662-0.187-0.035-3.313-0.035-3.313l11.521,0.33
		C28.201,465.094,21.339,465.783,21.339,465.783 M15.109,480.867c0,0,6.98,0.457,11.946,1.883l-11.507,0.141
		C15.548,482.891,12.467,480.967,15.109,480.867 M15.258,593.676c0,0,6.978,0.454,11.944,1.876l-11.507,0.144
		C15.695,595.695,12.615,593.776,15.258,593.676 M36.104,725.155l-11.541,0.238c0,0-3.58-1.978-0.947-2.104
		C23.615,723.29,30.75,723.711,36.104,725.155 M35.703,697.517l-11.52,0.31c0,0-2.627-2.921,0.034-3.096
		C24.216,694.73,31.078,695.375,35.703,697.517 M32.761,665.764c0,0-39.82-8.083,0.723-3.668
		C33.483,662.096,35.452,663.853,32.761,665.764 M29.202,641.912L17.56,641.87c0,0-3.665-2.212-1.011-2.278
		C16.548,639.592,23.762,640.227,29.202,641.912 M22.625,609.402c0,0-2.627-2.557,0.035-2.711c0,0,6.861,0.564,11.486,2.44
		L22.625,609.402z M40.645,573.738c-4.626,1.703-11.487,2.216-11.487,2.216c-2.661-0.14-0.034-2.462-0.034-2.462L40.645,573.738z
		 M29.242,529.742c0,0-1.784-1.79,0.911-1.779c0,0,6.638,0.66,10.63,2.086L29.242,529.742z M24.309,417.48
		c0,0-3.303-2.55-0.641-2.558c0,0,7.101,0.887,12.26,2.896L24.309,417.48z M22.625,491.765l11.521,0.228
		c-4.625,1.568-11.486,2.04-11.486,2.04C19.999,493.904,22.625,491.765,22.625,491.765 M19.8,556.954
		c40.544-4.414,0.724,3.669,0.724,3.669C17.833,558.711,19.8,556.954,19.8,556.954 M18.952,536.636c0,0-3.614-2.071-0.972-2.173
		c0,0,7.166,0.505,12.553,2.045L18.952,536.636z M38.865,323.389l-11.521,0.343c0,0-2.627-3.248,0.035-3.442
		C27.379,320.29,34.239,321.006,38.865,323.389 M31.21,210.411c0,0,1.969,1.757-0.724,3.668
		C30.486,214.079-9.333,205.996,31.21,210.411 M12.9,301.715c-0.721-0.224,1.252-1.66,1.252-1.66
		c5.292-2.203,9.313-2.967,9.313-2.967c-0.534,0.553-3.265,2.653-3.265,2.653C13.479,302.938,12.9,301.715,12.9,301.715
		 M24.036,246.849c0,0-2.628-2.92,0.034-3.095c0,0,6.861,0.644,11.486,2.786L24.036,246.849z M35.957,266.384l-11.541,0.239
		c0,0-3.58-1.979-0.947-2.105C23.469,264.518,30.604,264.938,35.957,266.384 M17.854,364.479c0,0,7.185,1.286,12.455,3.814
		l-11.719-0.807C18.59,367.486,15.172,364.393,17.854,364.479 M16.646,348.063c-0.681-0.228,1.56-1.756,1.56-1.756
		c5.706-2.365,9.872-3.208,9.872-3.208c-0.638,0.586-3.76,2.818-3.76,2.818C16.998,349.341,16.646,348.063,16.646,348.063
		 M37.091,167.699l-11.548-0.285c0,0-1.783-1.796,0.915-1.791C26.458,165.623,33.1,166.271,37.091,167.699 M12.005,144.011
		c0,0-3.08-1.919-0.438-2.02c0,0,6.979,0.454,11.944,1.876L12.005,144.011z M30.457,157.447l-11.521,0.271
		c0,0-2.627-2.558,0.034-2.711C18.97,155.007,25.831,155.571,30.457,157.447 M369.351,23.953c0,0-0.567-9.993-44.217-15.946
		l-66.484-9.29L1,0L0,792h38.906c0,0,1.315-30.108-0.658-63.788c0,0-0.658-47.497,0.658-80.313c0,0,0.942-11.145,1.818-28.517
		l-11.491-0.283c0,0-1.782-1.796,0.915-1.791c0,0,6.579,0.644,10.577,2.057c0.759-15.076,1.469-34.839,1.469-56.098
		c0,0,1.973-44.907,0-59.587c0,0-1.973-16.409-2.631-52.679c0,0,0.658-44.907,0-60.451c0,0,3.946-18.135,3.288-44.907
		c0,0,0.658-21.589-0.657-36.27c0,0-2.631-19.863,0-37.135c0,0,5.261-28.498,0.657-66.496c0,0-4.603-35.407-5.918-59.587
		c0,0,1.322-8.556,2.987-20.202c13.578-6.704,20.394-14.61,20.394-14.61c-5.413,3.093-13.047,6.165-19.864,8.627
		c-13.753-18.769-1.114-58.435-1.114-58.435c1.883-9.791-2.633-11.485-3.261-11.671c14.519,3.741,14.844,8.987,14.844,8.987
		l0.288-0.594c0,0,19.601-12.674,40.858,1.44c0,0-0.891-6.403,14.53-9.789c0.164-0.051,0.271-0.065,0.271-0.065
		c-0.097,0.02-0.176,0.044-0.271,0.065c-0.931,0.288-3.916,1.922-2.595,10.631l47.795-9.657c0,0,16.299-2.551,48.189-8.929
		c27.992-5.669,45.921-8.575,71.434-11.622c0,0,37.983-3.969,53.857-4.536C325.275,25.795,361.984,26.257,369.351,23.953
		 M385.287,8.537c0,0-4.164-1.788-10.394,1.206c0,0-6.717,3.57-6.274,9.532c0,0,4.335,2.217,11.058-1.466
		C379.677,17.809,384.631,15.078,385.287,8.537 M390.897,26.753c0,0-1.433-4.914-7.781-5.733c0,0-6.551-0.716-9.314,3.686
		c0,0,2.354,3.48,7.779,4.197C381.581,28.903,386.7,29.517,390.897,26.753"/>
</g>
<g>
	<path fill="#FFFFFF" d="M38.018,510.286c0-4.95-4.013-8.963-8.963-8.963s-8.962,4.013-8.962,8.963s4.012,8.963,8.962,8.963
		S38.018,515.236,38.018,510.286"/>
	<circle fill="none" stroke="#575756" stroke-width="0.5" cx="29.055" cy="510.286" r="8.962"/>
	<path fill="#FFFFFF" d="M38.018,281.713c0-4.95-4.013-8.963-8.963-8.963s-8.962,4.013-8.962,8.963c0,4.95,4.012,8.963,8.962,8.963
		S38.018,286.664,38.018,281.713"/>
	<circle fill="none" stroke="#575756" stroke-width="0.5" cx="29.055" cy="281.713" r="8.962"/>
	<line fill="none" stroke="#575756" stroke-width="0.5" stroke-dasharray="1.928,1.928" x1="48.189" y1="396" x2="0" y2="396"/>
</g>
</svg>
