<?xml version="1.0" encoding="utf-8"?>
<!-- Generator: Adobe Illustrator 15.1.0, SVG Export Plug-In . SVG Version: 6.00 Build 0)  -->
<!DOCTYPE svg PUBLIC "-//W3C//DTD SVG 1.1//EN" "http://www.w3.org/Graphics/SVG/1.1/DTD/svg11.dtd">
<svg version="1.1" id="Capa_1" xmlns="http://www.w3.org/2000/svg" xmlns:xlink="http://www.w3.org/1999/xlink" x="0px" y="0px"
	 width="612px" height="792px" viewBox="0 0 612 792" enable-background="new 0 0 612 792" xml:space="preserve">
<g>
	<defs>
		<rect id="SVGID_1_" y="-0.354" width="47.906" height="792.709"/>
	</defs>
	<clipPath id="SVGID_2_">
		<use xlink:href="#SVGID_1_"  overflow="visible"/>
	</clipPath>
	<path clip-path="url(#SVGID_2_)" fill="#73B72B" d="M32.702,31.611l-11.521,0.32c0,0-2.627-3.027,0.033-3.209
		C21.215,28.722,28.076,29.39,32.702,31.611 M24.893,5.174l-5.938,11.16c0,0-2.922-0.356-1.604-3.035
		C17.35,13.299,21.319,7.457,24.893,5.174 M10.711,42.292c0,0,6.979,0.458,11.945,1.884l-11.507,0.14
		C11.149,44.315,8.068,42.392,10.711,42.292 M7.911,83.132c0,0,7.166,0.505,12.554,2.045L8.883,85.305
		C8.883,85.305,5.27,83.233,7.911,83.132 M9.732,105.624c40.544-4.415,0.724,3.668,0.724,3.668
		C7.764,107.38,9.732,105.624,9.732,105.624 M10.732,188.261c0,0,7.213,0.635,12.652,2.321l-11.642-0.043
		C11.743,190.539,8.078,188.328,10.732,188.261 M29.229,383.976c2.68,1.721,0.701,3.312,0.701,3.312
		C-10.636,391.351,29.229,383.976,29.229,383.976 M31.088,438.166c2.571,1.772,0.494,3.323,0.494,3.323
		C-9.211,444.758,31.088,438.166,31.088,438.166 M21.34,466.138c-2.662-0.188-0.035-3.314-0.035-3.314l11.521,0.331
		C28.2,465.448,21.34,466.138,21.34,466.138 M15.11,481.222c0,0,6.979,0.457,11.944,1.883l-11.506,0.14
		C15.549,483.244,12.467,481.321,15.11,481.222 M15.258,594.03c0,0,6.979,0.454,11.944,1.875l-11.506,0.146
		C15.696,596.051,12.616,594.132,15.258,594.03 M36.104,725.511l-11.541,0.238c0,0-3.58-1.979-0.947-2.104
		C23.615,723.645,30.75,724.065,36.104,725.511 M35.703,697.872l-11.521,0.309c0,0-2.627-2.921,0.035-3.095
		C24.217,695.086,31.077,695.729,35.703,697.872 M32.76,666.118c0,0-39.819-8.083,0.724-3.668
		C33.483,662.45,35.452,664.208,32.76,666.118 M29.202,642.267l-11.644-0.042c0,0-3.664-2.212-1.01-2.278
		C16.549,639.946,23.762,640.581,29.202,642.267 M22.625,609.758c0,0-2.627-2.559,0.035-2.711c0,0,6.861,0.563,11.486,2.439
		L22.625,609.758z M40.645,574.094c-4.627,1.703-11.487,2.215-11.487,2.215c-2.661-0.139-0.034-2.461-0.034-2.461L40.645,574.094z
		 M40.782,530.403l-11.54-0.307c0,0-1.785-1.79,0.91-1.779C30.152,528.317,36.79,528.977,40.782,530.403 M24.309,417.835
		c0,0-3.303-2.551-0.642-2.558c0,0,7.101,0.887,12.261,2.896L24.309,417.835z M22.625,492.119l11.521,0.227
		c-4.625,1.57-11.486,2.042-11.486,2.042C19.998,494.26,22.625,492.119,22.625,492.119 M19.801,557.309
		c40.543-4.415,0.724,3.669,0.724,3.669C17.832,559.065,19.801,557.309,19.801,557.309 M18.951,536.989c0,0-3.613-2.069-0.973-2.173
		c0,0,7.166,0.506,12.554,2.046L18.951,536.989z M38.865,323.743l-11.521,0.344c0,0-2.627-3.248,0.035-3.443
		C27.379,320.644,34.24,321.361,38.865,323.743 M31.21,210.765c0,0,1.97,1.757-0.723,3.669
		C30.487,214.434-9.333,206.351,31.21,210.765 M12.901,302.07c-0.722-0.224,1.251-1.661,1.251-1.661
		c5.292-2.202,9.312-2.966,9.312-2.966c-0.533,0.553-3.264,2.653-3.264,2.653C13.479,303.292,12.901,302.07,12.901,302.07
		 M24.035,247.204c0,0-2.627-2.92,0.034-3.095c0,0,6.86,0.644,11.487,2.786L24.035,247.204z M35.956,266.739l-11.541,0.238
		c0,0-3.58-1.979-0.946-2.104C23.469,264.873,30.604,265.293,35.956,266.739 M17.854,364.833c0,0,7.186,1.286,12.457,3.815
		L18.59,367.84C18.59,367.84,15.172,364.748,17.854,364.833 M16.645,348.417c-0.68-0.228,1.561-1.755,1.561-1.755
		c5.706-2.366,9.872-3.208,9.872-3.208c-0.637,0.586-3.76,2.817-3.76,2.817C16.997,349.696,16.645,348.417,16.645,348.417
		 M18.969,155.362c0,0,6.862,0.564,11.487,2.44l-11.521,0.27C18.936,158.072,16.309,155.515,18.969,155.362 M12.006,144.365
		c0,0-3.08-1.919-0.438-2.02c0,0,6.979,0.455,11.943,1.876L12.006,144.365z M30.576,122.408c-4.626,1.704-11.486,2.216-11.486,2.216
		c-2.662-0.139-0.035-2.461-0.035-2.461L30.576,122.408z M18.498,70.654c0,0,6.639,0.66,10.631,2.086l-11.541-0.307
		C17.588,72.433,15.803,70.643,18.498,70.654 M18.227,56.024l11.521,0.226c-4.625,1.57-11.485,2.042-11.485,2.042
		C15.6,58.165,18.227,56.024,18.227,56.024 M37.092,168.053l-11.549-0.284c0,0-1.781-1.797,0.915-1.791
		C26.458,165.978,33.1,166.626,37.092,168.053 M36.934,146.509L47.905-0.354H0v792.471l38.906,0.238c0,0,1.314-30.107-0.658-63.788
		c0,0-0.656-47.497,0.658-80.312c0,0,0.941-11.146,1.818-28.518l-11.491-0.282c0,0-1.782-1.798,0.915-1.791
		c0,0,6.578,0.644,10.576,2.057c0.761-15.077,1.47-34.839,1.47-56.098c0,0,1.973-44.907,0-59.589c0,0-1.974-16.407-2.63-52.679
		c0,0,0.656-44.906,0-60.451c0,0,3.945-18.135,3.287-44.906c0,0,0.658-21.59-0.657-36.271c0,0-2.63-19.862,0-37.134
		c0,0,5.261-28.499,0.657-66.496C42.852,206.097,38.248,170.688,36.934,146.509"/>
</g>
</svg>
