<?xml version="1.0" encoding="utf-8"?>
<!-- Generator: Adobe Illustrator 25.4.1, SVG Export Plug-In . SVG Version: 6.00 Build 0)  -->
<svg version="1.1" xmlns="http://www.w3.org/2000/svg" xmlns:xlink="http://www.w3.org/1999/xlink" x="0px" y="0px"
	 viewBox="0 0 612 792" style="enable-background:new 0 0 612 792;" xml:space="preserve">
<style type="text/css">
	.st0{fill:#FFFFFF;stroke:#000000;stroke-miterlimit:10;}
	.st1{fill:#73B72B;}
	.st2{fill:#FFFFFF;}
	.st3{fill:none;stroke:#575756;stroke-width:0.5;}
	.st4{fill:none;stroke:#575756;stroke-width:0.5;stroke-dasharray:1.928,1.928;}
</style>
<g id="Capa_2">
	<rect x="-3.2" y="-3.6" class="st0" width="618.2" height="797.6"/>
</g>
<g id="Capa_1">
	<g>
		<path class="st1" d="M362.6,26.8c0,0-2,7.8,7.4,11.5c0,0,4,1.2,6.7,2.6c0,0,2.3-6.3-3.8-11.7C372.8,29.1,368.4,25.8,362.6,26.8
			 M79.7,71.5c0,2.2,1.8,4.1,4.1,4.1s4.1-1.8,4.1-4.1c0-2.2-1.8-4.1-4.1-4.1S79.7,69.3,79.7,71.5 M74.8,73.8c0-6,4.9-10.9,10.9-10.9
			c6,0,10.9,4.9,10.9,10.9s-4.9,10.9-10.9,10.9C79.7,84.7,74.8,79.8,74.8,73.8 M72.8,73.8c0,7.1,5.8,12.9,12.9,12.9
			s12.9-5.8,12.9-12.9c0-7.1-5.8-12.9-12.9-12.9S72.8,66.7,72.8,73.8 M54.2,71.5c0,2.2,1.8,4.1,4.1,4.1s4.1-1.8,4.1-4.1
			c0-2.2-1.8-4.1-4.1-4.1S54.2,69.3,54.2,71.5 M55,84.7c-6,0-10.9-4.9-10.9-10.9S49,62.9,55,62.9s10.9,4.9,10.9,10.9
			C65.8,79.8,61,84.7,55,84.7 M55,86.7c7.1,0,12.9-5.8,12.9-12.9c0-7.1-5.8-12.9-12.9-12.9s-12.9,5.8-12.9,12.9
			C42.1,80.9,47.9,86.7,55,86.7 M64,99.7c0,0-3.7-0.1-7.1,3.7c0,0-3.5,4.4-0.8,8.4c0,0,4,0.4,7.4-4.1C63.6,107.7,66.1,104.5,64,99.7
			 M74.3,80.9h-7.9l4.2,10L74.3,80.9z M75.4,107.2c0,0-2-3-6.1-2.2c0,0-4.2,0.9-4.9,4.4c0,0,2.2,1.8,5.7,1.2
			C70.2,110.6,73.5,110,75.4,107.2 M58.4,114.1c2.2,4.3,6.6,5.5,6.6,5.5c6.6,1.2,9.7-3.5,9.7-3.5c-2.2-1.1-5-3-5-3
			C62.6,108.8,58.4,114.1,58.4,114.1 M338.9,21.1c0,0-3.2,2-3.4,0c0,0,0.7-5.3,3.1-8.9L338.9,21.1z M310,21.2
			c-0.2,0.7-1.7-1.3-1.7-1.3c-2.2-5.3-3-9.3-3-9.3c0.6,0.5,2.7,3.3,2.7,3.3C311.2,20.6,310,21.2,310,21.2 M284.3,15.8
			c0,0-2,3.6-2.1,0.9c0,0,0.4-7.1,1.9-12.5L284.3,15.8z M256.1,21.2c0,0-2.9,2.6-3.1,0c0,0,0.6-6.9,2.8-11.5L256.1,21.2z M224.8,5.5
			c0,0-8.1,39.8-3.7-0.7C221.2,4.7,222.9,2.8,224.8,5.5 M201,12.6l0,11.6c0,0-2.2,3.7-2.3,1C198.7,25.2,199.3,18,201,12.6
			 M181.4,3.7l-0.3,11.5c0,0-1.8,1.8-1.8-0.9C179.3,14.3,180,7.7,181.4,3.7 M30.6,122.1c-4.6,1.7-11.5,2.2-11.5,2.2
			c-2.7-0.1,0-2.5,0-2.5L30.6,122.1z M10.5,108.9c-2.7-1.9-0.7-3.7-0.7-3.7C50.3,100.9,10.5,108.9,10.5,108.9 M24.9,4.8L19,16
			c0,0-2.9-0.4-1.6-3C17.4,12.9,21.3,7.1,24.9,4.8 M10.7,30.3c0,0,7,0.5,11.9,1.9l-11.5,0.1C11.1,32.4,8.1,30.4,10.7,30.3
			 M11.7,52.1c-2.7-0.1,0-2.3,0-2.3L23.2,50C18.5,51.6,11.7,52.1,11.7,52.1 M22.9,68.3L11.3,68c0,0-1.8-1.8,0.9-1.8
			C12.3,66.3,18.9,66.9,22.9,68.3 M7.9,82.8c0,0,7.2,0.5,12.6,2L8.9,85C8.9,85,5.3,82.9,7.9,82.8 M10.7,187.9c0,0,7.2,0.6,12.7,2.3
			l-11.6,0C11.7,190.2,8.1,188,10.7,187.9 M29.2,383.6c2.7,1.7,0.7,3.3,0.7,3.3C-10.6,391,29.2,383.6,29.2,383.6 M31.1,437.8
			c2.6,1.8,0.5,3.3,0.5,3.3C-9.2,444.4,31.1,437.8,31.1,437.8 M21.3,465.8c-2.7-0.2,0-3.3,0-3.3l11.5,0.3
			C28.2,465.1,21.3,465.8,21.3,465.8 M15.1,480.9c0,0,7,0.5,11.9,1.9l-11.5,0.1C15.5,482.9,12.5,481,15.1,480.9 M15.3,593.7
			c0,0,7,0.5,11.9,1.9l-11.5,0.1C15.7,595.7,12.6,593.8,15.3,593.7 M36.1,725.2l-11.5,0.2c0,0-3.6-2-0.9-2.1
			C23.6,723.3,30.8,723.7,36.1,725.2 M35.7,697.5l-11.5,0.3c0,0-2.6-2.9,0-3.1C24.2,694.7,31.1,695.4,35.7,697.5 M32.8,665.8
			c0,0-39.8-8.1,0.7-3.7C33.5,662.1,35.5,663.9,32.8,665.8 M29.2,641.9l-11.6,0c0,0-3.7-2.2-1-2.3C16.5,639.6,23.8,640.2,29.2,641.9
			 M22.6,609.4c0,0-2.6-2.6,0-2.7c0,0,6.9,0.6,11.5,2.4L22.6,609.4z M40.6,573.7c-4.6,1.7-11.5,2.2-11.5,2.2c-2.7-0.1,0-2.5,0-2.5
			L40.6,573.7z M29.2,529.7c0,0-1.8-1.8,0.9-1.8c0,0,6.6,0.7,10.6,2.1L29.2,529.7z M24.3,417.5c0,0-3.3-2.5-0.6-2.6
			c0,0,7.1,0.9,12.3,2.9L24.3,417.5z M22.6,491.8l11.5,0.2c-4.6,1.6-11.5,2-11.5,2C20,493.9,22.6,491.8,22.6,491.8 M19.8,557
			c40.5-4.4,0.7,3.7,0.7,3.7C17.8,558.7,19.8,557,19.8,557 M19,536.6c0,0-3.6-2.1-1-2.2c0,0,7.2,0.5,12.6,2L19,536.6z M38.9,323.4
			l-11.5,0.3c0,0-2.6-3.2,0-3.4C27.4,320.3,34.2,321,38.9,323.4 M31.2,210.4c0,0,2,1.8-0.7,3.7C30.5,214.1-9.3,206,31.2,210.4
			 M12.9,301.7c-0.7-0.2,1.3-1.7,1.3-1.7c5.3-2.2,9.3-3,9.3-3c-0.5,0.6-3.3,2.7-3.3,2.7C13.5,302.9,12.9,301.7,12.9,301.7 M24,246.8
			c0,0-2.6-2.9,0-3.1c0,0,6.9,0.6,11.5,2.8L24,246.8z M36,266.4l-11.5,0.2c0,0-3.6-2-0.9-2.1C23.5,264.5,30.6,264.9,36,266.4
			 M17.9,364.5c0,0,7.2,1.3,12.5,3.8l-11.7-0.8C18.6,367.5,15.2,364.4,17.9,364.5 M16.6,348.1c-0.7-0.2,1.6-1.8,1.6-1.8
			c5.7-2.4,9.9-3.2,9.9-3.2c-0.6,0.6-3.8,2.8-3.8,2.8C17,349.3,16.6,348.1,16.6,348.1 M37.1,167.7l-11.5-0.3c0,0-1.8-1.8,0.9-1.8
			C26.5,165.6,33.1,166.3,37.1,167.7 M12,144c0,0-3.1-1.9-0.4-2c0,0,7,0.5,11.9,1.9L12,144z M30.5,157.4l-11.5,0.3
			c0,0-2.6-2.6,0-2.7C19,155,25.8,155.6,30.5,157.4 M369.4,24c0,0-0.6-10-44.2-15.9l-66.5-9.3L1,0L0,792h38.9c0,0,1.3-30.1-0.7-63.8
			c0,0-0.7-47.5,0.7-80.3c0,0,0.9-11.1,1.8-28.5l-11.5-0.3c0,0-1.8-1.8,0.9-1.8c0,0,6.6,0.6,10.6,2.1c0.8-15.1,1.5-34.8,1.5-56.1
			c0,0,2-44.9,0-59.6c0,0-2-16.4-2.6-52.7c0,0,0.7-44.9,0-60.5c0,0,3.9-18.1,3.3-44.9c0,0,0.7-21.6-0.7-36.3c0,0-2.6-19.9,0-37.1
			c0,0,5.3-28.5,0.7-66.5c0,0-4.6-35.4-5.9-59.6c0,0,1.3-8.6,3-20.2c13.6-6.7,20.4-14.6,20.4-14.6c-5.4,3.1-13,6.2-19.9,8.6
			c-13.8-18.8-1.1-58.4-1.1-58.4c1.9-9.8-2.6-11.5-3.3-11.7c14.5,3.7,14.8,9,14.8,9l0.3-0.6c0,0,19.6-12.7,40.9,1.4
			c0,0-0.9-6.4,14.5-9.8c0.2-0.1,0.3-0.1,0.3-0.1c-0.1,0-0.2,0-0.3,0.1c-0.9,0.3-3.9,1.9-2.6,10.6l47.8-9.7c0,0,16.3-2.6,48.2-8.9
			c28-5.7,45.9-8.6,71.4-11.6c0,0,38-4,53.9-4.5C325.3,25.8,362,26.3,369.4,24 M385.3,8.5c0,0-4.2-1.8-10.4,1.2c0,0-6.7,3.6-6.3,9.5
			c0,0,4.3,2.2,11.1-1.5C379.7,17.8,384.6,15.1,385.3,8.5 M390.9,26.8c0,0-1.4-4.9-7.8-5.7c0,0-6.6-0.7-9.3,3.7c0,0,2.4,3.5,7.8,4.2
			C381.6,28.9,386.7,29.5,390.9,26.8"/>
	</g>
	<g>
		<path class="st2" d="M38,510.3c0-5-4-9-9-9s-9,4-9,9s4,9,9,9S38,515.2,38,510.3"/>
		
			<ellipse transform="matrix(0.9999 -1.514626e-02 1.514626e-02 0.9999 -7.7256 0.4986)" class="st3" cx="29.1" cy="510.3" rx="9" ry="9"/>
		<path class="st2" d="M38,281.7c0-5-4-9-9-9s-9,4-9,9s4,9,9,9S38,286.7,38,281.7"/>
		<circle class="st3" cx="29.1" cy="281.7" r="9"/>
		<line class="st4" x1="48.2" y1="396" x2="0" y2="396"/>
	</g>
</g>
</svg>
