<?xml version="1.0" encoding="utf-8"?>
<!-- Generator: Adobe Illustrator 15.1.0, SVG Export Plug-In . SVG Version: 6.00 Build 0)  -->
<!DOCTYPE svg PUBLIC "-//W3C//DTD SVG 1.1//EN" "http://www.w3.org/Graphics/SVG/1.1/DTD/svg11.dtd">
<svg version="1.1" id="Capa_1" xmlns="http://www.w3.org/2000/svg" xmlns:xlink="http://www.w3.org/1999/xlink" x="0px" y="0px"
	 width="380.531px" height="189.54px" viewBox="0 0 380.531 189.54" enable-background="new 0 0 380.531 189.54"
	 xml:space="preserve">
<text transform="matrix(1 0 0 1 0.9321 15.9014)"><tspan x="0" y="0" font-family="'Nunito-Regular'" font-size="14">de una pob</tspan><tspan x="66.695" y="0" font-family="'Nunito-Regular'" font-size="14">r</tspan><tspan x="71.189" y="0" font-family="'Nunito-Regular'" font-size="14">e a</tspan><tspan x="87.918" y="0" font-family="'Nunito-Regular'" font-size="14">l</tspan><tspan x="91.167" y="0" font-family="'Nunito-Regular'" font-size="14">deana pa</tspan><tspan x="145.023" y="0" font-family="'Nunito-Regular'" font-size="14">r</tspan><tspan x="149.545" y="0" font-family="'Nunito-Regular'" font-size="14">a </tspan><tspan x="159.261" y="0" font-family="'Nunito-Regular'" font-size="14">v</tspan><tspan x="165.911" y="0" font-family="'Nunito-Regular'" font-size="14">er ha</tspan><tspan x="194.989" y="0" font-family="'Nunito-Regular'" font-size="14">s</tspan><tspan x="200.477" y="0" font-family="'Nunito-Regular'" font-size="14">ta dónde l</tspan><tspan x="259.359" y="0" font-family="'Nunito-Regular'" font-size="14">l</tspan><tspan x="262.593" y="0" font-family="'Nunito-Regular'" font-size="14">egaría la gen</tspan><tspan x="337.38" y="0" font-family="'Nunito-Regular'" font-size="14">t</tspan><tspan x="342.098" y="0" font-family="'Nunito-Regular'" font-size="14">i</tspan><tspan x="345.374" y="0" font-family="'Nunito-Regular'" font-size="14">l</tspan><tspan x="348.607" y="0" font-family="'Nunito-Regular'" font-size="14">e</tspan><tspan x="355.594" y="0" font-family="'Nunito-Regular'" font-size="14">z</tspan><tspan x="361.529" y="0" font-family="'Nunito-Regular'" font-size="14">a </tspan></text>
<text transform="matrix(1 0 0 1 0.9321 33.9053)"><tspan x="0" y="0" font-family="'Nunito-Regular'" font-size="14">de la j</tspan><tspan x="34.299" y="0" font-family="'Nunito-Regular'" font-size="14">ov</tspan><tspan x="48.551" y="0" font-family="'Nunito-Regular'" font-size="14">en</tspan><tspan x="63.335" y="0" font-family="'Nunito-Regular'" font-size="14">—</tspan><tspan x="76.761" y="0" font-family="'Nunito-Regular'" font-size="14">. </tspan><tspan x="82.626" y="0" font-family="'Nunito-Regular'" font-size="14" letter-spacing="-1">T</tspan><tspan x="88.535" y="0" font-family="'Nunito-Regular'" font-size="14">e </tspan><tspan x="98.516" y="0" font-family="'Nunito-Regular'" font-size="14">c</tspan><tspan x="104.648" y="0" font-family="'Nunito-Regular'" font-size="14">on</tspan><tspan x="120.104" y="0" font-family="'Nunito-Regular'" font-size="14">c</tspan><tspan x="126.25" y="0" font-family="'Nunito-Regular'" font-size="14">edo el don — p</tspan><tspan x="216.353" y="0" font-family="'Nunito-Regular'" font-size="14">r</tspan><tspan x="220.847" y="0" font-family="'Nunito-Regular'" font-size="14">osiguió el hada— de que </tspan></text>
<path d="M3.13,53.953c0,0.383-0.191,0.574-0.574,0.574c-0.374,0-0.56-0.191-0.56-0.574v-8.372c0-0.382,0.182-0.573,0.546-0.573
	c0.383,0,0.574,0.191,0.574,0.573v0.729c0.196-0.41,0.499-0.735,0.91-0.973c0.41-0.238,0.882-0.357,1.414-0.357
	c0.607,0,1.136,0.143,1.589,0.427c0.453,0.285,0.802,0.691,1.05,1.219c0.247,0.527,0.371,1.154,0.371,1.883
	c0,0.719-0.124,1.342-0.371,1.869c-0.248,0.527-0.597,0.936-1.05,1.225c-0.453,0.289-0.982,0.434-1.589,0.434
	c-0.522,0-0.989-0.116-1.4-0.35S3.326,51.13,3.13,50.72V53.953L3.13,53.953z M5.202,51.126c0.635,0,1.143-0.227,1.526-0.68
	c0.383-0.452,0.574-1.099,0.574-1.938c0-0.85-0.191-1.498-0.574-1.946S5.837,45.89,5.202,45.89s-1.144,0.224-1.526,0.672
	c-0.383,0.448-0.574,1.097-0.574,1.946c0,0.84,0.191,1.486,0.574,1.938C4.059,50.899,4.567,51.126,5.202,51.126z M12.986,52.035
	c-0.663,0-1.237-0.145-1.722-0.434c-0.485-0.289-0.861-0.697-1.127-1.225c-0.266-0.527-0.399-1.15-0.399-1.869
	s0.133-1.342,0.399-1.869c0.266-0.527,0.642-0.936,1.127-1.226c0.485-0.289,1.059-0.434,1.722-0.434
	c0.653,0,1.225,0.145,1.715,0.434c0.49,0.29,0.868,0.698,1.134,1.226s0.399,1.15,0.399,1.869s-0.133,1.342-0.399,1.869
	s-0.644,0.936-1.134,1.225C14.211,51.891,13.639,52.035,12.986,52.035z M12.986,51.126c0.635,0,1.144-0.227,1.526-0.68
	c0.382-0.452,0.574-1.099,0.574-1.938c0-0.85-0.191-1.498-0.574-1.946c-0.383-0.448-0.892-0.672-1.526-0.672
	c-0.644,0-1.155,0.224-1.533,0.672s-0.567,1.097-0.567,1.946c0,0.84,0.189,1.486,0.567,1.938
	C11.831,50.899,12.342,51.126,12.986,51.126z M19.09,51.42c0,0.392-0.191,0.588-0.574,0.588c-0.383,0-0.574-0.196-0.574-0.588
	v-5.839c0-0.382,0.182-0.573,0.546-0.573c0.374,0,0.56,0.191,0.56,0.573v0.742c0.187-0.429,0.476-0.758,0.868-0.986
	s0.858-0.353,1.4-0.371c0.299-0.028,0.458,0.121,0.476,0.447c0.028,0.327-0.14,0.509-0.504,0.547l-0.224,0.027
	c-0.644,0.057-1.134,0.259-1.47,0.609c-0.336,0.35-0.504,0.828-0.504,1.435V51.42L19.09,51.42z M29.45,52.035
	c-0.682,0-1.27-0.146-1.764-0.44s-0.875-0.709-1.141-1.246s-0.399-1.164-0.399-1.883c0-1.083,0.294-1.935,0.882-2.556
	c0.588-0.62,1.396-0.931,2.422-0.931c0.336,0,0.686,0.054,1.05,0.161c0.364,0.107,0.695,0.282,0.994,0.524
	c0.158,0.112,0.226,0.253,0.203,0.421s-0.103,0.294-0.238,0.378s-0.292,0.065-0.469-0.057c-0.252-0.187-0.501-0.316-0.749-0.392
	c-0.248-0.074-0.488-0.112-0.721-0.112c-0.709,0-1.255,0.222-1.638,0.665s-0.574,1.081-0.574,1.911c0,0.812,0.191,1.454,0.574,1.925
	c0.383,0.472,0.929,0.707,1.638,0.707c0.233,0,0.474-0.037,0.721-0.111c0.247-0.075,0.497-0.206,0.749-0.393
	c0.177-0.121,0.332-0.138,0.462-0.049c0.13,0.089,0.203,0.217,0.217,0.385s-0.054,0.304-0.203,0.406
	c-0.299,0.243-0.625,0.418-0.98,0.525C30.131,51.981,29.786,52.035,29.45,52.035z M35.134,52.035c-0.467,0-0.884-0.091-1.253-0.272
	c-0.369-0.183-0.66-0.432-0.875-0.749s-0.322-0.672-0.322-1.064c0-0.494,0.128-0.887,0.385-1.176s0.681-0.497,1.274-0.623
	s1.402-0.188,2.429-0.188h0.448v-0.435c0-0.578-0.119-0.996-0.357-1.253c-0.238-0.257-0.618-0.385-1.141-0.385
	c-0.327,0-0.656,0.042-0.987,0.126c-0.331,0.084-0.674,0.22-1.029,0.406c-0.159,0.084-0.292,0.1-0.399,0.049
	c-0.107-0.052-0.182-0.136-0.224-0.252c-0.042-0.117-0.042-0.238,0-0.364s0.133-0.222,0.273-0.287
	c0.401-0.205,0.805-0.354,1.211-0.448c0.406-0.093,0.791-0.14,1.155-0.14c0.877,0,1.528,0.215,1.953,0.645
	c0.425,0.429,0.637,1.097,0.637,2.002v3.794c0,0.392-0.173,0.588-0.518,0.588c-0.364,0-0.546-0.196-0.546-0.588v-0.687
	c-0.177,0.401-0.451,0.719-0.819,0.952C36.06,51.919,35.628,52.035,35.134,52.035z M35.316,51.182c0.56,0,1.017-0.193,1.372-0.581
	c0.354-0.388,0.532-0.88,0.532-1.477v-0.421h-0.434c-0.756,0-1.351,0.035-1.785,0.105s-0.737,0.191-0.91,0.364
	s-0.259,0.408-0.259,0.707c0,0.383,0.133,0.695,0.399,0.938C34.497,51.061,34.858,51.182,35.316,51.182z M43.002,52.035
	c-0.607,0-1.136-0.145-1.589-0.434c-0.453-0.289-0.803-0.697-1.05-1.225c-0.247-0.527-0.371-1.15-0.371-1.869
	c0-0.729,0.124-1.355,0.371-1.883c0.248-0.527,0.597-0.934,1.05-1.219c0.453-0.284,0.982-0.427,1.589-0.427
	c0.532,0,1.001,0.117,1.407,0.35c0.406,0.233,0.707,0.556,0.903,0.967v-3.78c0-0.383,0.191-0.574,0.574-0.574
	c0.374,0,0.56,0.191,0.56,0.574v8.904c0,0.392-0.187,0.588-0.56,0.588c-0.373,0-0.56-0.196-0.56-0.588v-0.729
	c-0.206,0.42-0.511,0.749-0.917,0.987C44.003,51.917,43.534,52.035,43.002,52.035z M43.24,51.126c0.635,0,1.144-0.227,1.526-0.68
	c0.382-0.452,0.574-1.099,0.574-1.938c0-0.85-0.191-1.498-0.574-1.946c-0.383-0.448-0.892-0.672-1.526-0.672
	c-0.644,0-1.155,0.224-1.533,0.672s-0.567,1.097-0.567,1.946c0,0.84,0.189,1.486,0.567,1.938
	C42.085,50.899,42.596,51.126,43.24,51.126z M50.716,52.035c-0.467,0-0.884-0.091-1.253-0.272c-0.369-0.183-0.661-0.432-0.875-0.749
	c-0.215-0.317-0.322-0.672-0.322-1.064c0-0.494,0.128-0.887,0.385-1.176c0.256-0.289,0.681-0.497,1.274-0.623
	s1.402-0.188,2.429-0.188h0.448v-0.435c0-0.578-0.119-0.996-0.357-1.253s-0.618-0.385-1.141-0.385c-0.327,0-0.656,0.042-0.987,0.126
	c-0.332,0.084-0.674,0.22-1.029,0.406c-0.159,0.084-0.292,0.1-0.399,0.049c-0.107-0.052-0.182-0.136-0.224-0.252
	c-0.042-0.117-0.042-0.238,0-0.364s0.133-0.222,0.273-0.287c0.401-0.205,0.805-0.354,1.211-0.448c0.406-0.093,0.791-0.14,1.155-0.14
	c0.877,0,1.528,0.215,1.953,0.645c0.425,0.429,0.637,1.097,0.637,2.002v3.794c0,0.392-0.173,0.588-0.518,0.588
	c-0.364,0-0.546-0.196-0.546-0.588v-0.687c-0.178,0.401-0.451,0.719-0.819,0.952S51.21,52.035,50.716,52.035z M50.898,51.182
	c0.56,0,1.017-0.193,1.372-0.581c0.354-0.388,0.532-0.88,0.532-1.477v-0.421h-0.434c-0.756,0-1.351,0.035-1.785,0.105
	s-0.738,0.191-0.91,0.364c-0.173,0.173-0.259,0.408-0.259,0.707c0,0.383,0.133,0.695,0.399,0.938
	C50.079,51.061,50.44,51.182,50.898,51.182z M60.74,53.953c0,0.383-0.191,0.574-0.574,0.574c-0.374,0-0.56-0.191-0.56-0.574v-8.372
	c0-0.382,0.182-0.573,0.546-0.573c0.382,0,0.574,0.191,0.574,0.573v0.729c0.196-0.41,0.5-0.735,0.91-0.973
	c0.411-0.238,0.882-0.357,1.414-0.357c0.607,0,1.137,0.143,1.59,0.427c0.452,0.285,0.803,0.691,1.05,1.219s0.37,1.154,0.37,1.883
	c0,0.719-0.123,1.342-0.37,1.869s-0.598,0.936-1.05,1.225c-0.453,0.289-0.982,0.434-1.59,0.434c-0.522,0-0.989-0.116-1.399-0.35
	c-0.411-0.233-0.714-0.556-0.91-0.966V53.953L60.74,53.953z M62.812,51.126c0.634,0,1.144-0.227,1.526-0.68
	c0.382-0.452,0.573-1.099,0.573-1.938c0-0.85-0.191-1.498-0.573-1.946c-0.383-0.448-0.893-0.672-1.526-0.672
	c-0.635,0-1.144,0.224-1.526,0.672s-0.574,1.097-0.574,1.946c0,0.84,0.191,1.486,0.574,1.938
	C61.668,50.899,62.177,51.126,62.812,51.126z M69.91,52.035c-0.467,0-0.884-0.091-1.253-0.272c-0.369-0.183-0.66-0.432-0.875-0.749
	s-0.322-0.672-0.322-1.064c0-0.494,0.129-0.887,0.385-1.176c0.257-0.289,0.682-0.497,1.274-0.623s1.402-0.188,2.429-0.188h0.448
	v-0.435c0-0.578-0.119-0.996-0.356-1.253c-0.238-0.257-0.619-0.385-1.142-0.385c-0.327,0-0.655,0.042-0.987,0.126
	c-0.331,0.084-0.674,0.22-1.029,0.406c-0.158,0.084-0.291,0.1-0.398,0.049c-0.107-0.052-0.182-0.136-0.224-0.252
	c-0.042-0.117-0.042-0.238,0-0.364s0.133-0.222,0.272-0.287c0.401-0.205,0.805-0.354,1.211-0.448c0.406-0.093,0.791-0.14,1.155-0.14
	c0.878,0,1.528,0.215,1.953,0.645c0.425,0.429,0.638,1.097,0.638,2.002v3.794c0,0.392-0.174,0.588-0.519,0.588
	c-0.364,0-0.546-0.196-0.546-0.588v-0.687c-0.178,0.401-0.451,0.719-0.819,0.952S70.405,52.035,69.91,52.035z M70.092,51.182
	c0.56,0,1.017-0.193,1.371-0.581c0.355-0.388,0.532-0.88,0.532-1.477v-0.421h-0.435c-0.756,0-1.351,0.035-1.784,0.105
	c-0.435,0.07-0.737,0.191-0.91,0.364s-0.259,0.408-0.259,0.707c0,0.383,0.133,0.695,0.398,0.938
	C69.272,51.061,69.634,51.182,70.092,51.182z M77.26,52.035c-0.672,0-1.186-0.202-1.541-0.608c-0.354-0.406-0.531-0.996-0.531-1.771
	v-7.14c0-0.383,0.186-0.574,0.56-0.574c0.383,0,0.574,0.191,0.574,0.574v7.056c0,0.999,0.396,1.498,1.19,1.498
	c0.084,0,0.158-0.004,0.224-0.014s0.13-0.014,0.196-0.014c0.102-0.01,0.174,0.014,0.217,0.069c0.041,0.057,0.062,0.168,0.062,0.336
	c0,0.317-0.158,0.499-0.476,0.546c-0.075,0.019-0.154,0.03-0.238,0.035S77.334,52.035,77.26,52.035z M81.473,52.035
	c-0.467,0-0.884-0.091-1.252-0.272c-0.369-0.183-0.66-0.432-0.875-0.749s-0.322-0.672-0.322-1.064c0-0.494,0.128-0.887,0.385-1.176
	s0.682-0.497,1.273-0.623c0.594-0.126,1.402-0.188,2.43-0.188h0.447v-0.435c0-0.578-0.118-0.996-0.356-1.253
	c-0.237-0.257-0.618-0.385-1.142-0.385c-0.326,0-0.655,0.042-0.986,0.126c-0.332,0.084-0.674,0.22-1.029,0.406
	c-0.158,0.084-0.291,0.1-0.398,0.049c-0.107-0.052-0.182-0.136-0.225-0.252c-0.041-0.117-0.041-0.238,0-0.364
	c0.043-0.126,0.133-0.222,0.273-0.287c0.4-0.205,0.805-0.354,1.211-0.448c0.406-0.093,0.791-0.14,1.154-0.14
	c0.878,0,1.529,0.215,1.953,0.645c0.426,0.429,0.638,1.097,0.638,2.002v3.794c0,0.392-0.173,0.588-0.519,0.588
	c-0.363,0-0.545-0.196-0.545-0.588v-0.687c-0.178,0.401-0.451,0.719-0.82,0.952C82.4,51.919,81.968,52.035,81.473,52.035z
	 M81.656,51.182c0.56,0,1.017-0.193,1.372-0.581c0.354-0.388,0.531-0.88,0.531-1.477v-0.421h-0.434
	c-0.756,0-1.351,0.035-1.785,0.105c-0.434,0.07-0.736,0.191-0.91,0.364c-0.172,0.173-0.258,0.408-0.258,0.707
	c0,0.383,0.133,0.695,0.398,0.938C80.836,51.061,81.198,51.182,81.656,51.182z M90.196,52.035c-0.532,0-1.004-0.118-1.414-0.356
	s-0.714-0.567-0.91-0.987v0.729c0,0.392-0.187,0.588-0.561,0.588c-0.373,0-0.559-0.196-0.559-0.588v-8.904
	c0-0.383,0.186-0.574,0.559-0.574c0.383,0,0.574,0.191,0.574,0.574v3.766c0.196-0.401,0.5-0.719,0.91-0.952
	c0.411-0.232,0.877-0.35,1.4-0.35c0.606,0,1.137,0.143,1.589,0.427c0.452,0.285,0.803,0.691,1.05,1.219
	c0.248,0.527,0.371,1.154,0.371,1.883c0,0.719-0.123,1.342-0.371,1.869c-0.247,0.527-0.598,0.936-1.05,1.225
	S90.802,52.035,90.196,52.035z M89.958,51.126c0.635,0,1.144-0.227,1.526-0.68c0.382-0.452,0.573-1.099,0.573-1.938
	c0-0.85-0.191-1.498-0.573-1.946c-0.383-0.448-0.892-0.672-1.526-0.672s-1.143,0.224-1.525,0.672s-0.574,1.097-0.574,1.946
	c0,0.84,0.191,1.486,0.574,1.938C88.815,50.899,89.323,51.126,89.958,51.126z M96.061,51.42c0,0.392-0.191,0.588-0.573,0.588
	c-0.383,0-0.574-0.196-0.574-0.588v-5.839c0-0.382,0.183-0.573,0.546-0.573c0.373,0,0.561,0.191,0.561,0.573v0.742
	c0.186-0.429,0.476-0.758,0.867-0.986c0.393-0.229,0.859-0.353,1.4-0.371c0.299-0.028,0.457,0.121,0.477,0.447
	c0.027,0.327-0.141,0.509-0.504,0.547l-0.225,0.027c-0.645,0.057-1.134,0.259-1.471,0.609c-0.336,0.35-0.504,0.828-0.504,1.435
	V51.42L96.061,51.42z M101.997,52.035c-0.467,0-0.885-0.091-1.254-0.272c-0.368-0.183-0.66-0.432-0.875-0.749
	s-0.321-0.672-0.321-1.064c0-0.494,0.128-0.887,0.385-1.176s0.681-0.497,1.274-0.623c0.592-0.126,1.402-0.188,2.429-0.188h0.448
	v-0.435c0-0.578-0.119-0.996-0.357-1.253s-0.618-0.385-1.141-0.385c-0.327,0-0.656,0.042-0.987,0.126s-0.675,0.22-1.028,0.406
	c-0.159,0.084-0.293,0.1-0.399,0.049c-0.107-0.052-0.183-0.136-0.224-0.252c-0.043-0.117-0.043-0.238,0-0.364
	c0.041-0.126,0.133-0.222,0.272-0.287c0.401-0.205,0.806-0.354,1.211-0.448c0.406-0.093,0.791-0.14,1.155-0.14
	c0.877,0,1.527,0.215,1.953,0.645c0.424,0.429,0.637,1.097,0.637,2.002v3.794c0,0.392-0.173,0.588-0.518,0.588
	c-0.364,0-0.547-0.196-0.547-0.588v-0.687c-0.177,0.401-0.45,0.719-0.818,0.952C102.922,51.919,102.491,52.035,101.997,52.035z
	 M102.178,51.182c0.561,0,1.018-0.193,1.372-0.581s0.532-0.88,0.532-1.477v-0.421h-0.434c-0.757,0-1.352,0.035-1.785,0.105
	c-0.435,0.07-0.738,0.191-0.91,0.364c-0.174,0.173-0.26,0.408-0.26,0.707c0,0.383,0.133,0.695,0.399,0.938
	C101.36,51.061,101.721,51.182,102.178,51.182z M116.92,53.953c0,0.383-0.188,0.574-0.561,0.574c-0.383,0-0.574-0.191-0.574-0.574
	V50.72c-0.195,0.401-0.496,0.721-0.902,0.959s-0.875,0.356-1.407,0.356c-0.606,0-1.136-0.145-1.589-0.434s-0.803-0.697-1.05-1.225
	s-0.371-1.15-0.371-1.869c0-0.729,0.124-1.355,0.371-1.883s0.597-0.934,1.05-1.219c0.453-0.284,0.982-0.427,1.589-0.427
	c0.532,0,1.001,0.119,1.407,0.357c0.406,0.237,0.711,0.562,0.917,0.973v-0.729c0-0.382,0.187-0.573,0.56-0.573
	s0.561,0.191,0.561,0.573V53.953L116.92,53.953z M113.714,51.126c0.634,0,1.144-0.227,1.526-0.68
	c0.382-0.452,0.573-1.099,0.573-1.938c0-0.85-0.191-1.498-0.573-1.946c-0.383-0.448-0.893-0.672-1.526-0.672
	c-0.644,0-1.155,0.224-1.533,0.672s-0.567,1.097-0.567,1.946c0,0.84,0.189,1.486,0.567,1.938
	C112.559,50.899,113.071,51.126,113.714,51.126z M121.456,52.035c-1.633,0-2.449-0.9-2.449-2.701v-3.753
	c0-0.382,0.187-0.573,0.56-0.573c0.383,0,0.574,0.191,0.574,0.573v3.738c0,0.607,0.124,1.055,0.371,1.344
	c0.247,0.29,0.637,0.435,1.169,0.435c0.578,0,1.05-0.193,1.414-0.581c0.363-0.388,0.546-0.903,0.546-1.547v-3.389
	c0-0.382,0.19-0.573,0.573-0.573c0.374,0,0.561,0.191,0.561,0.573v5.839c0,0.392-0.182,0.588-0.546,0.588
	c-0.374,0-0.56-0.196-0.56-0.588v-0.658c-0.215,0.41-0.516,0.726-0.903,0.944C122.377,51.926,121.942,52.035,121.456,52.035z
	 M129.968,52.035c-1.073,0-1.923-0.314-2.548-0.944s-0.938-1.486-0.938-2.569c0-0.7,0.14-1.318,0.421-1.854
	c0.279-0.537,0.664-0.952,1.154-1.246s1.057-0.441,1.701-0.441c0.924,0,1.646,0.297,2.17,0.889c0.522,0.593,0.784,1.407,0.784,2.443
	c0,0.289-0.163,0.434-0.49,0.434h-4.634c0.037,0.775,0.261,1.365,0.672,1.771c0.41,0.406,0.98,0.609,1.708,0.609
	c0.308,0,0.62-0.04,0.938-0.119c0.316-0.079,0.625-0.222,0.924-0.428c0.215-0.14,0.394-0.168,0.539-0.084
	c0.145,0.084,0.219,0.213,0.224,0.386s-0.091,0.324-0.287,0.455c-0.308,0.224-0.675,0.396-1.099,0.518
	C130.782,51.975,130.37,52.035,129.968,52.035z M129.786,45.819c-0.644,0-1.152,0.201-1.525,0.603s-0.593,0.929-0.658,1.582h4.13
	c-0.028-0.691-0.208-1.228-0.538-1.61C130.862,46.011,130.393,45.819,129.786,45.819z M139.096,53.953
	c0,0.383-0.191,0.574-0.574,0.574c-0.373,0-0.561-0.191-0.561-0.574v-8.372c0-0.382,0.183-0.573,0.547-0.573
	c0.383,0,0.574,0.191,0.574,0.573v0.729c0.195-0.41,0.498-0.735,0.91-0.973c0.41-0.238,0.881-0.357,1.414-0.357
	c0.605,0,1.136,0.143,1.588,0.427c0.453,0.285,0.803,0.691,1.051,1.219c0.247,0.527,0.371,1.154,0.371,1.883
	c0,0.719-0.124,1.342-0.371,1.869c-0.248,0.527-0.598,0.936-1.051,1.225c-0.452,0.289-0.982,0.434-1.588,0.434
	c-0.523,0-0.99-0.116-1.4-0.35c-0.411-0.233-0.715-0.556-0.91-0.966V53.953L139.096,53.953z M141.168,51.126
	c0.635,0,1.143-0.227,1.525-0.68c0.383-0.452,0.574-1.099,0.574-1.938c0-0.85-0.191-1.498-0.574-1.946s-0.891-0.672-1.525-0.672
	s-1.144,0.224-1.526,0.672s-0.574,1.097-0.574,1.946c0,0.84,0.191,1.486,0.574,1.938C140.025,50.899,140.534,51.126,141.168,51.126z
	 M147.272,51.42c0,0.392-0.191,0.588-0.574,0.588s-0.574-0.196-0.574-0.588v-5.839c0-0.382,0.183-0.573,0.547-0.573
	c0.373,0,0.56,0.191,0.56,0.573v0.742c0.187-0.429,0.476-0.758,0.868-0.986c0.392-0.229,0.858-0.353,1.4-0.371
	c0.298-0.028,0.457,0.121,0.476,0.447c0.028,0.327-0.14,0.509-0.504,0.547l-0.224,0.027c-0.645,0.057-1.135,0.259-1.471,0.609
	c-0.336,0.35-0.504,0.828-0.504,1.435V51.42L147.272,51.42z M153.879,52.035c-0.662,0-1.236-0.145-1.721-0.434
	c-0.486-0.289-0.861-0.697-1.127-1.225c-0.267-0.527-0.4-1.15-0.4-1.869s0.134-1.342,0.4-1.869c0.266-0.527,0.641-0.936,1.127-1.226
	c0.484-0.289,1.059-0.434,1.721-0.434c0.654,0,1.226,0.145,1.716,0.434c0.489,0.29,0.868,0.698,1.134,1.226s0.398,1.15,0.398,1.869
	s-0.133,1.342-0.398,1.869s-0.645,0.936-1.134,1.225C155.105,51.891,154.534,52.035,153.879,52.035z M153.879,51.126
	c0.635,0,1.145-0.227,1.527-0.68c0.382-0.452,0.573-1.099,0.573-1.938c0-0.85-0.191-1.498-0.573-1.946
	c-0.383-0.448-0.893-0.672-1.527-0.672c-0.644,0-1.154,0.224-1.532,0.672s-0.567,1.097-0.567,1.946c0,0.84,0.189,1.486,0.567,1.938
	C152.725,50.899,153.236,51.126,153.879,51.126z M159.97,51.42c0,0.392-0.191,0.588-0.574,0.588c-0.374,0-0.56-0.196-0.56-0.588
	v-5.839c0-0.382,0.182-0.573,0.545-0.573c0.374,0,0.561,0.191,0.561,0.573v0.687c0.225-0.43,0.541-0.751,0.952-0.966
	s0.872-0.322,1.386-0.322c1.615,0,2.422,0.896,2.422,2.688v3.752c0,0.392-0.187,0.588-0.56,0.588c-0.383,0-0.574-0.196-0.574-0.588
	v-3.683c0-0.635-0.124-1.099-0.37-1.393c-0.248-0.294-0.643-0.441-1.184-0.441c-0.625,0-1.123,0.194-1.491,0.581
	c-0.368,0.388-0.553,0.903-0.553,1.547V51.42L159.97,51.42z M169.196,52.035c-1.633,0-2.449-0.9-2.449-2.701v-3.753
	c0-0.382,0.186-0.573,0.56-0.573c0.382,0,0.573,0.191,0.573,0.573v3.738c0,0.607,0.124,1.055,0.371,1.344
	c0.248,0.29,0.638,0.435,1.17,0.435c0.578,0,1.049-0.193,1.414-0.581c0.363-0.388,0.545-0.903,0.545-1.547v-3.389
	c0-0.382,0.191-0.573,0.574-0.573c0.373,0,0.561,0.191,0.561,0.573v5.839c0,0.392-0.182,0.588-0.547,0.588
	c-0.373,0-0.56-0.196-0.56-0.588v-0.658c-0.214,0.41-0.516,0.726-0.903,0.944C170.118,51.926,169.681,52.035,169.196,52.035z
	 M175.776,51.42c0,0.392-0.191,0.588-0.574,0.588c-0.373,0-0.56-0.196-0.56-0.588v-5.839c0-0.382,0.183-0.573,0.546-0.573
	c0.373,0,0.561,0.191,0.561,0.573v0.687c0.224-0.43,0.541-0.751,0.951-0.966c0.411-0.215,0.873-0.322,1.387-0.322
	c1.614,0,2.422,0.896,2.422,2.688v3.752c0,0.392-0.188,0.588-0.561,0.588c-0.383,0-0.574-0.196-0.574-0.588v-3.683
	c0-0.635-0.123-1.099-0.371-1.393c-0.247-0.294-0.641-0.441-1.183-0.441c-0.625,0-1.122,0.194-1.491,0.581
	c-0.369,0.388-0.553,0.903-0.553,1.547V51.42L175.776,51.42z M185.478,52.035c-0.682,0-1.27-0.146-1.765-0.44
	c-0.494-0.294-0.875-0.709-1.141-1.246s-0.398-1.164-0.398-1.883c0-1.083,0.293-1.935,0.882-2.556
	c0.588-0.62,1.396-0.931,2.422-0.931c0.336,0,0.687,0.054,1.05,0.161c0.364,0.107,0.695,0.282,0.994,0.524
	c0.158,0.112,0.227,0.253,0.203,0.421s-0.104,0.294-0.238,0.378s-0.291,0.065-0.469-0.057c-0.252-0.187-0.502-0.316-0.749-0.392
	c-0.247-0.074-0.487-0.112-0.722-0.112c-0.709,0-1.255,0.222-1.638,0.665s-0.573,1.081-0.573,1.911c0,0.812,0.19,1.454,0.573,1.925
	c0.383,0.472,0.929,0.707,1.638,0.707c0.234,0,0.475-0.037,0.722-0.111c0.247-0.075,0.497-0.206,0.749-0.393
	c0.178-0.121,0.331-0.138,0.462-0.049c0.13,0.089,0.203,0.217,0.217,0.385c0.015,0.168-0.054,0.304-0.202,0.406
	c-0.299,0.243-0.626,0.418-0.98,0.525C186.159,51.981,185.814,52.035,185.478,52.035z M190.377,42.768c0,0.467-0.247,0.7-0.742,0.7
	c-0.494,0-0.741-0.233-0.741-0.7c0-0.457,0.247-0.687,0.741-0.687C190.13,42.081,190.377,42.311,190.377,42.768L190.377,42.768z
	 M190.209,51.363c0,0.411-0.191,0.616-0.574,0.616c-0.373,0-0.56-0.205-0.56-0.616v-5.726c0-0.401,0.187-0.603,0.56-0.603
	c0.383,0,0.574,0.201,0.574,0.603V51.363L190.209,51.363z M195.389,52.035c-1.072,0-1.922-0.314-2.547-0.944
	c-0.626-0.63-0.938-1.486-0.938-2.569c0-0.7,0.14-1.318,0.42-1.854c0.28-0.537,0.665-0.952,1.155-1.246s1.057-0.441,1.701-0.441
	c0.924,0,1.646,0.297,2.17,0.889c0.522,0.593,0.783,1.407,0.783,2.443c0,0.289-0.163,0.434-0.489,0.434h-4.634
	c0.037,0.775,0.261,1.365,0.672,1.771c0.41,0.406,0.979,0.609,1.707,0.609c0.309,0,0.621-0.04,0.938-0.119s0.626-0.222,0.925-0.428
	c0.214-0.14,0.394-0.168,0.539-0.084c0.145,0.084,0.219,0.213,0.223,0.386c0.006,0.173-0.09,0.324-0.286,0.455
	c-0.308,0.224-0.675,0.396-1.099,0.518C196.204,51.975,195.792,52.035,195.389,52.035z M195.208,45.819
	c-0.644,0-1.152,0.201-1.525,0.603s-0.594,0.929-0.658,1.582h4.13c-0.028-0.691-0.208-1.228-0.539-1.61
	S195.815,45.819,195.208,45.819z M202.068,52.035c-0.42,0-0.843-0.054-1.267-0.16c-0.426-0.107-0.819-0.282-1.184-0.525
	c-0.168-0.103-0.25-0.235-0.245-0.399c0.005-0.163,0.067-0.291,0.189-0.385c0.121-0.093,0.274-0.093,0.462,0
	c0.363,0.224,0.716,0.381,1.057,0.469c0.341,0.089,0.68,0.134,1.016,0.134c0.531,0,0.933-0.099,1.203-0.294
	c0.271-0.196,0.406-0.463,0.406-0.799c0-0.261-0.088-0.469-0.266-0.623c-0.178-0.153-0.457-0.272-0.84-0.356l-1.274-0.28
	c-1.157-0.252-1.735-0.849-1.735-1.792c0-0.616,0.244-1.11,0.734-1.484c0.49-0.373,1.132-0.56,1.926-0.56
	c0.4,0,0.788,0.054,1.161,0.161c0.374,0.107,0.71,0.277,1.009,0.511c0.158,0.112,0.229,0.248,0.209,0.406
	c-0.019,0.159-0.091,0.282-0.217,0.371s-0.277,0.077-0.455-0.035c-0.279-0.187-0.564-0.324-0.854-0.413s-0.574-0.133-0.854-0.133
	c-0.523,0-0.92,0.103-1.191,0.308c-0.27,0.206-0.405,0.477-0.405,0.812c0,0.522,0.345,0.858,1.036,1.008l1.273,0.266
	c0.598,0.131,1.051,0.339,1.358,0.623c0.308,0.285,0.462,0.67,0.462,1.155c0,0.625-0.248,1.118-0.742,1.477
	C203.547,51.855,202.889,52.035,202.068,52.035z M212.414,52.035c-0.42,0-0.843-0.054-1.267-0.16
	c-0.425-0.107-0.819-0.282-1.184-0.525c-0.168-0.103-0.25-0.235-0.244-0.399c0.004-0.163,0.066-0.291,0.188-0.385
	c0.121-0.093,0.275-0.093,0.462,0c0.364,0.224,0.717,0.381,1.057,0.469c0.341,0.089,0.68,0.134,1.016,0.134
	c0.531,0,0.934-0.099,1.203-0.294c0.271-0.196,0.406-0.463,0.406-0.799c0-0.261-0.088-0.469-0.266-0.623
	c-0.178-0.153-0.457-0.272-0.84-0.356l-1.273-0.28c-1.158-0.252-1.736-0.849-1.736-1.792c0-0.616,0.244-1.11,0.734-1.484
	c0.49-0.373,1.132-0.56,1.926-0.56c0.4,0,0.788,0.054,1.162,0.161c0.373,0.107,0.709,0.277,1.008,0.511
	c0.158,0.112,0.229,0.248,0.209,0.406c-0.018,0.159-0.09,0.282-0.217,0.371c-0.125,0.089-0.277,0.077-0.455-0.035
	c-0.279-0.187-0.564-0.324-0.854-0.413s-0.574-0.133-0.854-0.133c-0.523,0-0.92,0.103-1.19,0.308
	c-0.271,0.206-0.406,0.477-0.406,0.812c0,0.522,0.345,0.858,1.036,1.008l1.273,0.266c0.598,0.131,1.051,0.339,1.359,0.623
	c0.307,0.285,0.461,0.67,0.461,1.155c0,0.625-0.247,1.118-0.742,1.477C213.893,51.855,213.235,52.035,212.414,52.035z
	 M218.994,52.035c-0.467,0-0.884-0.091-1.253-0.272c-0.369-0.183-0.66-0.432-0.875-0.749s-0.322-0.672-0.322-1.064
	c0-0.494,0.129-0.887,0.385-1.176c0.258-0.289,0.682-0.497,1.274-0.623s1.402-0.188,2.429-0.188h0.448v-0.435
	c0-0.578-0.118-0.996-0.356-1.253s-0.619-0.385-1.142-0.385c-0.327,0-0.655,0.042-0.987,0.126c-0.331,0.084-0.674,0.22-1.028,0.406
	c-0.159,0.084-0.292,0.1-0.399,0.049c-0.107-0.052-0.182-0.136-0.224-0.252c-0.042-0.117-0.042-0.238,0-0.364
	s0.133-0.222,0.272-0.287c0.402-0.205,0.806-0.354,1.211-0.448c0.406-0.093,0.791-0.14,1.155-0.14c0.878,0,1.528,0.215,1.953,0.645
	c0.425,0.429,0.638,1.097,0.638,2.002v3.794c0,0.392-0.174,0.588-0.519,0.588c-0.364,0-0.546-0.196-0.546-0.588v-0.687
	c-0.178,0.401-0.451,0.719-0.819,0.952S219.489,52.035,218.994,52.035z M219.176,51.182c0.56,0,1.017-0.193,1.371-0.581
	c0.355-0.388,0.532-0.88,0.532-1.477v-0.421h-0.434c-0.757,0-1.351,0.035-1.785,0.105s-0.737,0.191-0.91,0.364
	s-0.259,0.408-0.259,0.707c0,0.383,0.133,0.695,0.398,0.938C218.357,51.061,218.718,51.182,219.176,51.182z M226.344,52.035
	c-0.672,0-1.186-0.202-1.541-0.608c-0.354-0.406-0.531-0.996-0.531-1.771v-7.14c0-0.383,0.187-0.574,0.56-0.574
	c0.383,0,0.574,0.191,0.574,0.574v7.056c0,0.999,0.396,1.498,1.19,1.498c0.084,0,0.158-0.004,0.224-0.014s0.13-0.014,0.196-0.014
	c0.102-0.01,0.175,0.014,0.217,0.069c0.042,0.057,0.062,0.168,0.062,0.336c0,0.317-0.158,0.499-0.476,0.546
	c-0.075,0.019-0.154,0.03-0.238,0.035S226.418,52.035,226.344,52.035z M230.934,52.035c-0.606,0-1.137-0.145-1.588-0.434
	c-0.453-0.289-0.804-0.697-1.051-1.225c-0.248-0.527-0.371-1.15-0.371-1.869c0-0.729,0.123-1.355,0.371-1.883
	c0.247-0.527,0.598-0.934,1.051-1.219c0.451-0.284,0.981-0.427,1.588-0.427c0.532,0,1.002,0.117,1.407,0.35
	c0.406,0.233,0.707,0.556,0.903,0.967v-3.78c0-0.383,0.191-0.574,0.574-0.574c0.373,0,0.56,0.191,0.56,0.574v8.904
	c0,0.392-0.187,0.588-0.56,0.588s-0.561-0.196-0.561-0.588v-0.729c-0.205,0.42-0.511,0.749-0.917,0.987
	C231.936,51.917,231.466,52.035,230.934,52.035z M231.172,51.126c0.635,0,1.144-0.227,1.526-0.68
	c0.382-0.452,0.573-1.099,0.573-1.938c0-0.85-0.191-1.498-0.573-1.946c-0.383-0.448-0.892-0.672-1.526-0.672
	c-0.645,0-1.154,0.224-1.533,0.672c-0.377,0.448-0.566,1.097-0.566,1.946c0,0.84,0.189,1.486,0.566,1.938
	C230.018,50.899,230.528,51.126,231.172,51.126z M237.655,51.42c0,0.392-0.191,0.588-0.574,0.588s-0.574-0.196-0.574-0.588v-5.839
	c0-0.382,0.182-0.573,0.546-0.573c0.374,0,0.56,0.191,0.56,0.573v0.742c0.188-0.429,0.477-0.758,0.869-0.986
	c0.392-0.229,0.857-0.353,1.399-0.371c0.299-0.028,0.457,0.121,0.476,0.447c0.028,0.327-0.14,0.509-0.504,0.547l-0.224,0.027
	c-0.644,0.057-1.134,0.259-1.47,0.609c-0.336,0.35-0.504,0.828-0.504,1.435V51.42L237.655,51.42z M243.661,52.035
	c-0.467,0-0.885-0.091-1.254-0.272c-0.368-0.183-0.66-0.432-0.875-0.749s-0.321-0.672-0.321-1.064c0-0.494,0.128-0.887,0.385-1.176
	s0.681-0.497,1.274-0.623c0.592-0.126,1.402-0.188,2.429-0.188h0.448v-0.435c0-0.578-0.119-0.996-0.357-1.253
	s-0.618-0.385-1.141-0.385c-0.327,0-0.656,0.042-0.987,0.126s-0.675,0.22-1.028,0.406c-0.159,0.084-0.293,0.1-0.399,0.049
	c-0.107-0.052-0.183-0.136-0.224-0.252c-0.043-0.117-0.043-0.238,0-0.364c0.041-0.126,0.133-0.222,0.272-0.287
	c0.401-0.205,0.806-0.354,1.211-0.448c0.406-0.093,0.791-0.14,1.155-0.14c0.877,0,1.527,0.215,1.953,0.645
	c0.424,0.429,0.637,1.097,0.637,2.002v3.794c0,0.392-0.173,0.588-0.518,0.588c-0.364,0-0.547-0.196-0.547-0.588v-0.687
	c-0.177,0.401-0.449,0.719-0.818,0.952S244.155,52.035,243.661,52.035z M243.842,51.182c0.561,0,1.018-0.193,1.372-0.581
	s0.532-0.88,0.532-1.477v-0.421h-0.434c-0.756,0-1.352,0.035-1.785,0.105c-0.435,0.07-0.738,0.191-0.91,0.364
	c-0.173,0.173-0.26,0.408-0.26,0.707c0,0.383,0.133,0.695,0.399,0.938C243.024,51.061,243.385,51.182,243.842,51.182z
	 M244.725,44.126c-0.084,0.131-0.191,0.188-0.322,0.175c-0.131-0.015-0.236-0.07-0.315-0.168c-0.079-0.099-0.087-0.222-0.021-0.371
	l1.176-2.282c0.084-0.158,0.193-0.252,0.328-0.28c0.136-0.027,0.262-0.009,0.379,0.057c0.116,0.065,0.197,0.161,0.244,0.287
	s0.023,0.259-0.069,0.398L244.725,44.126z M255.14,52.035c-0.606,0-1.136-0.145-1.589-0.434s-0.803-0.697-1.05-1.225
	s-0.371-1.15-0.371-1.869c0-0.729,0.124-1.355,0.371-1.883s0.597-0.934,1.05-1.219c0.453-0.284,0.982-0.427,1.589-0.427
	c0.532,0,1.001,0.117,1.407,0.35c0.406,0.233,0.707,0.556,0.902,0.967v-3.78c0-0.383,0.191-0.574,0.574-0.574
	c0.373,0,0.561,0.191,0.561,0.574v8.904c0,0.392-0.188,0.588-0.561,0.588s-0.56-0.196-0.56-0.588v-0.729
	c-0.206,0.42-0.511,0.749-0.917,0.987S255.672,52.035,255.14,52.035z M255.378,51.126c0.634,0,1.144-0.227,1.526-0.68
	c0.383-0.452,0.574-1.099,0.574-1.938c0-0.85-0.191-1.498-0.574-1.946s-0.893-0.672-1.526-0.672c-0.644,0-1.155,0.224-1.533,0.672
	s-0.567,1.097-0.567,1.946c0,0.84,0.189,1.486,0.567,1.938C254.223,50.899,254.735,51.126,255.378,51.126z M263.778,52.035
	c-1.073,0-1.922-0.314-2.548-0.944c-0.625-0.63-0.938-1.486-0.938-2.569c0-0.7,0.14-1.318,0.42-1.854
	c0.28-0.537,0.665-0.952,1.155-1.246s1.057-0.441,1.701-0.441c0.924,0,1.646,0.297,2.17,0.889c0.521,0.593,0.783,1.407,0.783,2.443
	c0,0.289-0.163,0.434-0.49,0.434h-4.633c0.037,0.775,0.261,1.365,0.672,1.771c0.41,0.406,0.979,0.609,1.707,0.609
	c0.309,0,0.621-0.04,0.938-0.119s0.625-0.222,0.924-0.428c0.215-0.14,0.395-0.168,0.539-0.084s0.22,0.213,0.224,0.386
	c0.005,0.173-0.091,0.324-0.287,0.455c-0.308,0.224-0.674,0.396-1.099,0.518S264.179,52.035,263.778,52.035z M263.596,45.819
	c-0.645,0-1.152,0.201-1.525,0.603c-0.374,0.401-0.594,0.929-0.658,1.582h4.13c-0.028-0.691-0.208-1.228-0.539-1.61
	S264.203,45.819,263.596,45.819z M274.502,52.035c-0.803,0-1.405-0.212-1.807-0.637c-0.4-0.425-0.602-1.038-0.602-1.841v-3.57
	h-0.938c-0.328,0-0.49-0.149-0.49-0.448c0-0.289,0.162-0.434,0.49-0.434h0.938v-1.61c0-0.382,0.191-0.573,0.574-0.573
	c0.373,0,0.56,0.191,0.56,0.573v1.61h1.765c0.326,0,0.489,0.145,0.489,0.434c0,0.299-0.163,0.448-0.489,0.448h-1.765v3.458
	c0,0.532,0.112,0.937,0.336,1.211c0.224,0.275,0.589,0.413,1.093,0.413c0.177,0,0.326-0.019,0.447-0.056s0.229-0.056,0.322-0.056
	c0.084-0.01,0.154,0.019,0.21,0.084c0.056,0.064,0.084,0.177,0.084,0.336c0,0.111-0.021,0.215-0.063,0.308
	c-0.041,0.094-0.114,0.159-0.217,0.196c-0.111,0.037-0.259,0.072-0.441,0.104C274.817,52.02,274.651,52.035,274.502,52.035z
	 M279.081,52.035c-1.634,0-2.45-0.9-2.45-2.701v-3.753c0-0.382,0.187-0.573,0.56-0.573c0.383,0,0.574,0.191,0.574,0.573v3.738
	c0,0.607,0.123,1.055,0.371,1.344c0.247,0.29,0.637,0.435,1.169,0.435c0.579,0,1.05-0.193,1.414-0.581s0.546-0.903,0.546-1.547
	v-3.389c0-0.382,0.191-0.573,0.574-0.573c0.373,0,0.561,0.191,0.561,0.573v5.839c0,0.392-0.183,0.588-0.547,0.588
	c-0.373,0-0.561-0.196-0.561-0.588v-0.658c-0.214,0.41-0.516,0.726-0.902,0.944C280.002,51.926,279.565,52.035,279.081,52.035z
	 M291.583,52.035c-0.532,0-1.004-0.118-1.414-0.356c-0.411-0.238-0.715-0.567-0.91-0.987v0.729c0,0.392-0.188,0.588-0.561,0.588
	s-0.56-0.196-0.56-0.588v-8.904c0-0.383,0.187-0.574,0.56-0.574c0.383,0,0.574,0.191,0.574,0.574v3.766
	c0.196-0.401,0.5-0.719,0.91-0.952c0.41-0.232,0.877-0.35,1.4-0.35c0.606,0,1.136,0.143,1.589,0.427
	c0.452,0.285,0.802,0.691,1.05,1.219c0.247,0.527,0.371,1.154,0.371,1.883c0,0.719-0.124,1.342-0.371,1.869
	c-0.248,0.527-0.598,0.936-1.05,1.225C292.718,51.891,292.189,52.035,291.583,52.035z M291.344,51.126
	c0.635,0,1.143-0.227,1.525-0.68c0.383-0.452,0.574-1.099,0.574-1.938c0-0.85-0.191-1.498-0.574-1.946s-0.891-0.672-1.525-0.672
	s-1.144,0.224-1.525,0.672c-0.383,0.448-0.574,1.097-0.574,1.946c0,0.84,0.191,1.486,0.574,1.938
	C290.201,50.899,290.709,51.126,291.344,51.126z M299.128,52.035c-0.663,0-1.237-0.145-1.722-0.434
	c-0.486-0.289-0.861-0.697-1.127-1.225c-0.267-0.527-0.399-1.15-0.399-1.869s0.133-1.342,0.399-1.869
	c0.266-0.527,0.641-0.936,1.127-1.226c0.484-0.289,1.059-0.434,1.722-0.434c0.653,0,1.225,0.145,1.715,0.434
	c0.49,0.29,0.868,0.698,1.134,1.226s0.399,1.15,0.399,1.869s-0.134,1.342-0.399,1.869s-0.644,0.936-1.134,1.225
	S299.782,52.035,299.128,52.035z M299.128,51.126c0.634,0,1.143-0.227,1.525-0.68c0.383-0.452,0.574-1.099,0.574-1.938
	c0-0.85-0.191-1.498-0.574-1.946s-0.892-0.672-1.525-0.672c-0.645,0-1.155,0.224-1.533,0.672s-0.567,1.097-0.567,1.946
	c0,0.84,0.189,1.486,0.567,1.938C297.973,50.899,298.484,51.126,299.128,51.126z M306.968,52.035c-0.682,0-1.27-0.146-1.765-0.44
	c-0.494-0.294-0.875-0.709-1.141-1.246s-0.398-1.164-0.398-1.883c0-1.083,0.294-1.935,0.882-2.556
	c0.588-0.62,1.395-0.931,2.422-0.931c0.336,0,0.686,0.054,1.05,0.161s0.695,0.282,0.994,0.524c0.158,0.112,0.227,0.253,0.203,0.421
	s-0.104,0.294-0.238,0.378c-0.136,0.084-0.292,0.065-0.469-0.057c-0.252-0.187-0.502-0.316-0.749-0.392
	c-0.247-0.074-0.488-0.112-0.721-0.112c-0.71,0-1.256,0.222-1.639,0.665s-0.574,1.081-0.574,1.911c0,0.812,0.191,1.454,0.574,1.925
	c0.383,0.472,0.929,0.707,1.639,0.707c0.232,0,0.474-0.037,0.721-0.111c0.247-0.075,0.497-0.206,0.749-0.393
	c0.177-0.121,0.331-0.138,0.462-0.049s0.203,0.217,0.217,0.385s-0.054,0.304-0.203,0.406c-0.299,0.243-0.625,0.418-0.979,0.525
	C307.649,51.981,307.304,52.035,306.968,52.035z M312.651,52.035c-0.467,0-0.885-0.091-1.253-0.272
	c-0.369-0.183-0.661-0.432-0.875-0.749c-0.215-0.317-0.322-0.672-0.322-1.064c0-0.494,0.128-0.887,0.385-1.176
	s0.682-0.497,1.274-0.623s1.402-0.188,2.429-0.188h0.448v-0.435c0-0.578-0.119-0.996-0.357-1.253s-0.618-0.385-1.141-0.385
	c-0.327,0-0.656,0.042-0.987,0.126s-0.674,0.22-1.029,0.406c-0.158,0.084-0.291,0.1-0.398,0.049
	c-0.107-0.052-0.183-0.136-0.224-0.252c-0.043-0.117-0.043-0.238,0-0.364c0.041-0.126,0.133-0.222,0.272-0.287
	c0.401-0.205,0.805-0.354,1.211-0.448c0.406-0.093,0.791-0.14,1.155-0.14c0.877,0,1.528,0.215,1.953,0.645
	c0.424,0.429,0.637,1.097,0.637,2.002v3.794c0,0.392-0.173,0.588-0.518,0.588c-0.364,0-0.547-0.196-0.547-0.588v-0.687
	c-0.177,0.401-0.45,0.719-0.818,0.952C313.577,51.919,313.145,52.035,312.651,52.035z M312.833,51.182
	c0.561,0,1.018-0.193,1.372-0.581s0.532-0.88,0.532-1.477v-0.421h-0.435c-0.756,0-1.351,0.035-1.784,0.105
	c-0.435,0.07-0.738,0.191-0.91,0.364c-0.173,0.173-0.26,0.408-0.26,0.707c0,0.383,0.134,0.695,0.399,0.938
	C312.013,51.061,312.375,51.182,312.833,51.182z M323.949,52.035c-1.634,0-2.45-0.9-2.45-2.701v-3.753
	c0-0.382,0.187-0.573,0.56-0.573c0.383,0,0.574,0.191,0.574,0.573v3.738c0,0.607,0.124,1.055,0.371,1.344
	c0.247,0.29,0.637,0.435,1.169,0.435c0.579,0,1.05-0.193,1.414-0.581s0.546-0.903,0.546-1.547v-3.389
	c0-0.382,0.191-0.573,0.574-0.573c0.373,0,0.56,0.191,0.56,0.573v5.839c0,0.392-0.182,0.588-0.546,0.588
	c-0.373,0-0.56-0.196-0.56-0.588v-0.658c-0.215,0.41-0.516,0.726-0.903,0.944C324.87,51.926,324.434,52.035,323.949,52.035z
	 M330.529,51.42c0,0.392-0.191,0.588-0.574,0.588c-0.373,0-0.56-0.196-0.56-0.588v-5.839c0-0.382,0.182-0.573,0.546-0.573
	c0.373,0,0.56,0.191,0.56,0.573v0.687c0.225-0.43,0.541-0.751,0.952-0.966c0.41-0.215,0.872-0.322,1.386-0.322
	c1.615,0,2.422,0.896,2.422,2.688v3.752c0,0.392-0.187,0.588-0.56,0.588c-0.383,0-0.574-0.196-0.574-0.588v-3.683
	c0-0.635-0.124-1.099-0.371-1.393s-0.642-0.441-1.183-0.441c-0.626,0-1.123,0.194-1.491,0.581c-0.369,0.388-0.553,0.903-0.553,1.547
	V51.42L330.529,51.42z M339.489,52.035c-0.467,0-0.885-0.091-1.253-0.272c-0.369-0.183-0.661-0.432-0.875-0.749
	c-0.215-0.317-0.322-0.672-0.322-1.064c0-0.494,0.128-0.887,0.385-1.176s0.682-0.497,1.274-0.623s1.402-0.188,2.429-0.188h0.448
	v-0.435c0-0.578-0.119-0.996-0.357-1.253s-0.618-0.385-1.141-0.385c-0.327,0-0.656,0.042-0.987,0.126s-0.674,0.22-1.029,0.406
	c-0.158,0.084-0.291,0.1-0.398,0.049c-0.107-0.052-0.183-0.136-0.224-0.252c-0.043-0.117-0.043-0.238,0-0.364
	c0.041-0.126,0.133-0.222,0.272-0.287c0.401-0.205,0.805-0.354,1.211-0.448c0.406-0.093,0.791-0.14,1.155-0.14
	c0.877,0,1.528,0.215,1.953,0.645c0.424,0.429,0.637,1.097,0.637,2.002v3.794c0,0.392-0.173,0.588-0.518,0.588
	c-0.364,0-0.547-0.196-0.547-0.588v-0.687c-0.177,0.401-0.45,0.719-0.818,0.952C340.415,51.919,339.983,52.035,339.489,52.035z
	 M339.67,51.182c0.561,0,1.018-0.193,1.372-0.581s0.532-0.88,0.532-1.477v-0.421h-0.435c-0.756,0-1.351,0.035-1.784,0.105
	c-0.435,0.07-0.738,0.191-0.91,0.364c-0.173,0.173-0.26,0.408-0.26,0.707c0,0.383,0.134,0.695,0.399,0.938
	C338.851,51.061,339.213,51.182,339.67,51.182z M349.876,51.42c0,0.392-0.191,0.588-0.574,0.588c-0.373,0-0.56-0.196-0.56-0.588
	v-5.433h-0.896c-0.326,0-0.49-0.149-0.49-0.448c0-0.289,0.164-0.434,0.49-0.434h0.896v-0.238c0-1.745,0.854-2.692,2.562-2.842
	l0.406-0.042c0.168-0.009,0.289,0.028,0.364,0.112c0.074,0.084,0.114,0.185,0.119,0.301c0.004,0.117-0.026,0.222-0.092,0.315
	c-0.065,0.093-0.158,0.145-0.279,0.153l-0.322,0.028c-0.569,0.047-0.982,0.22-1.239,0.518c-0.257,0.299-0.385,0.738-0.385,1.316
	v0.378h1.512c0.327,0,0.49,0.145,0.49,0.434c0,0.299-0.163,0.448-0.49,0.448h-1.512V51.42L349.876,51.42z M355.113,52.035
	c-0.673,0-1.186-0.202-1.54-0.608c-0.355-0.406-0.532-0.996-0.532-1.771v-7.14c0-0.383,0.187-0.574,0.56-0.574
	c0.383,0,0.574,0.191,0.574,0.574v7.056c0,0.999,0.396,1.498,1.19,1.498c0.084,0,0.158-0.004,0.224-0.014s0.131-0.014,0.196-0.014
	c0.103-0.01,0.175,0.014,0.217,0.069c0.042,0.057,0.062,0.168,0.062,0.336c0,0.317-0.158,0.499-0.476,0.546
	c-0.075,0.019-0.154,0.03-0.238,0.035S355.187,52.035,355.113,52.035z M359.942,52.035c-0.662,0-1.236-0.145-1.722-0.434
	s-0.861-0.697-1.127-1.225s-0.399-1.15-0.399-1.869s0.134-1.342,0.399-1.869s0.642-0.936,1.127-1.226
	c0.485-0.289,1.06-0.434,1.722-0.434c0.653,0,1.226,0.145,1.716,0.434c0.489,0.29,0.867,0.698,1.134,1.226
	c0.266,0.527,0.398,1.15,0.398,1.869s-0.133,1.342-0.398,1.869c-0.267,0.527-0.645,0.936-1.134,1.225
	C361.167,51.891,360.595,52.035,359.942,52.035z M359.942,51.126c0.635,0,1.144-0.227,1.526-0.68
	c0.383-0.452,0.574-1.099,0.574-1.938c0-0.85-0.191-1.498-0.574-1.946s-0.892-0.672-1.526-0.672c-0.644,0-1.154,0.224-1.532,0.672
	s-0.567,1.097-0.567,1.946c0,0.84,0.189,1.486,0.567,1.938C358.788,50.899,359.298,51.126,359.942,51.126z M366.046,51.42
	c0,0.392-0.191,0.588-0.574,0.588s-0.574-0.196-0.574-0.588v-5.839c0-0.382,0.183-0.573,0.546-0.573
	c0.374,0,0.561,0.191,0.561,0.573v0.742c0.187-0.429,0.476-0.758,0.868-0.986c0.392-0.229,0.858-0.353,1.399-0.371
	c0.299-0.028,0.458,0.121,0.477,0.447c0.027,0.327-0.141,0.509-0.504,0.547l-0.225,0.027c-0.644,0.057-1.134,0.259-1.47,0.609
	c-0.336,0.35-0.504,0.828-0.504,1.435V51.42L366.046,51.42z M376.35,52.035c-0.663,0-1.236-0.145-1.722-0.434
	s-0.861-0.697-1.127-1.225c-0.267-0.527-0.399-1.15-0.399-1.869s0.133-1.342,0.399-1.869c0.266-0.527,0.642-0.936,1.127-1.226
	c0.485-0.289,1.059-0.434,1.722-0.434c0.653,0,1.226,0.145,1.715,0.434c0.49,0.29,0.868,0.698,1.135,1.226
	c0.266,0.527,0.398,1.15,0.398,1.869s-0.133,1.342-0.398,1.869c-0.267,0.527-0.645,0.936-1.135,1.225
	C377.576,51.891,377.003,52.035,376.35,52.035z M376.35,51.126c0.635,0,1.144-0.227,1.526-0.68c0.383-0.452,0.574-1.099,0.574-1.938
	c0-0.85-0.191-1.498-0.574-1.946s-0.892-0.672-1.526-0.672c-0.644,0-1.155,0.224-1.533,0.672s-0.566,1.097-0.566,1.946
	c0,0.84,0.188,1.486,0.566,1.938C375.195,50.899,375.707,51.126,376.35,51.126z"/>
<text transform="matrix(1 0 0 1 0.9321 69.9131)"><tspan x="0" y="0" font-family="'Nunito-Regular'" font-size="14">una pied</tspan><tspan x="51.351" y="0" font-family="'Nunito-Regular'" font-size="14">r</tspan><tspan x="55.873" y="0" font-family="'Nunito-Regular'" font-size="14">a p</tspan><tspan x="73.555" y="0" font-family="'Nunito-Regular'" font-size="14">r</tspan><tspan x="78.049" y="0" font-family="'Nunito-Regular'" font-size="14">eciosa.</tspan></text>
<text transform="matrix(1 0 0 1 0.9321 96.415)"><tspan x="0" y="0" font-family="'Nunito-Regular'" font-size="14">C</tspan><tspan x="7.98" y="0" font-family="'Nunito-Regular'" font-size="14">uando la hermosa j</tspan><tspan x="119.167" y="0" font-family="'Nunito-Regular'" font-size="14">o</tspan><tspan x="126.754" y="0" font-family="'Nunito-Regular'" font-size="14">v</tspan><tspan x="133.404" y="0" font-family="'Nunito-Regular'" font-size="14">en l</tspan><tspan x="154.459" y="0" font-family="'Nunito-Regular'" font-size="14">l</tspan><tspan x="157.708" y="0" font-family="'Nunito-Regular'" font-size="14">egó a </tspan><tspan x="192.917" y="0" font-family="'Nunito-Regular'" font-size="14">c</tspan><tspan x="199.147" y="0" font-family="'Nunito-Regular'" font-size="14">asa, su mad</tspan><tspan x="266.598" y="0" font-family="'Nunito-Regular'" font-size="14">r</tspan><tspan x="271.092" y="0" font-family="'Nunito-Regular'" font-size="14">e la </tspan><tspan x="294.093" y="0" font-family="'Nunito-Regular'" font-size="14">r</tspan><tspan x="298.602" y="0" font-family="'Nunito-Regular'" font-size="14">ep</tspan><tspan x="313.581" y="0" font-family="'Nunito-Regular'" font-size="14">r</tspan><tspan x="318.089" y="0" font-family="'Nunito-Regular'" font-size="14">endió </tspan></text>
<text transform="matrix(1 0 0 1 0.9321 114.4199)"><tspan x="0" y="0" font-family="'Nunito-Regular'" font-size="14">por </tspan><tspan x="23.198" y="0" font-family="'Nunito-Regular'" font-size="14">r</tspan><tspan x="27.706" y="0" font-family="'Nunito-Regular'" font-size="14">eg</tspan><tspan x="42.545" y="0" font-family="'Nunito-Regular'" font-size="14">r</tspan><tspan x="47.039" y="0" font-family="'Nunito-Regular'" font-size="14">esar tan ta</tspan><tspan x="107.392" y="0" font-family="'Nunito-Regular'" font-size="14">r</tspan><tspan x="111.9" y="0" font-family="'Nunito-Regular'" font-size="14">de de la fuen</tspan><tspan x="187.261" y="0" font-family="'Nunito-Regular'" font-size="14">t</tspan><tspan x="191.825" y="0" font-family="'Nunito-Regular'" font-size="14">e.</tspan></text>
<text transform="matrix(1 0 0 1 0.9321 140.9219)"><tspan x="0" y="0" font-family="'Nunito-Regular'" font-size="14">—</tspan><tspan x="14" y="0" font-family="'Nunito-Regular'" font-size="14">P</tspan><tspan x="21.14" y="0" font-family="'Nunito-Regular'" font-size="14">e</tspan><tspan x="28.154" y="0" font-family="'Nunito-Regular'" font-size="14">r</tspan><tspan x="32.662" y="0" font-family="'Nunito-Regular'" font-size="14">dón, mad</tspan><tspan x="88.199" y="0" font-family="'Nunito-Regular'" font-size="14">r</tspan><tspan x="92.693" y="0" font-family="'Nunito-Regular'" font-size="14">e mía, por haberme demo</tspan><tspan x="243.442" y="0" font-family="'Nunito-Regular'" font-size="14">r</tspan><tspan x="247.95" y="0" font-family="'Nunito-Regular'" font-size="14">ado</tspan></text>
<text transform="matrix(1 0 0 1 0.9321 167.4238)"><tspan x="0" y="0" font-family="'Nunito-Regular'" font-size="14">— dijo la pob</tspan><tspan x="78.833" y="0" font-family="'Nunito-Regular'" font-size="14">r</tspan><tspan x="83.327" y="0" font-family="'Nunito-Regular'" font-size="14">e muchacha; y al decir e</tspan><tspan x="221.742" y="0" font-family="'Nunito-Regular'" font-size="14">s</tspan><tspan x="227.216" y="0" font-family="'Nunito-Regular'" font-size="14">tas palab</tspan><tspan x="279.841" y="0" font-family="'Nunito-Regular'" font-size="14">r</tspan><tspan x="284.363" y="0" font-family="'Nunito-Regular'" font-size="14">as </tspan><tspan x="299.623" y="0" font-family="'Nunito-Regular'" font-size="14">l</tspan><tspan x="302.856" y="0" font-family="'Nunito-Regular'" font-size="14">e salie</tspan><tspan x="338.725" y="0" font-family="'Nunito-Regular'" font-size="14">r</tspan><tspan x="343.232" y="0" font-family="'Nunito-Regular'" font-size="14">on </tspan></text>
<text transform="matrix(1 0 0 1 0.9321 185.4277)"><tspan x="0" y="0" font-family="'Nunito-Regular'" font-size="14">de la bo</tspan><tspan x="46.549" y="0" font-family="'Nunito-Regular'" font-size="14">c</tspan><tspan x="52.779" y="0" font-family="'Nunito-Regular'" font-size="14">a dos </tspan><tspan x="86.588" y="0" font-family="'Nunito-Regular'" font-size="14">r</tspan><tspan x="91.083" y="0" font-family="'Nunito-Regular'" font-size="14">osa</tspan><tspan x="111.061" y="0" font-family="'Nunito-Regular'" font-size="14">s</tspan><tspan x="116.548" y="0" font-family="'Nunito-Regular'" font-size="14">, dos perlas y dos enormes diaman</tspan><tspan x="316.647" y="0" font-family="'Nunito-Regular'" font-size="14">t</tspan><tspan x="321.211" y="0" font-family="'Nunito-Regular'" font-size="14">e</tspan><tspan x="328.225" y="0" font-family="'Nunito-Regular'" font-size="14">s</tspan><tspan x="333.713" y="0" font-family="'Nunito-Regular'" font-size="14">.</tspan></text>
</svg>
