<?xml version="1.0" encoding="utf-8"?>
<!-- Generator: Adobe Illustrator 15.1.0, SVG Export Plug-In . SVG Version: 6.00 Build 0)  -->
<!DOCTYPE svg PUBLIC "-//W3C//DTD SVG 1.1//EN" "http://www.w3.org/Graphics/SVG/1.1/DTD/svg11.dtd">
<svg version="1.1" id="Capa_1" xmlns="http://www.w3.org/2000/svg" xmlns:xlink="http://www.w3.org/1999/xlink" x="0px" y="0px"
	 width="256.6px" height="36.9px" viewBox="0 0 256.6 36.9" style="enable-background:new 0 0 256.6 36.9;" xml:space="preserve">
<style type="text/css">
<![CDATA[
	.st0{fill:#F4D7E0;}
	.st1{clip-path:url(#SVGID_10_);fill:none;stroke:#878787;stroke-width:1.5;stroke-miterlimit:10;}
	.st2{clip-path:url(#SVGID_2_);fill:none;stroke:#878787;stroke-width:1.5;stroke-miterlimit:10;}
	.st3{fill:#FFFFFF;}
	.st4{clip-path:url(#SVGID_12_);fill:none;stroke:#878787;stroke-width:1.5;stroke-miterlimit:10;}
	.st5{clip-path:url(#SVGID_4_);fill:none;stroke:#878787;stroke-width:1.5;stroke-miterlimit:10;}
	.st6{clip-path:url(#SVGID_14_);fill:none;stroke:#878787;stroke-width:1.5;stroke-miterlimit:10;}
	.st7{clip-path:url(#SVGID_6_);fill:none;stroke:#878787;stroke-width:1.5;stroke-miterlimit:10;}
	.st8{clip-path:url(#SVGID_18_);fill:none;stroke:#1C9BD7;stroke-width:2;stroke-linecap:round;stroke-linejoin:round;}
	.st9{clip-path:url(#SVGID_16_);fill:none;stroke:#878787;stroke-width:1.5;stroke-miterlimit:10;}
	.st10{clip-path:url(#SVGID_8_);fill:none;stroke:#878787;stroke-width:1.5;stroke-miterlimit:10;}
	.st11{clip-path:url(#SVGID_20_);}
	.st12{clip-path:url(#SVGID_22_);}
	.st13{clip-path:url(#SVGID_24_);}
	.st14{fill:none;stroke:#878787;stroke-width:1.5;stroke-miterlimit:10;}
	.st15{clip-path:url(#SVGID_18_);fill:none;stroke:#878787;stroke-width:1.5;stroke-miterlimit:10;}
]]>
</style>
<g>
	<path class="st0" d="M0.8,36.1h25.5V10.6H0.8V36.1z M26.3,36.1h25.5V10.6H26.3V36.1z M51.8,36.1h25.5V10.6H51.8V36.1z M77.3,36.1
		h25.5V10.6H77.3V36.1z M102.8,36.1h25.5V10.6h-25.5V36.1z M128.3,36.1h25.5V10.6h-25.5V36.1z M153.8,36.1h25.5V10.6h-25.5V36.1z
		 M179.3,36.1h25.5V10.6h-25.5V36.1z"/>
	<path class="st3" d="M204.8,36.1h25.5V10.6h-25.5V36.1z M230.4,36.1h25.5V10.6h-25.5V36.1z"/>
	<g>
		<defs>
			<rect id="SVGID_1_" width="256.6" height="36.9"/>
		</defs>
		<clipPath id="SVGID_2_">
			<use xlink:href="#SVGID_1_"  style="overflow:visible;"/>
		</clipPath>
		<line class="st2" x1="0" y1="10.6" x2="26.3" y2="10.6"/>
		<line class="st2" x1="0.8" y1="35.4" x2="0.8" y2="11.4"/>
	</g>
	<line class="st14" x1="26.3" y1="10.6" x2="51.8" y2="10.6"/>
	<g>
		<defs>
			<rect id="SVGID_3_" width="256.6" height="36.9"/>
		</defs>
		<clipPath id="SVGID_4_">
			<use xlink:href="#SVGID_3_"  style="overflow:visible;"/>
		</clipPath>
		<line class="st5" x1="26.3" y1="35.4" x2="26.3" y2="11.4"/>
	</g>
	<line class="st14" x1="51.8" y1="10.6" x2="77.3" y2="10.6"/>
	<g>
		<defs>
			<rect id="SVGID_5_" width="256.6" height="36.9"/>
		</defs>
		<clipPath id="SVGID_6_">
			<use xlink:href="#SVGID_5_"  style="overflow:visible;"/>
		</clipPath>
		<line class="st7" x1="51.8" y1="35.4" x2="51.8" y2="11.4"/>
	</g>
	<line class="st14" x1="77.3" y1="10.6" x2="102.8" y2="10.6"/>
	<g>
		<defs>
			<rect id="SVGID_7_" width="256.6" height="36.9"/>
		</defs>
		<clipPath id="SVGID_8_">
			<use xlink:href="#SVGID_7_"  style="overflow:visible;"/>
		</clipPath>
		<line class="st10" x1="77.3" y1="35.4" x2="77.3" y2="11.4"/>
	</g>
	<line class="st14" x1="102.8" y1="10.6" x2="128.3" y2="10.6"/>
	<g>
		<defs>
			<rect id="SVGID_9_" width="256.6" height="36.9"/>
		</defs>
		<clipPath id="SVGID_10_">
			<use xlink:href="#SVGID_9_"  style="overflow:visible;"/>
		</clipPath>
		<line class="st1" x1="102.8" y1="35.4" x2="102.8" y2="11.4"/>
	</g>
	<line class="st14" x1="128.3" y1="10.6" x2="153.8" y2="10.6"/>
	<g>
		<defs>
			<rect id="SVGID_11_" width="256.6" height="36.9"/>
		</defs>
		<clipPath id="SVGID_12_">
			<use xlink:href="#SVGID_11_"  style="overflow:visible;"/>
		</clipPath>
		<line class="st4" x1="128.3" y1="35.4" x2="128.3" y2="11.4"/>
	</g>
	<line class="st14" x1="153.8" y1="10.6" x2="179.3" y2="10.6"/>
	<g>
		<defs>
			<rect id="SVGID_13_" width="256.6" height="36.9"/>
		</defs>
		<clipPath id="SVGID_14_">
			<use xlink:href="#SVGID_13_"  style="overflow:visible;"/>
		</clipPath>
		<line class="st6" x1="153.8" y1="35.4" x2="153.8" y2="11.4"/>
	</g>
	<line class="st14" x1="179.3" y1="10.6" x2="204.8" y2="10.6"/>
	<g>
		<defs>
			<rect id="SVGID_15_" width="256.6" height="36.9"/>
		</defs>
		<clipPath id="SVGID_16_">
			<use xlink:href="#SVGID_15_"  style="overflow:visible;"/>
		</clipPath>
		<line class="st9" x1="179.3" y1="35.4" x2="179.3" y2="11.4"/>
	</g>
	<line class="st14" x1="204.8" y1="10.6" x2="230.4" y2="10.6"/>
	<g>
		<defs>
			<rect id="SVGID_17_" width="256.6" height="36.9"/>
		</defs>
		<clipPath id="SVGID_18_">
			<use xlink:href="#SVGID_17_"  style="overflow:visible;"/>
		</clipPath>
		<line class="st15" x1="204.8" y1="35.4" x2="204.8" y2="11.4"/>
		<line class="st15" x1="230.4" y1="10.6" x2="256.6" y2="10.6"/>
		<line class="st15" x1="230.4" y1="35.4" x2="230.4" y2="11.4"/>
		<line class="st15" x1="255.9" y1="35.4" x2="255.9" y2="11.4"/>
		<line class="st15" x1="0" y1="36.1" x2="26.3" y2="36.1"/>
		<line class="st15" x1="26.3" y1="36.1" x2="51.8" y2="36.1"/>
		<line class="st15" x1="51.8" y1="36.1" x2="77.3" y2="36.1"/>
		<line class="st15" x1="77.3" y1="36.1" x2="102.8" y2="36.1"/>
		<line class="st15" x1="102.8" y1="36.1" x2="128.3" y2="36.1"/>
		<line class="st15" x1="128.3" y1="36.1" x2="153.8" y2="36.1"/>
		<line class="st15" x1="153.8" y1="36.1" x2="179.3" y2="36.1"/>
		<line class="st15" x1="179.3" y1="36.1" x2="204.8" y2="36.1"/>
		<line class="st15" x1="204.8" y1="36.1" x2="230.4" y2="36.1"/>
		<line class="st15" x1="230.4" y1="36.1" x2="256.6" y2="36.1"/>
		<path class="st8" d="M13.4,7.2c0,0,7.1-13.9,17.9-0.1"/>
		<polyline class="st8" points="31.9,0.2 31.3,7.1 24.5,6 		"/>
		<path class="st8" d="M40.3,7.2c0,0,7.1-13.9,17.9-0.1"/>
		<polyline class="st8" points="58.8,0.2 58.3,7.1 51.4,6 		"/>
		<path class="st8" d="M67.3,7.2c0,0,7.1-13.9,17.9-0.1"/>
		<polyline class="st8" points="85.8,0.2 85.2,7.1 78.3,6 		"/>
		<path class="st8" d="M94.2,7.2c0,0,7.1-13.9,17.9-0.1"/>
		<polyline class="st8" points="112.7,0.2 112.1,7.1 105.3,6 		"/>
		<path class="st8" d="M121.1,7.2c0,0,7.1-13.9,17.9-0.1"/>
		<polyline class="st8" points="139.6,0.2 139,7.1 132.2,6 		"/>
		<path class="st8" d="M148.1,7.2c0,0,7.1-13.9,17.9-0.1"/>
		<polyline class="st8" points="166.5,0.2 166,7.1 159.1,6 		"/>
		<path class="st8" d="M175,7.2c0,0,7.1-13.9,17.9-0.1"/>
		<polyline class="st8" points="193.5,0.2 192.9,7.1 186,6 		"/>
	</g>
	<g>
		<defs>
			<rect id="SVGID_19_" x="10" y="16.9" width="242.1" height="12.9"/>
		</defs>
		<clipPath id="SVGID_20_">
			<use xlink:href="#SVGID_19_"  style="overflow:visible;"/>
		</clipPath>
		<path class="st11" d="M247.5,28.5c-1.9,0-3-1.9-3-5.1c0-3.2,1.1-5.1,3-5.1c1.9,0,3,1.9,3,5.1C250.5,26.6,249.4,28.5,247.5,28.5
			 M247.5,29.8c2.9,0,4.7-2.4,4.7-6.5c0-4-1.8-6.5-4.7-6.5c-2.9,0-4.6,2.4-4.6,6.5C242.9,27.4,244.6,29.8,247.5,29.8 M237.7,18.9
			v10.7h1.6V17.1H238l-4.1,2.1l0.6,1.4L237.7,18.9L237.7,18.9z"/>
		<path class="st11" d="M217.3,23.6c-1.5,0-2.6-1-2.6-2.5c0-1.8,1.4-2.8,2.8-2.8c1.8,0,2.6,1.5,2.6,2.8
			C220.1,22.5,218.8,23.6,217.3,23.6 M221.9,29.7v-7.3c0-3.5-1.7-5.4-4.4-5.4c-2.5,0-4.4,1.6-4.4,4.1c0,2.4,1.7,3.9,3.9,3.9
			c1.4,0,2.4-0.6,3.1-1.5l0.1,0v6.2H221.9z"/>
		<path class="st11" d="M192.1,28.6c-1.4,0-2.8-0.9-2.8-2.5c0-1.4,1-2.5,2.8-2.5c1.8,0,2.8,1.1,2.8,2.5
			C194.9,27.7,193.5,28.6,192.1,28.6 M192.1,22.3c-1.2,0-2.4-0.7-2.4-2.1c0-1.2,0.8-2,2.4-2c1.5,0,2.4,0.8,2.4,2
			C194.5,21.6,193.3,22.3,192.1,22.3 M192.1,29.8c2.4,0,4.5-1.3,4.5-3.6c0-1.5-0.8-2.9-2.3-3.3v-0.1c0.9-0.4,1.7-1.4,1.7-2.7
			c0-1.8-1.5-3.2-3.9-3.2c-2.5,0-3.9,1.3-3.9,3.2c0,1.4,0.8,2.3,1.8,2.8V23c-1.5,0.4-2.3,1.7-2.3,3.3
			C187.7,28.6,189.7,29.8,192.1,29.8"/>
	</g>
	<polygon points="162.4,17.1 162.4,18.5 168.9,18.5 169,18.6 166.7,23.4 164.2,23.4 164.2,24.7 166,24.7 163.6,29.7 165.5,29.7 
		167.8,24.7 170,24.7 170,23.4 168.5,23.4 170.8,18.5 170.8,17.1 	"/>
	<g>
		<defs>
			<rect id="SVGID_21_" x="10" y="16.9" width="242.1" height="12.9"/>
		</defs>
		<clipPath id="SVGID_22_">
			<use xlink:href="#SVGID_21_"  style="overflow:visible;"/>
		</clipPath>
		<path class="st12" d="M141.4,28.5c-1.8,0-2.7-1.6-2.7-2.8c0-1.3,1.3-2.4,2.9-2.4c1.5,0,2.5,0.9,2.5,2.4
			C144.1,27.4,142.8,28.5,141.4,28.5 M141.3,29.8c2.4,0,4.3-1.6,4.3-4.1c0-2.3-1.7-3.7-3.8-3.7c-1.4,0-2.5,0.6-3.2,1.5l-0.1,0
			c0.2-2.9,2.4-5.5,6-5l0.2-1.3c-4.6-0.7-7.9,2.8-7.9,7.4C136.8,27.7,138.6,29.8,141.3,29.8"/>
		<path class="st12" d="M115,29.8c2.9,0,4.7-1.7,4.7-4.2c0-2.5-1.7-3.9-4.4-3.9c-0.5,0-0.9,0.1-1.4,0.2l-0.1,0l0.4-3.3h4.8v-1.5H113
			l-0.8,5.9l0.7,0.5c0.6-0.3,1.3-0.4,2-0.4c2.1,0,3.1,0.9,3.1,2.6c0,1.7-1,2.8-3,2.8c-0.9,0-1.8-0.2-2.9-0.9l-0.6,1.3
			C112.5,29.5,113.7,29.8,115,29.8"/>
	</g>
	<polygon points="91.6,17.1 91.6,23.1 87.1,23.1 87.1,23.1 87.1,17.1 85.4,17.1 85.4,24.4 91.6,24.4 91.6,29.7 93.2,29.7 93.2,24.4 
		95.2,24.4 95.2,23.1 93.2,23.1 93.2,17.1 	"/>
	<g>
		<defs>
			<rect id="SVGID_23_" x="10" y="16.9" width="242.1" height="12.9"/>
		</defs>
		<clipPath id="SVGID_24_">
			<use xlink:href="#SVGID_23_"  style="overflow:visible;"/>
		</clipPath>
		<path class="st13" d="M63.8,29.8c2.9,0,4.6-1.6,4.6-3.7c0-1.7-1.1-2.8-2.6-3.2V23c1.3-0.5,2.2-1.5,2.2-2.9c0-1.8-1.5-3.1-3.8-3.1
			c-1.3,0-2.4,0.4-3.5,1.2l0.7,1.2c1-0.7,1.9-1,2.8-1c1.4,0,2.3,0.7,2.3,1.9c0,1.2-1.1,2.2-2.8,2.2h-0.9v1.4h0.9
			c2,0,3.1,0.8,3.1,2.3c0,1.4-1,2.4-2.9,2.4c-0.9,0-1.9-0.2-2.9-0.9l-0.6,1.3C61.4,29.5,62.5,29.8,63.8,29.8"/>
		<path class="st13" d="M35.1,28.4v1.3h7.7v-1.5h-5.6l0-0.1l3.7-4.3c1.2-1.3,1.8-2.3,1.8-3.6c0-1.9-1.4-3.3-3.8-3.3
			c-1.4,0-2.6,0.5-3.8,1.4l0.7,1.2c1.1-0.8,2.1-1.2,3.1-1.2c1.5,0,2.2,0.7,2.2,2c0,0.9-0.4,1.7-1.4,2.7L35.1,28.4z"/>
	</g>
	<polygon points="14.1,17.1 10,19.2 10.6,20.5 13.8,18.9 13.8,18.9 13.8,29.7 15.4,29.7 15.4,17.1 	"/>
</g>
</svg>
