<?xml version="1.0" encoding="utf-8"?>
<!-- Generator: Adobe Illustrator 24.3.1, SVG Export Plug-In . SVG Version: 6.00 Build 0)  -->
<svg version="1.1" id="Capa_1" xmlns="http://www.w3.org/2000/svg" xmlns:xlink="http://www.w3.org/1999/xlink" x="0px" y="0px"
	 viewBox="0 0 366.8 35" style="enable-background:new 0 0 366.8 35;" xml:space="preserve">
<style type="text/css">
	.st0{fill:#FFFFFF;}
	.st1{clip-path:url(#SVGID_2_);fill:#FFFFFF;}
	.st2{clip-path:url(#SVGID_4_);}
	.st3{clip-path:url(#SVGID_6_);fill:none;stroke:#575756;stroke-width:2;stroke-miterlimit:10;}
	.st4{clip-path:url(#SVGID_8_);fill:#FFFFFF;}
	.st5{clip-path:url(#SVGID_10_);}
	.st6{clip-path:url(#SVGID_12_);fill:none;stroke:#575756;stroke-width:2;stroke-miterlimit:10;}
	.st7{clip-path:url(#SVGID_14_);fill:#FFFFFF;}
	.st8{clip-path:url(#SVGID_16_);}
	.st9{clip-path:url(#SVGID_18_);fill:none;stroke:#575756;stroke-width:2;stroke-miterlimit:10;}
	.st10{clip-path:url(#SVGID_20_);fill:#FFFFFF;}
	.st11{clip-path:url(#SVGID_22_);}
	.st12{clip-path:url(#SVGID_24_);fill:none;stroke:#575756;stroke-width:2;stroke-miterlimit:10;}
	.st13{clip-path:url(#SVGID_26_);fill:#FFFFFF;}
	.st14{clip-path:url(#SVGID_28_);}
	.st15{clip-path:url(#SVGID_30_);fill:none;stroke:#575756;stroke-width:2;stroke-miterlimit:10;}
	.st16{clip-path:url(#SVGID_32_);fill:#FFFFFF;}
	.st17{clip-path:url(#SVGID_34_);}
	.st18{clip-path:url(#SVGID_36_);fill:none;stroke:#575756;stroke-width:2;stroke-miterlimit:10;}
	.st19{display:none;}
	.st20{display:inline;}
	.st21{display:inline;clip-path:url(#SVGID_38_);}
	.st22{clip-path:url(#SVGID_40_);}
	.st23{clip-path:url(#SVGID_42_);}
</style>
<rect y="1" class="st0" width="366.8" height="33.6"/>
<g>
	<g>
		<defs>
			<rect id="SVGID_1_" x="-9" y="-8" width="397.6" height="50.8"/>
		</defs>
		<clipPath id="SVGID_2_">
			<use xlink:href="#SVGID_1_"  style="overflow:visible;"/>
		</clipPath>
		<path class="st1" d="M6.7,2C6.7,2,1,2,1,7.7v20.7c0,0,0,5.7,5.7,5.7h20.7c0,0,5.7,0,5.7-5.7V7.7c0,0,0-5.7-5.7-5.7H6.7z"/>
	</g>
	<g>
		<defs>
			<rect id="SVGID_3_" x="-9" y="-8" width="397.6" height="50.8"/>
		</defs>
		<clipPath id="SVGID_4_">
			<use xlink:href="#SVGID_3_"  style="overflow:visible;"/>
		</clipPath>
		<path class="st2" d="M16.3,25.8c2.9,0,4.7-1.7,4.7-4.2s-1.7-3.9-4.4-3.9c-0.5,0-0.9,0.1-1.4,0.2h-0.1l0.4-3.3h4.8v-1.5h-6.1
			L13.5,19l0.7,0.4c0.6-0.3,1.3-0.4,2-0.4c2.1,0,3.1,0.9,3.1,2.6s-1,2.8-3,2.8c-0.9,0-1.8-0.2-2.9-0.9l-0.6,1.3
			C13.8,25.5,15,25.8,16.3,25.8"/>
	</g>
	<g>
		<defs>
			<rect id="SVGID_5_" x="-9" y="-8" width="397.6" height="50.8"/>
		</defs>
		<clipPath id="SVGID_6_">
			<use xlink:href="#SVGID_5_"  style="overflow:visible;"/>
		</clipPath>
		<path class="st3" d="M6.7,2C6.7,2,1,2,1,7.7v20.7c0,0,0,5.7,5.7,5.7h20.7c0,0,5.7,0,5.7-5.7V7.7c0,0,0-5.7-5.7-5.7H6.7z"/>
	</g>
	<g>
		<defs>
			<rect id="SVGID_7_" x="-9" y="-8" width="397.6" height="50.8"/>
		</defs>
		<clipPath id="SVGID_8_">
			<use xlink:href="#SVGID_7_"  style="overflow:visible;"/>
		</clipPath>
		<path class="st4" d="M130.5,2c0,0-5.7,0-5.7,5.7v20.7c0,0,0,5.7,5.7,5.7h32c0,0,5.7,0,5.7-5.7V7.7c0,0,0-5.7-5.7-5.7H130.5z"/>
	</g>
	<g>
		<defs>
			<rect id="SVGID_9_" x="-9" y="-8" width="397.6" height="50.8"/>
		</defs>
		<clipPath id="SVGID_10_">
			<use xlink:href="#SVGID_9_"  style="overflow:visible;"/>
		</clipPath>
		<path class="st5" d="M150.1,25.8c2.9,0,4.7-1.7,4.7-4.2s-1.7-3.9-4.4-3.9c-0.5,0-0.9,0.1-1.4,0.2h-0.1l0.4-3.3h4.8v-1.5H148
			l-0.8,5.9l0.7,0.4c0.6-0.3,1.3-0.4,2-0.4c2.1,0,3.1,0.9,3.1,2.6s-1,2.8-3,2.8c-0.9,0-1.8-0.2-2.9-0.9l-0.6,1.3
			C147.6,25.5,148.8,25.8,150.1,25.8 M141.4,14.9v10.7h1.6V13.1h-1.3l-4.1,2.1l0.6,1.4L141.4,14.9L141.4,14.9z"/>
	</g>
	<g>
		<defs>
			<rect id="SVGID_11_" x="-9" y="-8" width="397.6" height="50.8"/>
		</defs>
		<clipPath id="SVGID_12_">
			<use xlink:href="#SVGID_11_"  style="overflow:visible;"/>
		</clipPath>
		<path class="st6" d="M130.5,2c0,0-5.7,0-5.7,5.7v20.7c0,0,0,5.7,5.7,5.7h32c0,0,5.7,0,5.7-5.7V7.7c0,0,0-5.7-5.7-5.7H130.5z"/>
	</g>
	<g>
		<defs>
			<rect id="SVGID_13_" x="-9" y="-8" width="397.6" height="50.8"/>
		</defs>
		<clipPath id="SVGID_14_">
			<use xlink:href="#SVGID_13_"  style="overflow:visible;"/>
		</clipPath>
		<path class="st7" d="M65.3,2c0,0-5.7,0-5.7,5.7v20.7c0,0,0,5.7,5.7,5.7h32c0,0,5.7,0,5.7-5.7V7.7c0,0,0-5.7-5.7-5.7H65.3z"/>
	</g>
	<g>
		<defs>
			<rect id="SVGID_15_" x="-9" y="-8" width="397.6" height="50.8"/>
		</defs>
		<clipPath id="SVGID_16_">
			<use xlink:href="#SVGID_15_"  style="overflow:visible;"/>
		</clipPath>
		<path class="st8" d="M85.4,24.5c-1.9,0-3-1.9-3-5.1s1.1-5.1,3-5.1s3,1.9,3,5.1C88.4,22.5,87.3,24.5,85.4,24.5 M85.4,25.8
			c2.9,0,4.7-2.4,4.7-6.5c0-4-1.8-6.5-4.7-6.5c-2.9,0-4.6,2.4-4.6,6.5S82.6,25.8,85.4,25.8 M75.6,14.9v10.7h1.6V13.1h-1.3l-4.1,2.1
			l0.6,1.4L75.6,14.9L75.6,14.9z"/>
	</g>
	<g>
		<defs>
			<rect id="SVGID_17_" x="-9" y="-8" width="397.6" height="50.8"/>
		</defs>
		<clipPath id="SVGID_18_">
			<use xlink:href="#SVGID_17_"  style="overflow:visible;"/>
		</clipPath>
		<path class="st9" d="M65.3,2c0,0-5.7,0-5.7,5.7v20.7c0,0,0,5.7,5.7,5.7h32c0,0,5.7,0,5.7-5.7V7.7c0,0,0-5.7-5.7-5.7H65.3z"/>
	</g>
	<g>
		<defs>
			<rect id="SVGID_19_" x="-9" y="-8" width="397.6" height="50.8"/>
		</defs>
		<clipPath id="SVGID_20_">
			<use xlink:href="#SVGID_19_"  style="overflow:visible;"/>
		</clipPath>
		<path class="st10" d="M197.7,2c0,0-5.7,0-5.7,5.7v20.7c0,0,0,5.7,5.7,5.7h32c0,0,5.7,0,5.7-5.7V7.7c0,0,0-5.7-5.7-5.7H197.7z"/>
	</g>
	<g>
		<defs>
			<rect id="SVGID_21_" x="-9" y="-8" width="397.6" height="50.8"/>
		</defs>
		<clipPath id="SVGID_22_">
			<use xlink:href="#SVGID_21_"  style="overflow:visible;"/>
		</clipPath>
		<path class="st11" d="M218.5,24.5c-1.9,0-3-1.9-3-5.1s1.1-5.1,3-5.1s3,1.9,3,5.1C221.4,22.5,220.3,24.5,218.5,24.5 M218.5,25.8
			c2.9,0,4.7-2.4,4.7-6.5c0-4-1.8-6.5-4.7-6.5s-4.6,2.4-4.6,6.5C213.8,23.4,215.6,25.8,218.5,25.8 M203.7,24.4v1.3h7.7v-1.5h-5.6
			v-0.1l3.7-4.3c1.2-1.3,1.8-2.3,1.8-3.6c0-1.9-1.4-3.3-3.8-3.3c-1.4,0-2.6,0.5-3.8,1.4l0.7,1.2c1.1-0.8,2.1-1.2,3.1-1.2
			c1.5,0,2.2,0.7,2.2,2c0,0.9-0.4,1.7-1.3,2.7L203.7,24.4z"/>
	</g>
	<g>
		<defs>
			<rect id="SVGID_23_" x="-9" y="-8" width="397.6" height="50.8"/>
		</defs>
		<clipPath id="SVGID_24_">
			<use xlink:href="#SVGID_23_"  style="overflow:visible;"/>
		</clipPath>
		<path class="st12" d="M197.7,2c0,0-5.7,0-5.7,5.7v20.7c0,0,0,5.7,5.7,5.7h32c0,0,5.7,0,5.7-5.7V7.7c0,0,0-5.7-5.7-5.7H197.7z"/>
	</g>
	<g>
		<defs>
			<rect id="SVGID_25_" x="-9" y="-8" width="397.6" height="50.8"/>
		</defs>
		<clipPath id="SVGID_26_">
			<use xlink:href="#SVGID_25_"  style="overflow:visible;"/>
		</clipPath>
		<path class="st13" d="M262.8,2c0,0-5.7,0-5.7,5.7v20.7c0,0,0,5.7,5.7,5.7h32c0,0,5.7,0,5.7-5.7V7.7c0,0,0-5.7-5.7-5.7H262.8z"/>
	</g>
	<g>
		<defs>
			<rect id="SVGID_27_" x="-9" y="-8" width="397.6" height="50.8"/>
		</defs>
		<clipPath id="SVGID_28_">
			<use xlink:href="#SVGID_27_"  style="overflow:visible;"/>
		</clipPath>
		<path class="st14" d="M283,25.8c2.9,0,4.7-1.7,4.7-4.2s-1.7-3.9-4.4-3.9c-0.5,0-0.9,0.1-1.4,0.2h-0.1l0.4-3.3h4.8v-1.5h-6.1
			l-0.8,5.9l0.7,0.4c0.6-0.3,1.3-0.4,2-0.4c2.1,0,3.1,0.9,3.1,2.6s-1,2.8-3,2.8c-0.9,0-1.8-0.2-2.9-0.9l-0.6,1.3
			C280.5,25.5,281.7,25.8,283,25.8 M269.3,24.4v1.3h7.7v-1.5h-5.6v-0.1l3.7-4.3c1.2-1.3,1.8-2.3,1.8-3.6c0-1.9-1.4-3.3-3.8-3.3
			c-1.4,0-2.6,0.5-3.8,1.4l0.7,1.2c1.1-0.8,2.1-1.2,3.1-1.2c1.5,0,2.2,0.7,2.2,2c0,0.9-0.4,1.7-1.4,2.7L269.3,24.4z"/>
	</g>
	<g>
		<defs>
			<rect id="SVGID_29_" x="-9" y="-8" width="397.6" height="50.8"/>
		</defs>
		<clipPath id="SVGID_30_">
			<use xlink:href="#SVGID_29_"  style="overflow:visible;"/>
		</clipPath>
		<path class="st15" d="M262.8,2c0,0-5.7,0-5.7,5.7v20.7c0,0,0,5.7,5.7,5.7h32c0,0,5.7,0,5.7-5.7V7.7c0,0,0-5.7-5.7-5.7H262.8z"/>
	</g>
	<g>
		<defs>
			<rect id="SVGID_31_" x="-9" y="-8" width="397.6" height="50.8"/>
		</defs>
		<clipPath id="SVGID_32_">
			<use xlink:href="#SVGID_31_"  style="overflow:visible;"/>
		</clipPath>
		<path class="st16" d="M328.1,2c0,0-5.7,0-5.7,5.7v20.7c0,0,0,5.7,5.7,5.7h32c0,0,5.7,0,5.7-5.7V7.7c0,0,0-5.7-5.7-5.7H328.1z"/>
	</g>
	<g>
		<defs>
			<rect id="SVGID_33_" x="-9" y="-8" width="397.6" height="50.8"/>
		</defs>
		<clipPath id="SVGID_34_">
			<use xlink:href="#SVGID_33_"  style="overflow:visible;"/>
		</clipPath>
		<path class="st17" d="M349,24.5c-1.9,0-3-1.9-3-5.1s1.1-5.1,3-5.1s3,1.9,3,5.1C352,22.5,350.9,24.5,349,24.5 M349,25.8
			c2.9,0,4.7-2.4,4.7-6.5c0-4-1.8-6.5-4.7-6.5c-2.9,0-4.6,2.4-4.6,6.5S346.1,25.8,349,25.8 M337.5,25.8c2.9,0,4.6-1.6,4.6-3.7
			c0-1.7-1.1-2.8-2.6-3.2v-0.1c1.3-0.5,2.2-1.5,2.2-2.9c0-1.8-1.5-3.1-3.8-3.1c-1.3,0-2.4,0.4-3.5,1.2l0.7,1.2c1-0.7,1.9-1,2.8-1
			c1.4,0,2.3,0.7,2.3,1.9s-1.1,2.2-2.8,2.2h-0.9v1.4h0.9c2,0,3.1,0.8,3.1,2.3c0,1.4-1,2.4-2.9,2.4c-0.9,0-1.9-0.2-2.9-0.9l-0.6,1.3
			C335.1,25.5,336.2,25.8,337.5,25.8"/>
	</g>
	<g>
		<defs>
			<rect id="SVGID_35_" x="-9" y="-8" width="397.6" height="50.8"/>
		</defs>
		<clipPath id="SVGID_36_">
			<use xlink:href="#SVGID_35_"  style="overflow:visible;"/>
		</clipPath>
		<path class="st18" d="M328.1,2c0,0-5.7,0-5.7,5.7v20.7c0,0,0,5.7,5.7,5.7h32c0,0,5.7,0,5.7-5.7V7.7c0,0,0-5.7-5.7-5.7H328.1z"/>
	</g>
	<g class="st19">
		<defs>
			<rect id="SVGID_37_" x="-9" y="-9" width="397.6" height="99.8"/>
		</defs>
		<clipPath id="SVGID_38_" class="st20">
			<use xlink:href="#SVGID_37_"  style="overflow:visible;"/>
		</clipPath>
		<path class="st21" d="M137.8,81.1c-0.5,0-1-0.5-1-1.6c0-1.5,0.9-3.1,2.2-4.7c0.1-0.2,0.2-0.3,0.4-0.5l-0.1,4
			C139.1,80.5,138.6,81.1,137.8,81.1 M144.2,67.3c0-0.1,0-0.1,0-0.2c0-0.2-0.2-0.3-0.4-0.3c-0.1,0-0.3,0.1-0.3,0.2
			c-0.6,1.7-2,3.4-3.4,5.1l0.2-7.3c0-0.2-0.2-0.4-0.4-0.4s-0.3,0.1-0.4,0.4c-0.2,1.7-0.8,6.6-2.7,6.6c-1,0-1.2-0.8-1.2-1.8
			c0-0.9,0.2-2.1,0.2-3.1c0-1.2-0.3-2.1-1.5-2.1c-1.3,0-1.8,1.6-2.1,2.5c0,0.1,0,0.1,0,0.1c0,0.2,0.2,0.4,0.4,0.4
			c0.1,0,0.2,0,0.3-0.2c0.2-0.5,0.7-2.1,1.5-2.1c0.6,0,0.8,0.6,0.8,1.4c0,0.9-0.2,2-0.2,3c0,1.4,0.3,2.5,1.9,2.5
			c1.4,0,2.1-1.3,2.6-2.7l-0.2,3.7c-1.7,2.2-3.3,4.3-3.3,6.4c0,1.2,0.6,2.3,1.7,2.3c1.4,0,2-1.3,2.1-3.4l0.2-5
			C141.6,71.4,143.3,69.7,144.2,67.3 M126.8,67.6c0.1,2.1-1.7,3.7-3.3,3.7c-1.3,0-2.3-1-2.4-2.4c-0.1-2.2,1.7-3.7,3.3-3.7
			C125.7,65.2,126.7,66.2,126.8,67.6 M127.5,67.6c-0.1-1.8-1.4-3.2-3.1-3.2c-1.9,0-4.2,1.9-4,4.5c0.1,1.8,1.4,3.1,3.1,3.1
			c1.2,0,2.5-0.7,3.3-1.9c0.3,1.2,1.1,1.9,1.9,1.9c1.3,0,2.9-1.5,4.3-4.8c0.1-0.3-0.1-0.5-0.3-0.5c-0.1,0-0.2,0-0.3,0.2
			c-1.4,3.2-2.8,4.3-3.6,4.3c-0.5,0-1.5-0.8-1.3-2.6v-0.1C127.5,68.3,127.5,68,127.5,67.6 M107.2,71.4c-0.5,0-1.1-0.2-1-1.7
			c0-2.2,1.1-3.5,2.6-4.4l-0.2,4.4C108.5,71,107.9,71.4,107.2,71.4 M115.9,61.3l0.2-3.9c0.1-1.7,0.7-2,1.2-2c0.6,0,1,0.4,1,1.8
			C118.3,59.2,117.3,60.4,115.9,61.3 M103.9,54.8c-0.4-0.2-0.8,0.4-0.3,0.6c1.9,1.1,3.8,1.2,5.8,0.3l-0.5,8.7
			c-1.9,1.1-3.3,2.6-3.4,5.3c0,1.6,0.9,2.5,1.8,2.5s1.9-0.8,2.1-2.4l0.2-4.9c1.7-0.9,3.8-1.4,5.6-2.3l-0.3,6.1
			c-0.1,2.1,0.6,3.4,2.3,3.4c1.5,0,3.1-1.9,4.3-4.8c0.2-0.4-0.5-0.7-0.6-0.3c-1.2,2.8-2.6,4.3-3.6,4.3s-1.6-0.7-1.5-2.6l0.3-6.6
			c1.8-1,3.2-2.4,3.2-4.9c0-1.5-0.4-2.5-1.7-2.5c-1,0-1.8,0.8-1.9,2.6l-0.2,4.3c-1.7,0.9-3.8,1.4-5.6,2.3l0.5-9.5
			C107.9,55.7,106.2,56,103.9,54.8"/>
	</g>
</g>
<g class="st19">
	<g class="st20">
		<defs>
			<rect id="SVGID_39_" x="-9" y="-9" width="397.6" height="99.8"/>
		</defs>
		<clipPath id="SVGID_40_">
			<use xlink:href="#SVGID_39_"  style="overflow:visible;"/>
		</clipPath>
		<path class="st22" d="M164.9,70.9c-1.9,0-3-1.9-3-5.1c0-3.2,1.1-5.1,3-5.1s3,1.9,3,5.1S166.8,70.9,164.9,70.9 M164.9,72.2
			c2.9,0,4.7-2.4,4.7-6.5c0-4-1.8-6.5-4.7-6.5s-4.6,2.4-4.6,6.5C160.3,69.8,162.1,72.2,164.9,72.2 M153.5,72.2
			c2.9,0,4.6-1.6,4.6-3.7c0-1.7-1.1-2.8-2.6-3.2v-0.1c1.3-0.5,2.2-1.5,2.2-2.9c0-1.8-1.5-3.1-3.8-3.1c-1.3,0-2.4,0.4-3.5,1.2
			l0.7,1.2c1-0.7,1.9-1,2.8-1c1.4,0,2.3,0.7,2.3,1.9s-1.1,2.2-2.8,2.2h-0.9v1.4h0.9c2,0,3.1,0.8,3.1,2.3c0,1.4-1,2.4-2.9,2.4
			c-0.9,0-1.9-0.2-2.9-0.9l-0.6,1.3C151,71.9,152.2,72.2,153.5,72.2"/>
	</g>
</g>
<g class="st19">
	<g class="st20">
		<defs>
			<rect id="SVGID_41_" x="-9" y="-9" width="397.6" height="99.8"/>
		</defs>
		<clipPath id="SVGID_42_">
			<use xlink:href="#SVGID_41_"  style="overflow:visible;"/>
		</clipPath>
		<path class="st23" d="M256,71.2c-0.4-0.3-0.8,0.3-0.5,0.6c0.3,0.3,1,0.4,1.3,0.4c0.1,0,0.2,0,0.3,0c2,0,4.3-0.6,6.2-4.8
			c0.1-0.3-0.1-0.5-0.3-0.5c-0.1,0-0.3,0.1-0.3,0.2c-1.2,2.8-2.6,3.8-4,4.2c0.4-0.5,0.6-1.3,0.5-2.1c-0.1-1.8-2.1-3.3-3.4-4.5
			c-0.1-0.1-0.1-0.2-0.3-0.2c-0.3,0-0.5,0.2-0.4,0.5l0,0c-0.1,0.5-0.4,1.3-0.8,2.1c-0.1,0.3,0.1,0.5,0.4,0.5c0.1,0,0.2,0,0.3-0.2
			c0.2-0.6,0.5-1.3,0.7-1.8c1.1,0.9,2.7,2.3,2.8,3.6c0.1,1.4-0.6,2.2-1.5,2.2h-0.1C256.6,71.4,256.3,71.3,256,71.2 M248.9,67.6
			c0.1,2.1-1.7,3.7-3.3,3.7c-1.3,0-2.3-1-2.4-2.4c-0.1-2.2,1.7-3.7,3.3-3.7C247.9,65.2,248.9,66.2,248.9,67.6 M249.7,67.6
			c-0.1-1.8-1.3-3.2-3.1-3.2c-1.9,0-4.2,1.9-4,4.5c0.1,1.8,1.3,3.1,3.1,3.1c1.2,0,2.5-0.7,3.3-1.9c0.3,1.2,1.1,1.9,1.9,1.9
			c1.3,0,2.9-1.5,4.3-4.8c0.1-0.3-0.1-0.5-0.3-0.5c-0.1,0-0.2,0-0.3,0.2c-1.4,3.2-2.8,4.3-3.6,4.3c-0.5,0-1.5-0.8-1.3-2.6v-0.1
			C249.6,68.3,249.7,68,249.7,67.6 M237.2,81.1c-0.5,0-1-0.5-1-1.6c0-1.5,0.9-3.1,2.2-4.7l0.4-0.5l-0.1,4.1
			C238.5,80.5,237.9,81.1,237.2,81.1 M239.5,72.2l0.3-7.3c0-0.5-0.6-0.4-0.7-0.2l-0.9,2.3c-0.2,0.4,0.1,0.6,0.3,0.6
			c0.1,0,0.3-0.1,0.3-0.2L239,67l-0.2,6.2c-1.7,2.1-3.3,4.3-3.3,6.4c0,1.2,0.6,2.3,1.7,2.3c1.4,0,2-1.3,2.1-3.4l0.2-5
			c1.6-1.9,3.2-3.7,4.1-6c0.1-0.3-0.1-0.5-0.3-0.5s-0.3,0.1-0.4,0.3C242.3,68.8,240.9,70.5,239.5,72.2 M240,59.7
			c-0.4,0-0.7,0.3-0.7,0.7s0.3,0.7,0.7,0.7s0.7-0.3,0.7-0.7S240.5,59.7,240,59.7 M225,67c-0.1,0.3,0.1,0.5,0.4,0.5
			c0.1,0,0.2-0.1,0.3-0.2c0.5-1.4,1.2-2.2,1.8-2.2c1.4,0,0.8,5.9,0.7,6.5c0,0.5,0.6,0.6,0.7,0.1c0.5-4.4,2-6.6,3-6.6
			c2.8,0-0.5,6.9,2.7,6.9c1.3,0,2.9-1.5,4.3-4.8c0.1-0.3-0.1-0.5-0.3-0.5c-0.1,0-0.3,0.1-0.3,0.2c-1.4,3.3-2.9,4.3-3.6,4.3
			c-2.1,0,0.9-6.9-2.7-6.9c-1.1,0-2.1,1.2-2.8,3.1c0-1-0.2-3.1-1.6-3.1C226.2,64.4,225.5,65.7,225,67 M219.4,67.6
			c0.1,2.1-1.7,3.7-3.3,3.7c-1.3,0-2.3-1-2.4-2.4c-0.1-2.2,1.7-3.7,3.3-3.7C218.4,65.2,219.4,66.2,219.4,67.6 M220.2,67.6
			c-0.1-1.8-1.4-3.2-3.1-3.2c-1.9,0-4.2,1.9-4,4.5c0.1,1.8,1.3,3.1,3.1,3.1c1.2,0,2.5-0.7,3.3-1.9c0.3,1.2,1.1,1.9,1.9,1.9
			c1.3,0,2.9-1.5,4.3-4.8c0.1-0.3-0.1-0.5-0.3-0.5c-0.1,0-0.2,0-0.3,0.2c-1.4,3.2-2.8,4.3-3.6,4.3c-0.5,0-1.5-0.8-1.3-2.6v-0.1
			C220.2,68.3,220.2,68,220.2,67.6 M207.9,65.9c-0.2,0.8-0.5,2-0.5,3.2c0,1.6,0.5,3,2.3,3c1.3,0,2.9-1.5,4.3-4.8c0-0.1,0-0.1,0-0.2
			c0-0.2-0.2-0.3-0.4-0.3c-0.1,0-0.3,0.1-0.3,0.2c-1.4,3.2-2.9,4.3-3.6,4.3c-1.3,0-1.6-1.1-1.6-2.3c0-1.1,0.2-2.2,0.4-2.8
			c0.1-0.4,0.3-1.1,0.4-1.5c0-0.2-0.2-0.3-0.4-0.3c-0.1,0-0.2,0.1-0.3,0.1c-0.4,0.6-1.5,1.1-2.2,1.1c-0.2,0-0.4,0-0.5-0.1l0.1-0.2
			c0.1-0.1,0.1-0.2,0.1-0.3c0-0.4-0.3-0.7-0.7-0.7s-0.6,0.3-0.6,0.7c0,0.3,0.1,0.5,0.2,0.7c-0.2,0.6-0.5,1.2-0.5,1.2
			c0,0.1,0,0.1,0,0.1c0,0.2,0.2,0.4,0.4,0.4c0.1,0,0.3-0.1,0.3-0.2l0.5-1.1c0.2,0.1,0.5,0.1,0.8,0.1
			C206.7,66.3,207.4,66.1,207.9,65.9 M198.6,67.6c0.1,2.1-1.7,3.7-3.3,3.7c-1.3,0-2.3-1-2.4-2.4c-0.1-2.2,1.7-3.7,3.3-3.7
			C197.5,65.2,198.5,66.2,198.6,67.6 M199.3,67.6c-0.1-1.8-1.3-3.2-3.1-3.2c-1.9,0-4.2,1.9-4,4.5c0.1,1.8,1.3,3.1,3.1,3.1
			c1.2,0,2.5-0.7,3.3-1.9c0.3,1.2,1.1,1.9,1.9,1.9c1.3,0,2.9-1.5,4.3-4.8c0.1-0.3-0.1-0.5-0.3-0.5c-0.1,0-0.2,0-0.3,0.2
			c-1.4,3.2-2.8,4.3-3.6,4.3c-0.5,0-1.5-0.8-1.3-2.6v-0.1C199.3,68.3,199.3,68,199.3,67.6 M192.9,66.8c-0.1,0-0.3,0.1-0.3,0.2
			c-1.4,3.3-2.9,4.3-3.6,4.3c-2.1,0,0.9-6.9-2.7-6.9c-1.1,0-2.1,1.2-2.8,3.1c0-1-0.2-3.1-1.6-3.1c-1.2,0-1.9,1.2-2.4,2.5l-0.1,0.1
			c-1.4,3.3-2.9,4.3-3.6,4.3c-0.2,0-0.4,0.2-0.4,0.4c0,0.2,0.1,0.4,0.4,0.4c1.2,0,2.9-1.5,4.2-4.6l0.1-0.1c0.5-1.4,1.2-2.2,1.8-2.2
			c1.4,0,0.8,5.9,0.7,6.5c0,0.5,0.6,0.6,0.7,0.1c0.5-4.4,2-6.6,3-6.6c2.8,0-0.5,6.9,2.7,6.9c1.3,0,2.9-1.5,4.3-4.8
			C193.3,67,193.1,66.8,192.9,66.8"/>
	</g>
</g>
</svg>
