<?xml version="1.0" encoding="utf-8"?>
<!-- Generator: Adobe Illustrator 15.1.0, SVG Export Plug-In . SVG Version: 6.00 Build 0)  -->
<!DOCTYPE svg PUBLIC "-//W3C//DTD SVG 1.1//EN" "http://www.w3.org/Graphics/SVG/1.1/DTD/svg11.dtd">
<svg version="1.1" id="Capa_1" xmlns="http://www.w3.org/2000/svg" xmlns:xlink="http://www.w3.org/1999/xlink" x="0px" y="0px"
	 width="137.4px" height="27.3px" viewBox="0 0 137.4 27.3" style="enable-background:new 0 0 137.4 27.3;" xml:space="preserve">
<style type="text/css">
<![CDATA[
	.st0{clip-path:url(#SVGID_2_);}
]]>
</style>
<g>
	<defs>
		<rect id="SVGID_1_" width="137.4" height="27.3"/>
	</defs>
	<clipPath id="SVGID_2_">
		<use xlink:href="#SVGID_1_"  style="overflow:visible;"/>
	</clipPath>
	<path class="st0" d="M129.9,16.7c-0.4-0.3-0.8,0.3-0.5,0.6c0.3,0.3,1,0.4,1.3,0.4c0.1,0,0.2,0,0.3,0c2,0,4.3-0.6,6.2-4.8
		c0.1-0.3-0.1-0.5-0.3-0.5c-0.1,0-0.3,0.1-0.3,0.2c-1.2,2.8-2.6,3.8-4.1,4.2c0.4-0.5,0.6-1.3,0.5-2.1c-0.1-1.8-2.1-3.3-3.4-4.5
		c-0.1-0.1-0.1-0.2-0.3-0.2c-0.3,0-0.5,0.2-0.4,0.5v0c-0.1,0.5-0.4,1.3-0.8,2.1c-0.1,0.3,0.1,0.5,0.4,0.5c0.1,0,0.2,0,0.3-0.2
		c0.2-0.6,0.5-1.3,0.7-1.8c1.1,0.9,2.7,2.3,2.8,3.6c0.1,1.4-0.6,2.2-1.5,2.2h-0.1C130.5,16.9,130.2,16.8,129.9,16.7 M122.8,13.1
		c0.1,2.1-1.7,3.7-3.3,3.7c-1.3,0-2.3-1-2.4-2.4c-0.1-2.2,1.7-3.7,3.3-3.7C121.8,10.7,122.8,11.7,122.8,13.1 M123.6,13.1
		c-0.1-1.8-1.3-3.2-3.1-3.2c-1.9,0-4.2,1.9-4,4.5c0.1,1.8,1.3,3.1,3.1,3.1c1.2,0,2.5-0.7,3.3-1.9c0.3,1.2,1.1,1.9,1.9,1.9
		c1.3,0,2.9-1.5,4.3-4.8c0.1-0.3-0.1-0.5-0.3-0.5c-0.1,0-0.2,0-0.3,0.2c-1.4,3.2-2.8,4.3-3.6,4.3c-0.5,0-1.5-0.8-1.3-2.6v-0.1
		C123.6,13.8,123.6,13.5,123.6,13.1 M112,11.4V2.3c0-1.2,0.2-1.3,0.5-1.3c0.6,0,1.2,1,1.2,3C113.7,6.5,113.1,9.2,112,11.4 M112,12.9
		c1.8-3.1,2.4-6.3,2.4-8.9c0-1.9-0.5-3.7-1.9-3.7c-0.7,0-1.2,0.8-1.2,2.1v12.3c0,2.2,0.7,3,1.6,3c1.3,0,3.2-1.5,4.6-5.1
		c0.1-0.3-0.1-0.5-0.3-0.5c-0.1,0-0.3,0.1-0.3,0.2c-1.4,3.5-3.2,4.6-4,4.6c-0.3,0-0.9-0.1-0.9-2.3L112,12.9
		C112,12.9,112,12.9,112,12.9 M106.5,11.4V2.3c0-1.2,0.2-1.3,0.5-1.3c0.6,0,1.2,1,1.2,3C108.2,6.5,107.6,9.2,106.5,11.4 M106.5,12.9
		c1.8-3.1,2.4-6.3,2.4-8.9c0-1.9-0.5-3.7-1.9-3.7c-0.7,0-1.2,0.8-1.2,2.1v12.3c0,2.2,0.7,3,1.6,3c1.3,0,3.2-1.5,4.6-5.1
		c0.1-0.3-0.1-0.5-0.3-0.5c-0.1,0-0.3,0.1-0.3,0.2c-1.4,3.5-3.2,4.6-4,4.6c-0.3,0-0.9-0.1-0.9-2.3L106.5,12.9
		C106.5,12.9,106.5,12.9,106.5,12.9 M99.5,12.6c-0.1,0.2,0.1,0.5,0.4,0.5c0.1,0,0.2,0,0.3-0.2l0.1-0.4c0,0.9-0.1,1.7-0.1,2.1
		c0,2.2,0.7,3,1.9,3c1,0,2.9-1.5,4.3-4.8c0.1-0.3-0.1-0.5-0.3-0.5c-0.2,0-0.2,0.1-0.3,0.2c-1.4,3.3-3.1,4.3-3.6,4.3
		c-0.5,0-1.1-0.1-1.1-2.3c0-0.8,0-2.5,0.1-4.3c0-0.3-0.5-0.5-0.7-0.1C100.4,10.2,99.9,11.8,99.5,12.6 M101.4,5.2
		c-0.4,0-0.7,0.3-0.7,0.7s0.3,0.7,0.7,0.7c0.4,0,0.7-0.3,0.7-0.7S101.8,5.2,101.4,5.2 M94.6,4.8h-2.3c-0.5,0-0.5,0.7,0,0.7h2.2
		c-0.4,3.9-1,5.3-1.7,7c-0.1,0.3,0.1,0.5,0.3,0.5c0.1,0,0.3-0.1,0.3-0.2c0.4-0.9,0.7-1.6,1-2.6c-0.1,1.9-0.1,3.6-0.1,4.4
		c0,2.2,0.7,3,1.6,3c1.3,0,2.9-1.5,4.3-4.8c0.1-0.3-0.1-0.5-0.3-0.5c-0.1,0-0.3,0.1-0.3,0.2c-1.4,3.2-2.9,4.3-3.6,4.3
		c-0.2,0-0.9-0.1-0.9-2.3c0-1.5,0.2-6,0.3-9.1h3.5c0.5,0,0.5-0.7,0-0.7h-3.5l0.1-1.3l0.2-2.9c0-0.5-0.7-0.5-0.7,0
		C94.8,2.2,94.7,3.6,94.6,4.8 M82.6,13c-0.1,0.5-0.1,1-0.1,1.5c0,1.5,0.4,3.1,2.3,3.1c1.3,0,2.1-1,2.6-2.3c0.1,1.3,0.5,2.3,1.8,2.3
		c1.1,0,3.1-1.5,4.2-4.8c0.1-0.3-0.1-0.5-0.3-0.5c-0.1,0-0.3,0.1-0.3,0.2c-1.1,3.3-3.1,4.3-3.6,4.3c-1.6,0-1-4.5-0.8-6.1l0.1-0.5
		c0.1-0.5-0.6-0.6-0.7-0.1l-0.1,0.2l-0.2,1.4c-0.4,2.1-1.1,5-2.8,5c-1.1,0-1.6-0.5-1.6-2.3c0-1.1,0.2-2.4,0.5-4.2
		c0.1-0.5-0.6-0.7-0.7-0.2c-0.2,0.6-0.5,1.4-0.9,2.4c-0.1,0.3,0.1,0.5,0.4,0.5C82.4,13,82.5,13,82.6,13 M76.5,11.4
		c-0.2,0.8-0.5,2-0.5,3.2c0,1.6,0.5,3,2.3,3c1.3,0,2.9-1.5,4.3-4.8c0-0.1,0-0.1,0-0.2c0-0.2-0.2-0.3-0.4-0.3c-0.1,0-0.3,0.1-0.3,0.2
		c-1.3,3.2-2.9,4.3-3.6,4.3c-1.3,0-1.6-1.1-1.6-2.3c0-1.1,0.2-2.2,0.4-2.8c0.1-0.4,0.3-1.1,0.4-1.5c0-0.2-0.2-0.3-0.4-0.3
		c-0.1,0-0.2,0.1-0.3,0.1c-0.4,0.6-1.5,1.1-2.2,1.1c-0.2,0-0.4,0-0.5-0.1l0.1-0.2c0.1-0.1,0.1-0.2,0.1-0.3c0-0.4-0.3-0.7-0.7-0.7
		c-0.4,0-0.6,0.3-0.6,0.7c0,0.3,0.1,0.5,0.2,0.7c-0.2,0.6-0.5,1.2-0.5,1.2c0,0.1,0,0.1,0,0.1c0,0.2,0.2,0.4,0.4,0.4
		c0.1,0,0.3-0.1,0.3-0.2l0.5-1.1c0.2,0.1,0.5,0.1,0.8,0.1C75.4,11.9,76.1,11.6,76.5,11.4 M68.2,24.5c-0.1,0.4-0.7,2.1-1.3,2.1
		c-0.5,0-1.3-0.6-1.3-4.5c0-0.4,0-0.8,0.2-4.9c0.6,0.4,1.3,0.7,2,0.7c0.3,0,0.6-0.1,0.9-0.2c0.2,0.8,0.2,1.5,0.2,2.1
		C68.9,21.5,68.6,23.2,68.2,24.5 M66.6,15.7c0.8,0,1.8,0.7,1.8,1.4c-0.2,0.1-0.4,0.1-0.6,0.1c-0.8,0-1.9-0.3-1.9-0.9
		C65.9,15.9,66.3,15.7,66.6,15.7 M66.2,6.3C66.3,2,66.9,1,67.8,1c0.5,0,1.1,0.8,1.1,2.5c0,2.8-1.5,8.2-3.1,10.9L66.2,6.3z
		 M73.1,12.3c-0.1,0-0.3,0.1-0.3,0.2c-0.6,2-2.1,3.5-3.7,4.3c-0.5-1.1-1.3-1.9-2.4-1.9c-0.1,0-0.2,0-0.4,0c0.3-0.5,0.7-1.2,1-2
		c0-0.1,0-0.1,0.1-0.2c0,0,0,0,0-0.1c1.1-2.8,2.2-6.6,2.2-9.2c0-1.6-0.6-3.2-1.8-3.2c-1.8,0-2.2,2-2.3,5.9l-0.3,9.2
		c-0.8,1-1.5,1.4-2,1.4c-0.2,0-0.4,0.2-0.4,0.4c0,0.2,0.1,0.4,0.4,0.4c0.6,0,1.3-0.3,2-1c-0.2,5.1-0.2,5.4-0.2,5.7
		c0,3.6,0.7,5.1,2,5.1c2.2,0,2.7-6.3,2.7-7.5c0-0.7-0.1-1.5-0.3-2.3c1.9-0.8,3.4-2.5,4.2-4.7c0-0.1,0-0.1,0-0.2
		C73.5,12.5,73.3,12.3,73.1,12.3"/>
	<path class="st0" d="M51.5,16.5c-1.4,0-2.8-0.9-2.8-2.5c0-1.4,1-2.5,2.8-2.5c1.8,0,2.8,1.1,2.8,2.5C54.3,15.6,52.9,16.5,51.5,16.5
		 M51.5,10.2c-1.2,0-2.4-0.7-2.4-2.1c0-1.2,0.8-2,2.4-2c1.5,0,2.4,0.8,2.4,2C53.8,9.5,52.7,10.2,51.5,10.2 M51.5,17.8
		c2.4,0,4.5-1.3,4.5-3.6c0-1.5-0.8-2.9-2.3-3.3v-0.1c0.9-0.4,1.7-1.3,1.7-2.7c0-1.8-1.5-3.2-3.9-3.2c-2.5,0-3.9,1.4-3.9,3.2
		c0,1.4,0.8,2.3,1.8,2.8v0.1c-1.5,0.5-2.3,1.7-2.3,3.3C47,16.5,49,17.8,51.5,17.8"/>
	<path class="st0" d="M34.5,26.6c-0.5,0-1-0.5-1-1.6c0-1.5,0.9-3.1,2.2-4.7c0.1-0.2,0.2-0.3,0.4-0.5l-0.1,4
		C35.8,26,35.2,26.6,34.5,26.6 M40.8,12.8c0-0.1,0-0.1,0-0.2c0-0.2-0.2-0.3-0.4-0.3c-0.1,0-0.3,0.1-0.3,0.2c-0.6,1.7-2,3.4-3.4,5.1
		l0.2-7.3c0-0.2-0.2-0.4-0.4-0.4c-0.2,0-0.3,0.1-0.4,0.4c-0.2,1.7-0.8,6.6-2.7,6.6c-1,0-1.2-0.8-1.2-1.8c0-0.9,0.2-2.1,0.2-3.1
		c0-1.2-0.3-2.1-1.5-2.1c-1.3,0-1.8,1.6-2.1,2.5c0,0.1,0,0.1,0,0.1c0,0.2,0.2,0.4,0.4,0.4c0.1,0,0.2,0,0.3-0.2
		c0.2-0.5,0.7-2.1,1.5-2.1c0.6,0,0.8,0.6,0.8,1.4c0,0.9-0.2,2-0.2,3c0,1.4,0.3,2.5,1.9,2.5c1.4,0,2.1-1.3,2.6-2.7L36,18.6
		c-1.7,2.2-3.3,4.3-3.3,6.4c0,1.2,0.6,2.3,1.7,2.3c1.4,0,2-1.3,2.1-3.4l0.2-5C38.3,17,39.9,15.2,40.8,12.8 M23.4,13.1
		c0.1,2.1-1.7,3.7-3.3,3.7c-1.3,0-2.3-1-2.4-2.4c-0.1-2.2,1.7-3.7,3.3-3.7C22.4,10.7,23.4,11.7,23.4,13.1 M24.2,13.1
		c-0.1-1.8-1.4-3.2-3.1-3.2c-1.9,0-4.2,1.9-4,4.5c0.1,1.8,1.4,3.1,3.1,3.1c1.2,0,2.5-0.7,3.3-1.9c0.3,1.2,1.1,1.9,1.9,1.9
		c1.3,0,2.9-1.5,4.3-4.8c0.1-0.3-0.1-0.5-0.3-0.5c-0.1,0-0.2,0-0.3,0.2c-1.4,3.2-2.8,4.3-3.6,4.3c-0.5,0-1.5-0.8-1.3-2.6v-0.1
		C24.1,13.8,24.2,13.5,24.2,13.1 M3.8,16.9c-0.5,0-1.1-0.2-1-1.7c0-2.2,1.1-3.5,2.6-4.4l-0.2,4.4C5.2,16.5,4.5,16.9,3.8,16.9
		 M12.6,6.8l0.2-3.9c0.1-1.7,0.7-2,1.2-2c0.6,0,1,0.4,1,1.8C15,4.8,14,6,12.6,6.8 M0.5,0.3C0.1,0.1-0.2,0.7,0.2,0.9
		C2.1,2,4,2.1,5.9,1.2L5.5,9.9c-1.9,1.1-3.3,2.6-3.4,5.3c0,1.6,0.9,2.5,1.8,2.5c0.9,0,1.9-0.8,2.1-2.4l0.2-4.9
		c1.7-0.9,3.8-1.4,5.6-2.3l-0.3,6.1c-0.1,2.1,0.6,3.4,2.3,3.4c1.5,0,3.1-1.9,4.3-4.8c0.2-0.4-0.5-0.7-0.6-0.3
		c-1.2,2.8-2.6,4.3-3.6,4.3s-1.6-0.7-1.5-2.6l0.3-6.6c1.8-1,3.2-2.4,3.2-4.9c0-1.5-0.4-2.5-1.7-2.5c-1,0-1.8,0.8-1.9,2.6l-0.2,4.3
		c-1.7,0.9-3.8,1.4-5.6,2.3L6.7,0C4.6,1.2,2.8,1.5,0.5,0.3"/>
</g>
</svg>
