<?xml version="1.0" encoding="utf-8"?>
<!-- Generator: Adobe Illustrator 25.4.1, SVG Export Plug-In . SVG Version: 6.00 Build 0)  -->
<svg version="1.1" xmlns="http://www.w3.org/2000/svg" xmlns:xlink="http://www.w3.org/1999/xlink" x="0px" y="0px"
	 viewBox="0 0 612 792" style="enable-background:new 0 0 612 792;" xml:space="preserve">
<style type="text/css">
	.st0{fill:#FFFFFF;stroke:#000000;stroke-miterlimit:10;}
	.st1{fill:#73B72B;}
</style>
<g id="Capa_2">
	<rect x="-3.6" y="-3.3" class="st0" width="618.2" height="797.6"/>
</g>
<g id="Capa_1">
	<g>
		<path class="st1" d="M50.4,39.5c0,0,6.5-0.7,8.5,7.1c0,0,0.6,3.3,1.3,5.5c0,0-5.4,1-9.1-4.3C51.2,47.8,49,43.9,50.4,39.5"/>
		<path class="st1" d="M57.8,40.5c0,0,0.3,2.8,3.1,4.7c0,0,2.7,1.8,5.9,1.2c0,0,0.7-3.4-2.7-5.7C64.1,40.8,60.7,38.5,57.8,40.5"/>
		<path class="st1" d="M50.5,36.4c0,0,2.5,3,7.9,2.3c0,0,4-0.5,5.8-5.3c0,0-2.5-2.6-7.4-2.3C56.8,31.1,51.5,31.7,50.5,36.4"/>
		<path class="st1" d="M24.9,3.8L19,15c0,0-2.9-0.4-1.6-3C17.4,11.9,21.3,6.1,24.9,3.8 M10.7,40.9c0,0,7,0.5,11.9,1.9L11.1,43
			C11.1,43,8.1,41,10.7,40.9 M7.9,81.8c0,0,7.2,0.5,12.6,2L8.9,83.9C8.9,83.9,5.3,81.9,7.9,81.8 M9.7,104.3
			c40.5-4.4,0.7,3.7,0.7,3.7C7.8,106,9.7,104.3,9.7,104.3 M10.7,186.9c0,0,7.2,0.6,12.7,2.3l-11.6,0C11.7,189.2,8.1,187,10.7,186.9
			 M29.2,382.6c2.7,1.7,0.7,3.3,0.7,3.3C-10.6,390,29.2,382.6,29.2,382.6 M31.1,436.8c2.6,1.8,0.5,3.3,0.5,3.3
			C-9.2,443.4,31.1,436.8,31.1,436.8 M21.3,464.8c-2.7-0.2,0-3.3,0-3.3l11.5,0.3C28.2,464.1,21.3,464.8,21.3,464.8 M15.1,479.9
			c0,0,7,0.5,11.9,1.9l-11.5,0.1C15.5,481.9,12.5,480,15.1,479.9 M15.3,592.7c0,0,7,0.5,11.9,1.9l-11.5,0.1
			C15.7,594.7,12.6,592.8,15.3,592.7 M36.1,724.2l-11.5,0.2c0,0-3.6-2-0.9-2.1C23.6,722.3,30.8,722.7,36.1,724.2 M35.7,696.5
			l-11.5,0.3c0,0-2.6-2.9,0-3.1C24.2,693.7,31.1,694.4,35.7,696.5 M32.8,664.8c0,0-39.8-8.1,0.7-3.7
			C33.5,661.1,35.5,662.9,32.8,664.8 M29.2,640.9l-11.6,0c0,0-3.7-2.2-1-2.3C16.5,638.6,23.8,639.2,29.2,640.9 M22.6,608.4
			c0,0-2.6-2.6,0-2.7c0,0,6.9,0.6,11.5,2.4L22.6,608.4z M40.6,572.7c-4.6,1.7-11.5,2.2-11.5,2.2c-2.7-0.1,0-2.5,0-2.5L40.6,572.7z
			 M29.2,528.7c0,0-1.8-1.8,0.9-1.8c0,0,6.6,0.7,10.6,2.1L29.2,528.7z M24.3,416.5c0,0-3.3-2.5-0.6-2.6c0,0,7.1,0.9,12.3,2.9
			L24.3,416.5z M22.6,490.8l11.5,0.2c-4.6,1.6-11.5,2-11.5,2C20,492.9,22.6,490.8,22.6,490.8 M19.8,556c40.5-4.4,0.7,3.7,0.7,3.7
			C17.8,557.7,19.8,556,19.8,556 M19,535.6c0,0-3.6-2.1-1-2.2c0,0,7.2,0.5,12.6,2L19,535.6z M38.9,322.4l-11.5,0.3
			c0,0-2.6-3.2,0-3.4C27.4,319.3,34.2,320,38.9,322.4 M31.2,209.4c0,0,2,1.8-0.7,3.7C30.5,213.1-9.3,205,31.2,209.4 M12.9,300.7
			c-0.7-0.2,1.3-1.7,1.3-1.7c5.3-2.2,9.3-3,9.3-3c-0.5,0.6-3.3,2.7-3.3,2.7C13.5,301.9,12.9,300.7,12.9,300.7 M24,245.8
			c0,0-2.6-2.9,0-3.1c0,0,6.9,0.6,11.5,2.8L24,245.8z M36,265.4l-11.5,0.2c0,0-3.6-2-0.9-2.1C23.5,263.5,30.6,263.9,36,265.4
			 M17.9,363.5c0,0,7.2,1.3,12.5,3.8l-11.7-0.8C18.6,366.5,15.2,363.4,17.9,363.5 M16.6,347.1c-0.7-0.2,1.6-1.8,1.6-1.8
			c5.7-2.4,9.9-3.2,9.9-3.2c-0.6,0.6-3.8,2.8-3.8,2.8C17,348.3,16.6,347.1,16.6,347.1 M37.1,166.7l-11.5-0.3c0,0-1.8-1.8,0.9-1.8
			C26.5,164.6,33.1,165.3,37.1,166.7 M18.5,69.3c0,0,6.6,0.7,10.6,2.1l-11.5-0.3C17.6,71.1,15.8,69.3,18.5,69.3 M18.2,54.7l11.5,0.2
			c-4.6,1.6-11.5,2-11.5,2C15.6,56.8,18.2,54.7,18.2,54.7 M19.1,120.8l11.5,0.2c-4.6,1.7-11.5,2.2-11.5,2.2
			C16.4,123.1,19.1,120.8,19.1,120.8 M19,154c0,0,6.9,0.6,11.5,2.4l-11.5,0.3C18.9,156.7,16.3,154.2,19,154 M12,143
			c0,0-3.1-1.9-0.4-2c0,0,7,0.5,11.9,1.9L12,143z M44.4,35.7L47.9-1H0v791.8l38.9,0.2c0,0,1.3-30.1-0.7-63.8c0,0-0.7-47.5,0.7-80.3
			c0,0,0.9-11.1,1.8-28.5l-11.5-0.3c0,0-1.8-1.8,0.9-1.8c0,0,6.6,0.6,10.6,2.1c0.8-15.1,1.5-34.8,1.5-56.1c0,0,2-44.9,0-59.6
			c0,0-2-16.4-2.6-52.7c0,0,0.7-44.9,0-60.5c0,0,3.9-18.1,3.3-44.9c0,0,0.7-21.6-0.7-36.3c0,0-2.6-19.9,0-37.1
			c0,0,5.3-28.5,0.7-66.5c0,0-4.6-35.4-5.9-59.6l7.3-106.8c5.8,0.8,9.4,0.5,9.4,0.5C50.8,38.1,47.7,37,44.4,35.7"/>
		<path class="st1" d="M61.6,64.1c0,0-8.8-1.8-15.3-1.6l14.1,4.2C60.5,66.7,64.9,65.2,61.6,64.1 M83.1,62.3c0,0-9,0.6-15.1,2.4
			L83.1,65C83.1,65,86.6,62.4,83.1,62.3 M92.3,65l15.2-0.3c-6.1-1.9-15.1-2.4-15.1-2.4C88.9,62.4,92.3,65,92.3,65 M115,66.7
			l14.1-4.2c-6.6-0.2-15.3,1.6-15.3,1.6C110.6,65.2,115,66.7,115,66.7 M135.8,64l15,1.7c-5.6-2.7-14.4-4.4-14.4-4.4
			C133,61.1,135.8,64,135.8,64 M158.6,66.7l14.1-4.2c-6.6-0.2-15.3,1.6-15.3,1.6C154.2,65.2,158.6,66.7,158.6,66.7 M179.9,65
			l15.2-0.3c-6.1-1.9-15.1-2.4-15.1-2.4C176.4,62.4,179.9,65,179.9,65 M202.5,66.7l14.1-4.2c-6.6-0.2-15.3,1.6-15.3,1.6
			C198.1,65.2,202.5,66.7,202.5,66.7 M223.3,64l15,1.7c-5.6-2.7-14.3-4.4-14.3-4.4C220.5,61.1,223.3,64,223.3,64 M246.2,66.7
			l14.1-4.2c-6.6-0.2-15.3,1.6-15.3,1.6C241.8,65.2,246.2,66.7,246.2,66.7 M266.8,65l15.2-0.3c-6.1-1.9-15.1-2.4-15.1-2.4
			C263.3,62.4,266.8,65,266.8,65 M289.4,66.7l14.1-4.2c-6.6-0.2-15.3,1.6-15.3,1.6C285,65.2,289.4,66.7,289.4,66.7 M310.2,64l15,1.7
			c-5.6-2.7-14.4-4.4-14.4-4.4C307.4,61.1,310.2,64,310.2,64 M333.1,66.7l14.1-4.2c-6.6-0.2-15.3,1.6-15.3,1.6
			C328.7,65.2,333.1,66.7,333.1,66.7 M354.3,65l15.2-0.3c-6.1-1.9-15.1-2.4-15.1-2.4C350.8,62.4,354.3,65,354.3,65 M376.9,66.7
			l14.1-4.2c-6.6-0.2-15.3,1.6-15.3,1.6C372.5,65.2,376.9,66.7,376.9,66.7 M397.7,64l15,1.7c-5.6-2.7-14.4-4.4-14.4-4.4
			C394.9,61.1,397.7,64,397.7,64 M420.6,66.7l14.1-4.2c-6.6-0.2-15.3,1.6-15.3,1.6C416.2,65.2,420.6,66.7,420.6,66.7 M440.4,65
			l15.2-0.3c-6.1-1.9-15.1-2.4-15.1-2.4C436.9,62.4,440.4,65,440.4,65 M463,66.7l14.1-4.2c-6.6-0.2-15.3,1.6-15.3,1.6
			C458.6,65.2,463,66.7,463,66.7 M483.8,64l15,1.7c-5.6-2.7-14.4-4.4-14.4-4.4C481,61.1,483.8,64,483.8,64 M506.7,66.7l14.1-4.2
			c-6.6-0.2-15.3,1.6-15.3,1.6C502.3,65.2,506.7,66.7,506.7,66.7 M527.9,65l15.2-0.3c-6.1-1.9-15.1-2.4-15.1-2.4
			C524.4,62.4,527.9,65,527.9,65 M550.6,66.7l14.1-4.2c-6.6-0.2-15.3,1.6-15.3,1.6C546.2,65.2,550.6,66.7,550.6,66.7 M571.4,64
			l15,1.7c-5.6-2.7-14.3-4.4-14.3-4.4C568.5,61.1,571.4,64,571.4,64 M594.2,66.7l14.1-4.2c-6.6-0.2-15.3,1.6-15.3,1.6
			C589.8,65.2,594.2,66.7,594.2,66.7"/>
	</g>
</g>
</svg>
