<?xml version="1.0" encoding="utf-8"?>
<!-- Generator: Adobe Illustrator 25.4.1, SVG Export Plug-In . SVG Version: 6.00 Build 0)  -->
<svg version="1.1" id="Capa_1" xmlns="http://www.w3.org/2000/svg" xmlns:xlink="http://www.w3.org/1999/xlink" x="0px" y="0px"
	 viewBox="0 0 612 792" style="enable-background:new 0 0 612 792;" xml:space="preserve">
<style type="text/css">
	.st0{fill:#FFFFFF;}
	.st1{clip-path:url(#SVGID_00000043430658266915146960000012709666482354795951_);fill:#E54637;}
</style>
<rect class="st0" width="612" height="792"/>
<g>
	<g>
		<g>
			<defs>
				<rect id="SVGID_1_" y="-0.4" width="47.9" height="792.7"/>
			</defs>
			<clipPath id="SVGID_00000082350789494007830420000012085518730708532621_">
				<use xlink:href="#SVGID_1_"  style="overflow:visible;"/>
			</clipPath>
			<path style="clip-path:url(#SVGID_00000082350789494007830420000012085518730708532621_);fill:#E54637;" d="M32.7,31.6l-11.5,0.3
				c0,0-2.6-3,0-3.2C21.2,28.7,28.1,29.4,32.7,31.6 M24.9,5.2L19,16.3c0,0-2.9-0.4-1.6-3C17.4,13.3,21.3,7.5,24.9,5.2 M10.7,42.3
				c0,0,7,0.5,11.9,1.9l-11.5,0.1C11.1,44.3,8.1,42.4,10.7,42.3 M7.9,83.1c0,0,7.2,0.5,12.6,2L8.9,85.3C8.9,85.3,5.3,83.2,7.9,83.1
				 M9.7,105.6c40.5-4.4,0.7,3.7,0.7,3.7C7.8,107.4,9.7,105.6,9.7,105.6 M10.7,188.3c0,0,7.2,0.6,12.7,2.3H11.8
				C11.7,190.5,8.1,188.3,10.7,188.3 M29.2,384c2.7,1.7,0.7,3.3,0.7,3.3C-10.6,391.4,29.2,384,29.2,384 M31.1,438.2
				c2.6,1.8,0.5,3.3,0.5,3.3C-9.2,444.8,31.1,438.2,31.1,438.2 M21.3,466.1c-2.7-0.2,0-3.3,0-3.3l11.5,0.3
				C28.2,465.4,21.3,466.1,21.3,466.1 M15.1,481.2c0,0,7,0.5,11.9,1.9l-11.5,0.1C15.5,483.2,12.5,481.3,15.1,481.2 M15.3,594
				c0,0,7,0.5,11.9,1.9L15.7,596C15.7,596.1,12.6,594.1,15.3,594 M36.1,725.5l-11.5,0.2c0,0-3.6-2-0.9-2.1
				C23.6,723.6,30.8,724.1,36.1,725.5 M35.7,697.9l-11.5,0.3c0,0-2.6-2.9,0-3.1C24.2,695.1,31.1,695.7,35.7,697.9 M32.8,666.1
				c0,0-39.8-8.1,0.7-3.7C33.5,662.5,35.5,664.2,32.8,666.1 M29.2,642.3H17.6c0,0-3.7-2.2-1-2.3C16.5,639.9,23.8,640.6,29.2,642.3
				 M22.6,609.8c0,0-2.6-2.6,0-2.7c0,0,6.9,0.6,11.5,2.4L22.6,609.8z M40.6,574.1c-4.6,1.7-11.5,2.2-11.5,2.2c-2.7-0.1,0-2.5,0-2.5
				L40.6,574.1z M40.8,530.4l-11.5-0.3c0,0-1.8-1.8,0.9-1.8C30.2,528.3,36.8,529,40.8,530.4 M24.3,417.8c0,0-3.3-2.6-0.6-2.6
				c0,0,7.1,0.9,12.3,2.9L24.3,417.8z M22.6,492.1l11.5,0.2c-4.6,1.6-11.5,2-11.5,2C20,494.3,22.6,492.1,22.6,492.1 M19.8,557.3
				c40.5-4.4,0.7,3.7,0.7,3.7C17.8,559.1,19.8,557.3,19.8,557.3 M19,537c0,0-3.6-2.1-1-2.2c0,0,7.2,0.5,12.6,2L19,537z M38.9,323.7
				L27.4,324c0,0-2.6-3.2,0-3.4C27.4,320.6,34.2,321.4,38.9,323.7 M31.2,210.8c0,0,2,1.8-0.7,3.7C30.5,214.4-9.3,206.4,31.2,210.8
				 M12.9,302.1c-0.7-0.2,1.3-1.7,1.3-1.7c5.3-2.2,9.3-3,9.3-3c-0.5,0.6-3.3,2.7-3.3,2.7C13.5,303.3,12.9,302.1,12.9,302.1
				 M24,247.2c0,0-2.6-2.9,0-3.1c0,0,6.9,0.6,11.5,2.8L24,247.2z M36,266.7L24.4,267c0,0-3.6-2-0.9-2.1
				C23.5,264.9,30.6,265.3,36,266.7 M17.9,364.8c0,0,7.2,1.3,12.5,3.8l-11.7-0.8C18.6,367.8,15.2,364.7,17.9,364.8 M16.6,348.4
				c-0.7-0.2,1.6-1.8,1.6-1.8c5.7-2.4,9.9-3.2,9.9-3.2c-0.6,0.6-3.8,2.8-3.8,2.8C17,349.7,16.6,348.4,16.6,348.4 M19,155.4
				c0,0,6.9,0.6,11.5,2.4L19,158.1C18.9,158.1,16.3,155.5,19,155.4 M12,144.4c0,0-3.1-1.9-0.4-2c0,0,7,0.5,11.9,1.9L12,144.4z
				 M30.6,122.4c-4.6,1.7-11.5,2.2-11.5,2.2c-2.7-0.1,0-2.5,0-2.5L30.6,122.4z M18.5,70.7c0,0,6.6,0.7,10.6,2.1l-11.5-0.3
				C17.6,72.4,15.8,70.6,18.5,70.7 M18.2,56l11.5,0.2c-4.6,1.6-11.5,2-11.5,2C15.6,58.2,18.2,56,18.2,56 M37.1,168.1l-11.5-0.3
				c0,0-1.8-1.8,0.9-1.8C26.5,166,33.1,166.6,37.1,168.1 M36.9,146.5l11-146.9H0v792.5l38.9,0.2c0,0,1.3-30.1-0.7-63.8
				c0,0-0.7-47.5,0.7-80.3c0,0,0.9-11.1,1.8-28.5l-11.5-0.3c0,0-1.8-1.8,0.9-1.8c0,0,6.6,0.6,10.6,2.1c0.8-15.1,1.5-34.8,1.5-56.1
				c0,0,2-44.9,0-59.6c0,0-2-16.4-2.6-52.7c0,0,0.7-44.9,0-60.5c0,0,3.9-18.1,3.3-44.9c0,0,0.7-21.6-0.7-36.3c0,0-2.6-19.9,0-37.1
				c0,0,5.3-28.5,0.7-66.5C42.9,206.1,38.2,170.7,36.9,146.5"/>
		</g>
	</g>
</g>
</svg>
